<svg xmlns="http://www.w3.org/2000/svg" viewBox="0 0 143.7 197"><title>pfc-cska-moscow-logo</title><path d="M539.29,589.61c-4,1-15.34-3.68-27.68-3.68-13.49,0-25.92,5.75-28.71,3.37-.55-.47-.24-.2.46.51,1.29,1.32,4.26,4,7.2,6.53a77.12,77.12,0,0,0,6.45,4.91,6.16,6.16,0,0,0,1.06.32,46.08,46.08,0,0,1,27.09,0,6.27,6.27,0,0,0,1.06-.32,77.87,77.87,0,0,0,6.44-4.91c2.93-2.51,5.91-5.21,7.2-6.53.7-.71-.19-.3-.56-.21" transform="translate(-440.15 -413.5)" style="fill:#ffd000;fill-rule:evenodd"/><path d="M524.83,602.45s-.32-.11-.95-.3-1.56-.43-2.74-.68a46.54,46.54,0,0,0-9.54-1,45.18,45.18,0,0,0-12.28,1.68c-.63.19-1,.3-1,.3l-.24.09-.25,0a6.86,6.86,0,0,1-1.25-.38l-.09,0-.08-.05a78.83,78.83,0,0,1-6.53-5c-2.95-2.52-5.92-5.22-7.26-6.58l-.5-.5c-.14-.14-.18-.18-.28-.28h0l-.06-.08-.07-.12,0-.06a.63.63,0,0,1,0-.15.7.7,0,0,1,0-.19.94.94,0,0,1,.93-.94h.1l.17,0,.12,0,.11.06,0,0,.05,0,.08.06.21.18a2.67,2.67,0,0,0,1.63.35c2.19,0,6-1,10.67-2a75.81,75.81,0,0,1,15.81-2,77.13,77.13,0,0,1,15.7,1.93c4.59,1,8.41,1.9,10.6,1.89a5,5,0,0,0,1.15-.11l.34-.11a2,2,0,0,1,.64-.12,1,1,0,0,1,.53.14,1,1,0,0,1,.49.85,1.11,1.11,0,0,1-.23.67,2.53,2.53,0,0,1-.3.34c-1.34,1.36-4.31,4.06-7.26,6.58a78.77,78.77,0,0,1-6.53,5l-.08.05-.08,0a6.86,6.86,0,0,1-1.25.38l-.25,0Zm.37-1.85h.06a4.51,4.51,0,0,0,.51-.16,75.53,75.53,0,0,0,6.29-4.79c2-1.73,4.08-3.56,5.56-5-2.62-.08-6.29-1-10.69-1.93a74.82,74.82,0,0,0-15.32-1.89,74.05,74.05,0,0,0-15.42,2c-4.28.91-7.86,1.84-10.47,2,1.47,1.37,3.47,3.16,5.44,4.84a77.24,77.24,0,0,0,6.29,4.79,5,5,0,0,0,.51.16H498a47.22,47.22,0,0,1,27.19,0" transform="translate(-440.15 -413.5)" style="fill-rule:evenodd"/><path d="M521,595.76l0-.05-.37-.83-.44-1,1-.3.07,0c.6-.19,1.18-.39,1.75-.6a3.63,3.63,0,0,0,1.31-2,15.36,15.36,0,0,1,.66-2.35l0-.07,0-.06c.34-.4.35-.57.88-.84a1.22,1.22,0,0,1,.32-.08h0l.08,0,.3-.15.32.08a2,2,0,0,1,.5.2v-.1c0-.61.22-1.92,1.54-4.5l.08-.16.14-.12a3.49,3.49,0,0,1,2.32-.74,6.75,6.75,0,0,1,1,.08,4.6,4.6,0,0,0,.27-1.23v0a9.53,9.53,0,0,1,3.14-5.95,3.75,3.75,0,0,1,1.8-1.52l.14,0h.2l.24,0a2.21,2.21,0,0,0,.07-.55,3.27,3.27,0,0,0-.14-.93v-.05a14.48,14.48,0,0,1-.51-3.21,3.14,3.14,0,0,1,.18-1.12,1.94,1.94,0,0,1,.48-.72,7.52,7.52,0,0,1,2.64-1.39l.09-.2a6.07,6.07,0,0,1,.55-1.17,1.72,1.72,0,0,1,1-.74,1.42,1.42,0,0,1,.34,0,2,2,0,0,1,1,.32l.64-1.71s4-10.86,5.91-14.72c1.23-2.48,3.75-4,6.73-5.3q0-.41-.09-.88v-.18l.05-.17a2.92,2.92,0,0,1,.5-1,2,2,0,0,1,.73-.56c.46-.19.45-.15.58-.29.39-.44.43-.57.42-.65a1.28,1.28,0,0,0-.19-.55v0h0a11.57,11.57,0,0,1-1.27-4.78,4.8,4.8,0,0,1,.45-2.14,4.62,4.62,0,0,1,1.76-1.71,9.18,9.18,0,0,1,.84-.45,6,6,0,0,1,1-1.18c.43-.38,1.39-1.06,2.29-1.7l-.08-.16c-.08-.16-.19-.39-.33-.72a34,34,0,0,1-1.12-3.35l-.05-.18,0-.19a2.34,2.34,0,0,1,1.26-1.81,4.6,4.6,0,0,1,.75-.31,2.86,2.86,0,0,0-.55-1.26v0l0,0a11.34,11.34,0,0,1-2-6.09,4.13,4.13,0,0,1,0-.55,1.77,1.77,0,0,1,.15-.55,1.63,1.63,0,0,1,1-.8,3.4,3.4,0,0,1,1-.13,7.12,7.12,0,0,1,.78.05c0-.07,0-.14,0-.22V509l.08-.16a1.61,1.61,0,0,1,1.25-.9l.19,0a3.17,3.17,0,0,0-.27-1h0a8.11,8.11,0,0,1-2.61-5.3v-.21a3.68,3.68,0,0,1,1.38-2.31c.2-.35.23-.42.22-.43s0-.11-.2-.4l0,0v0a6.51,6.51,0,0,1-1.18-3.53,4.57,4.57,0,0,1,.24-1.47,6.28,6.28,0,0,1,.3-.7l0,0,0,0a2,2,0,0,1,1.12-1,3.15,3.15,0,0,1,.5-.11c.07-.08.16-.22.27-.38.22-.33.46-.76.7-1.11a1.63,1.63,0,0,1,1.54-.88,1.8,1.8,0,0,0,.38-.06h0a.39.39,0,0,0,0-.11,10.79,10.79,0,0,1,2-4.64h0a1,1,0,0,1,.15-.2,1,1,0,0,1,.66-.27h.2l.12,0,.35.09a5.43,5.43,0,0,1,1,.45,4.17,4.17,0,0,1,2.08,2.61.83.83,0,0,0,.13.35.47.47,0,0,0,.15.08,2.43,2.43,0,0,1,1.39,1.35l0,0v0a9.38,9.38,0,0,1,.26.91,3,3,0,0,1,.05.46c.17.12.42.3.7.52a7.58,7.58,0,0,1,1.94,2.27l.11.2v.22c0,.42.05.9.05,1.43,0,.25,0,.51,0,.78a1.22,1.22,0,0,1,.08.22,12.44,12.44,0,0,1,.39,3,7.73,7.73,0,0,1-.21,1.84h0v0l0,0a5.18,5.18,0,0,0,.53.36,1.55,1.55,0,0,1,.59.65v0h0a.89.89,0,0,1,.07.38,2.55,2.55,0,0,1-.08.58c0,.19-.09.39-.14.59l-.08.36a3.48,3.48,0,0,1,1.36.57,1.65,1.65,0,0,1,.66,1.31,1.82,1.82,0,0,1,0,.31,5.67,5.67,0,0,1-.88,2.28c-1.25,1.78-4.06,2.81-4.41,4.37a4.58,4.58,0,0,0,0,1.18c0,.18,0,.31.05.46l.27,0a1.22,1.22,0,0,1,.36,0,1.35,1.35,0,0,1,.23.07.86.86,0,0,1,.21.12c0,.06.17.09.27.32a1,1,0,0,1,.11.43h0a.66.66,0,0,0,0,.07c0,.09,0,.23,0,.39,0,.32.06.75.06,1.25a9.26,9.26,0,0,1-.63,3.53h0a3.7,3.7,0,0,1,.58.43,1.45,1.45,0,0,1,.46,1v0h0a4,4,0,0,1-.36,1.47l.18.16a2.73,2.73,0,0,1,1,1.9,1.71,1.71,0,0,1,0,.35v.09a7.59,7.59,0,0,1-4.47,4.75h0a3.4,3.4,0,0,0-1.24,1,2.21,2.21,0,0,1,.34,1.15,2.15,2.15,0,0,1-.27,1,5.81,5.81,0,0,1,.21,1.62,14.28,14.28,0,0,1-1.69,6.09,63.64,63.64,0,0,0-2.52,6.26,12.85,12.85,0,0,1-2.7,4.66,13.7,13.7,0,0,1-4.57,3.17c-.1.39-.23.89-.41,1.45a13.34,13.34,0,0,1-1.76,3.78,4.42,4.42,0,0,1,.38.4,1.36,1.36,0,0,1,.32.86,1.34,1.34,0,0,1-.32.86,2.14,2.14,0,0,0-.3.46l.21.31a3.44,3.44,0,0,1,.58,1.74,1.94,1.94,0,0,1-.11.64l0,.08,0,.07a7.94,7.94,0,0,1-3.28,2.69,24.53,24.53,0,0,1-3.37,1.41.84.84,0,0,0-.41.24.71.71,0,0,0-.14.33c-.08.35,0,.92-.14,1.62a2.1,2.1,0,0,1-.89,1.42,10.66,10.66,0,0,1-1.44.83,4.94,4.94,0,0,1-1.25,2.52,5.76,5.76,0,0,1-2.22,1.43l0,0h0a1.89,1.89,0,0,1-.48.06,1.26,1.26,0,0,1-.29,0,2.15,2.15,0,0,1,.15.78,2.74,2.74,0,0,1-.1.73v.05l0,.05a9.44,9.44,0,0,1-.4.92,4.43,4.43,0,0,1-.32.5c0,.23.09.61.15,1a14.14,14.14,0,0,1,.19,2,3,3,0,0,1-.19,1.18,3.35,3.35,0,0,1-1,1.17,11.18,11.18,0,0,1-1.48,1,7.84,7.84,0,0,1-3.41,1.18h-.13a1.6,1.6,0,0,0-1,.21c-.2.12-.5.4-1,.77a11.46,11.46,0,0,1-3.22,3l-.15.09-.17,0a28.13,28.13,0,0,1-3.74.62,1.92,1.92,0,0,1,.09.35l.07.4L533,595a2,2,0,0,1-1.17.78,12.11,12.11,0,0,1-1.22.15h-.2a27.88,27.88,0,0,0-3.89-.38,13.09,13.09,0,0,0-4,.59l-.28.1-.87.29Zm5.45-2.07a27.75,27.75,0,0,1,4,.38l.43,0a1.21,1.21,0,0,1-.18-.62,1.28,1.28,0,0,1,.54-1l.05,0,.07,0a2.88,2.88,0,0,1,1.31-.44,1.21,1.21,0,0,1,.59.16c.42-.05,1.3-.19,3-.53a9.57,9.57,0,0,0,2.64-2.54l.09-.14.13-.09c.45-.31.73-.61,1.22-.92a3.5,3.5,0,0,1,2-.49h.13a4.78,4.78,0,0,0,1.7-.52,10.56,10.56,0,0,0,1.93-1.17,3,3,0,0,0,.55-.52.79.79,0,0,0,0-.11,2.25,2.25,0,0,0,0-.34,12.52,12.52,0,0,0-.17-1.71,14.67,14.67,0,0,1-.19-1.48,1.08,1.08,0,0,1,.06-.38l0-.14.08-.12a5.86,5.86,0,0,0,.38-.54c0-.08.12-.27.29-.69a.82.82,0,0,0,0-.19c0-.09,0-.08-.11-.28a2.27,2.27,0,0,1-.34-1.15,2.79,2.79,0,0,1,.28-1.16,2.18,2.18,0,0,0,.17-.63l.05-.43.36-.24a1,1,0,0,1,.55-.17,1,1,0,0,1,.72.32,1.08,1.08,0,0,1,.19.3,1.89,1.89,0,0,1,.12.33c0,.16.09.32.13.43a3.81,3.81,0,0,0,1.31-.88,3.13,3.13,0,0,0,.83-2l0-.61.58-.2a7.25,7.25,0,0,0,1.58-.84s0,0,.06-.09a2,2,0,0,0,.07-.51,4.54,4.54,0,0,1,.38-2,2.57,2.57,0,0,1,1.51-1.2,22.78,22.78,0,0,0,3.09-1.3,7,7,0,0,0,2.45-1.84,1.79,1.79,0,0,0-.3-.74,5.46,5.46,0,0,0-.36-.5l0,0a.63.63,0,0,1-.1-.16l-.11-.23v-.25a3.16,3.16,0,0,1,.54-1.41,1.8,1.8,0,0,1-.61-1.28,1.82,1.82,0,0,1,.4-1.09,11.22,11.22,0,0,0,1.47-3.14l.07-.23q-1.13.33-2.37.58h-.2a1.11,1.11,0,0,1-.44-.1,2.24,2.24,0,0,1-1,.23,2.55,2.55,0,0,1-.76-.13.93.93,0,0,0-.27-.05.62.62,0,0,0-.26.07c-.39.22-.55.32-.62.37a5.3,5.3,0,0,0-.44.4l-.15.15-.2.07a1.69,1.69,0,0,1-.53.07c-.27,0-.61,0-1,0l-3.27-.18-.77,2.38a4.55,4.55,0,0,0-.22,1.42v0l.14,2.36-1.71-1.62L548,562c-.17.15-.37.32-.58.52a7.31,7.31,0,0,0-1.62,2.18,1.77,1.77,0,0,1-.46.65,1.29,1.29,0,0,1-.85.32,1.68,1.68,0,0,1-.93-.31l-.37-.25,0,.06c-.12.25-.24.63-.45,1a1.54,1.54,0,0,1-.92.82,6.77,6.77,0,0,0-2.06,1s0,0,0,0a1.4,1.4,0,0,0-.05.46,12.84,12.84,0,0,0,.46,2.76,5.16,5.16,0,0,1,.21,1.44,3.86,3.86,0,0,1-.15,1.12,1.74,1.74,0,0,1-.68,1,2.43,2.43,0,0,1-1.17.33l-.14.09a2.42,2.42,0,0,0-.66.73l-.08.13-.12.1a7.71,7.71,0,0,0-2.59,4.78,6.78,6.78,0,0,1-.77,2.63l-.37.66-.72-.22-.09,0-.28-.07a5,5,0,0,0-.91-.09,2,2,0,0,0-1,.2,10.34,10.34,0,0,0-1.23,3.4.48.48,0,0,0,0-.12.67.67,0,0,1,0,.14h0a1.08,1.08,0,0,1,0,.15.53.53,0,0,1,0,.17s0,0,0,0a.28.28,0,0,0,0,.05l0,.14a4,4,0,0,1-.13.41,2.27,2.27,0,0,1-.78,1.09,1.29,1.29,0,0,1-.71.22,1.42,1.42,0,0,1-.85-.31l-.1-.08-.11.14c-.11.26-.23,1.06-.48,1.94a5.74,5.74,0,0,1-1.25,2.3,16,16,0,0,1,1.63-.08Zm6.41-.09V593h-.19l-.15.13.14-.12v.28a2.92,2.92,0,0,1,.2.3m-.67-.19h0ZM529.06,587a.59.59,0,0,0-.22-.15.93.93,0,0,1,.2.13h0m30.21-44.77.09.7-.65.28c-3.19,1.35-5.54,2.79-6.44,4.68s-2.35,5.48-3.59,8.66c-.44,1.13-.85,2.2-1.19,3.11l1.06-.69,2.05-1.31h-.19l3.21-1.58a19.38,19.38,0,0,1,4.1-1.55l1.08-.23.28-.05h.08a1.05,1.05,0,0,1,.46.11,10,10,0,0,1,3.94-.82h.19a.76.76,0,0,1,.19,0h0a11.63,11.63,0,0,0,3.63-2.59,11,11,0,0,0,2.31-4,66.7,66.7,0,0,1,2.59-6.41,12.46,12.46,0,0,0,1.5-5.28,3.1,3.1,0,0,0-.21-1.3l-.28-.52.35-.47.1-.14a.39.39,0,0,0,.09-.22.43.43,0,0,0-.08-.19c-.07-.11-.14-.17-.3-.38a1,1,0,0,1-.19-.58.92.92,0,0,1,.11-.45,1,1,0,0,1,.09-.15l.15-.22a6.71,6.71,0,0,1,.5-.6,5.09,5.09,0,0,1,1.74-1.26c2.72-1.3,3.23-2.92,3.42-3.51l0,0a1.32,1.32,0,0,0-.2-.27,3.84,3.84,0,0,0-.62-.54l-.18-.12-.77-.47.46-.79.07-.14c.05-.09.12-.23.18-.38a3.3,3.3,0,0,0,.2-.59,2.66,2.66,0,0,1-.65-.53,1.58,1.58,0,0,1-.39-1,2.13,2.13,0,0,1,.19-.84,7.35,7.35,0,0,0,.48-2.8c0-.34,0-.64,0-.89h0l-1.76,0,.66-.93-.43-.27V514c0-.35,0-.73-.06-1.12v-.07l.06-.81.07-.15a6.43,6.43,0,0,1,2.27-2.67,8.44,8.44,0,0,0,2.41-2.2,3.63,3.63,0,0,0,.57-1.44l-.15-.06c-.31-.12-.72-.16-1.13-.29a1.14,1.14,0,0,1-.58-.39h0a1.15,1.15,0,0,1-.23-.74,5.48,5.48,0,0,1,.19-1.15c0-.2.1-.4.13-.57a2.9,2.9,0,0,1-.82-.71,1.75,1.75,0,0,1-.35-1.07,2,2,0,0,1,.07-.53,6,6,0,0,0,.15-1.37,9.65,9.65,0,0,0-.19-1.82h-.51l.18-1.11a6.5,6.5,0,0,0,.07-1c0-.36,0-.74,0-1.12a5.61,5.61,0,0,0-1.19-1.38c-.45-.38-.8-.59-1.12-.85a1.27,1.27,0,0,1-.36-.43l-.09-.19v-.21a3.12,3.12,0,0,0,0-.55,5.74,5.74,0,0,0-.19-.65c-.13-.24-.1-.18-.23-.26a2.73,2.73,0,0,1-1-.64,2.58,2.58,0,0,1-.55-1.14,2.22,2.22,0,0,0-1-1.35,3.22,3.22,0,0,0-.55-.28c-.13.2-.28.44-.43.71a7.27,7.27,0,0,0-.92,2.6,2.07,2.07,0,0,1-.44,1.09,1.86,1.86,0,0,1-.84.57,3.44,3.44,0,0,1-.93.16c-.07.09-.16.23-.26.38-.22.35-.47.78-.74,1.14a2,2,0,0,1-.83.71,3.22,3.22,0,0,1-.63.14.74.74,0,0,0-.09.13,4.21,4.21,0,0,0-.22.5,2.64,2.64,0,0,0-.14.87,4.66,4.66,0,0,0,.87,2.5,2.23,2.23,0,0,1,.1,2.8,4,4,0,0,1-.78.86,1.42,1.42,0,0,0-.38.77c.19,2.22,1.34,3.12,2.16,4.1a3.06,3.06,0,0,1,.55,1.16,8.22,8.22,0,0,1,.24,1.5v.2l-.07.19a1.48,1.48,0,0,1-1.16.94l-.43,0a4.2,4.2,0,0,1-.12.6,1.5,1.5,0,0,1-.47.76,1,1,0,0,1-.66.24.94.94,0,0,1-.24,0l-.35-.07a5,5,0,0,0-.77-.07l-.29,0v.15a9.5,9.5,0,0,0,1.64,5,4.68,4.68,0,0,1,1,2.7,1.86,1.86,0,0,1-.09.62,1.08,1.08,0,0,1-.44.55,1.43,1.43,0,0,1-.32.15l-.47.15a1.53,1.53,0,0,0-.62.3.38.38,0,0,0-.07.1A20.55,20.55,0,0,0,566,524.5l0,.05.06.11,0,.06v0a.11.11,0,0,1,0,0,.19.19,0,0,1,0,.05l.05.17c0,.15.1.35.17.61l.17.63-.53.38c-1,.71-2.37,1.67-2.67,1.95a3.91,3.91,0,0,0-.79.94l-.16.31-.32.13-.24.11a6.63,6.63,0,0,0-.62.34,2.94,2.94,0,0,0-1.06,1,2.88,2.88,0,0,0-.26,1.3,9.72,9.72,0,0,0,1.08,4,3.08,3.08,0,0,1,.39,1.4,2.83,2.83,0,0,1-.89,1.89,2.49,2.49,0,0,1-1,.69c-.25.09-.19.08-.21.09a.94.94,0,0,0-.11.22c0,.49.09.93.14,1.31M565.42,526h0m.24-.08.14-.08h0l-.15.09m13-4.18h0Zm2.2-17.47.22-.17-.08.06ZM573,484.75v0m-1.86-.13v0m1.86-.08a.7.7,0,0,0,0-.12,1.08,1.08,0,0,1,0,.12m-1.85-.1h0Zm1.8-.12a.65.65,0,0,0-.05-.12.59.59,0,0,0-.08-.12l.05.08,0,.05a.68.68,0,0,1,.05.12m-.47-.53h0ZM478.39,587.42c-2.19-2.08-8.22-8.66-10.81-10.93-.86-.76-1.39-1.21-1.39-1.21l-1.32-1.12,1.66-.49s.36-.11,1-.24c-1.9-2.52-4-5.18-5.73-7.31-2-2.46-3.45-4.21-3.45-4.21l-1.21-1.45,1.89-.08h1.25a52.48,52.48,0,0,0-3.09-5.84,9.34,9.34,0,0,1-3.33-2.26,12.25,12.25,0,0,1-2.61-4.74,36.21,36.21,0,0,0-2.6-6.14,12.32,12.32,0,0,1-1.79-5.88,4.76,4.76,0,0,1,.62-2.61l.15-.21c-.45-.86-.85-1.62-1.2-2.25-.66-1.2-1.08-1.92-1.08-1.92l-1-1.72,2,.33.37.07a79.11,79.11,0,0,0-4.93-15c-.41-.93-.66-1.43-.66-1.43l-.89-1.82,2,.5a28.89,28.89,0,0,1,2.8.93,20.12,20.12,0,0,1-1.91-8.64,22.67,22.67,0,0,1,.69-5.5,24.9,24.9,0,0,1,4-8.78l1.17-1.49.47,1.83s.09.38.31,1.08.55,1.69,1,2.86a41.73,41.73,0,0,0,3.91,7.57,22,22,0,0,1,3.53-2.23l2.14-.93-.9,2.15a17.87,17.87,0,0,0-1.13,6.85,60.76,60.76,0,0,0,.86,9c.51-.35,1-.63,1.32-.86l1.77-1.16-.33,2.08a24.76,24.76,0,0,0-.25,3.78,57.52,57.52,0,0,0,1.06,10.46v.12c.17.88.36,1.74.57,2.56a19.44,19.44,0,0,1,2-1.83l1.36-1.05.14,1.72s0,.49.14,1.34.25,2.05.47,3.44a52.3,52.3,0,0,0,2.23,9.14,8.12,8.12,0,0,1,2.58,3.13c.82,1.85,2.19,5.26,3.4,8.34l.09-.11,1.28-1.56.36,2,.08.39c.05.26.15.65.27,1.13a40.13,40.13,0,0,0,1.25,3.92,33.63,33.63,0,0,0,6.24,10.59l.13.14.06.18a18.74,18.74,0,0,1,.84,3.29l.43,1.25a26.3,26.3,0,0,1,6.94,6l.08.1.05.12c1.57,3.57,2.69,6,3,6.71,0,.12.05.12.11.27h0V590a.63.63,0,0,1,0,.28v0a.35.35,0,0,1,0,.08.85.85,0,0,1-.06.18h0v0h0l-.69-.35h-.12v0l.27.78-.1-.28.11.28-.07,0-.28.1c-.24.08-.59.2-1,.31a15.7,15.7,0,0,1-3.78.44c-3,0-10.47-2.44-12.62-4.49m16.73,3.29.67-.5h-.1l-.54.19-.16.07a.82.82,0,0,0,.13.25M491,590a13.62,13.62,0,0,0,3.59-.45l-.43-1c-.52-1.17-1.27-2.84-2.16-4.86a24.41,24.41,0,0,0-6.65-5.69l.47-.81.88-.31-.88.31-.47.81-.3-.18-.11-.33-.57-1.65,0-.08v-.08a17.58,17.58,0,0,0-.7-2.88A37.69,37.69,0,0,1,476,558.16l-.81,1.28-.67-1.71c-1.34-3.4-3.08-7.77-4-9.88a6.38,6.38,0,0,0-2.2-2.55l-.23-.17-.1-.26A60.49,60.49,0,0,1,465.07,532a25.53,25.53,0,0,0-2.09,2.35l-1.65-.75a14.54,14.54,0,0,0,.23-1.61c-.26-1-.49-2-.69-3.09l0-.09h0a59.82,59.82,0,0,1-1.09-10.79c0-.71,0-1.4.06-2-.25.18-.51.38-.8.61l-1.26,1-.25-1.6a71.86,71.86,0,0,1-1.12-10.86,23.69,23.69,0,0,1,.52-5.18c-.57.38-1.21.85-1.9,1.41l-.77.63-.58-.82a43.83,43.83,0,0,1-5.5-11c-.11.18-.22.38-.33.59a24.15,24.15,0,0,0-2.31,5.9,20.69,20.69,0,0,0-.63,5,18.18,18.18,0,0,0,2.64,9.55l.21.34-.11.39-.08.31-.28,1.08-1-.46c-1-.45-1.91-.81-2.64-1.07a79.3,79.3,0,0,1,5.09,16l1.54,2.08-2.27-.58c.67,1.23,1.61,3,2.59,5l-1.44,1.12-.41-.35c0,.11,0,.22,0,.34a10.53,10.53,0,0,0,1.56,5,37.57,37.57,0,0,1,2.72,6.42,10.43,10.43,0,0,0,2.2,4.07,7.52,7.52,0,0,0,2.94,1.91l.3.12.17.27a51.51,51.51,0,0,1,3.75,7.24l.17.14,2.15,1.83-2.82-.19-.8,0c2,2.39,5.81,7.13,8.85,11.24l.91,1.23-1.51.25-.49.08c2.58,2.28,8.13,7.35,11.33,11.66A21.28,21.28,0,0,0,491,590m38.35-2.37a1.13,1.13,0,0,0,0-.16v0a.58.58,0,0,1,0,.18m43.48-103.53,0,0h0l0-.05" transform="translate(-440.15 -413.5)" style="fill-rule:evenodd"/><path d="M502.08,435.48l-23.57,2.62,17.67,15.59-5,23.38L511.67,465l20.47,12.12-5-23.38,17.64-15.59-23.54-2.62-9.61-22-9.58,22" transform="translate(-440.15 -413.5)" style="fill-rule:evenodd"/><path d="M480.37,454.84c-11.33,5.92-23.06,12-32.2,13.06l-1.45.16v1.46c.34,39.71,7.32,69.21,22,92.86,12.32,19.89,25.66,34.93,42,47.36l1,.75,1-.75c16.32-12.42,29.65-27.47,42-47.36,14.65-23.65,21.63-53.16,22-92.86v-1.46l-1.45-.16c-9.14-1-20.86-7.14-32.2-13.06-11.53-6-23.45-12.24-31.28-12.24s-19.76,6.22-31.29,12.24" transform="translate(-440.15 -413.5)" style="fill-rule:evenodd"/><path d="M481.16,457.26C470,463,458.39,469,448.71,470.57c.53,38.52,7.49,67.22,21.91,90.17,12.06,19.2,25.1,33.8,40.89,45.89,15.79-12.09,28.82-26.69,40.89-45.89,14.42-22.95,21.38-51.65,21.91-90.17-9.69-1.6-21.25-7.54-32.45-13.31-11.41-5.87-23.21-11.94-30.34-11.94s-18.93,6.07-30.34,11.94" transform="translate(-440.15 -413.5)" style="fill:#dd052b;fill-rule:evenodd"/><path d="M511.72,451.08c5.8,0,17.28,6,27.42,11.28,9.79,5.11,19.87,10.36,29,12.76-.89,35.31-7.44,61.77-20.56,83-10.7,17.28-22.19,30.63-35.89,41.81-13.7-11.18-25.19-24.53-35.89-41.81-13.13-21.18-19.68-47.64-20.56-83,9.17-2.4,19.25-7.65,29-12.76h0c10.13-5.29,21.61-11.28,27.42-11.28m-27.11,11.87h0c-9.61,5-19.54,10.19-28.66,12.66.93,35,7.27,61.21,20.28,82.22,10.55,17,22,30.06,35.49,41.18,13.53-11.13,24.77-24.26,35.32-41.29,13-21,19.51-47.11,20.44-82.11-9.11-2.47-19-7.64-28.66-12.66-10.06-5.25-21.46-11.2-27.11-11.2s-17,5.95-27.11,11.2" transform="translate(-440.15 -413.5)" style="fill:#ffd000;fill-rule:evenodd"/><path d="M502.06,504v77.47c3.08,3.25,6.26,6.33,9.59,9.27,3.34-2.94,6.52-6,9.6-9.27V504Z" transform="translate(-440.15 -413.5)" style="fill:#1e3582;fill-rule:evenodd"/><path d="M521.26,504V461.5c-4.14-1.85-7.8-3.22-9.6-3.22s-5.46,1.37-9.6,3.21V504Z" transform="translate(-440.15 -413.5)" style="fill:#1e3582;fill-rule:evenodd"/><path d="M482.87,471a177.11,177.11,0,0,1-21.08,9.45A232.12,232.12,0,0,0,464,504h18.88Z" transform="translate(-440.15 -413.5)" style="fill:#1e3582;fill-rule:evenodd"/><path d="M464,504c3,20.15,8.71,36.58,17.53,50.6l1.35,2.11V504Z" transform="translate(-440.15 -413.5)" style="fill:#1e3582;fill-rule:evenodd"/><path d="M540.45,504v52.7l1.35-2.11c8.81-14,14.53-30.44,17.53-50.6Z" transform="translate(-440.15 -413.5)" style="fill:#1e3582;fill-rule:evenodd"/><path d="M559.33,504a232,232,0,0,0,2.2-23.59A176.66,176.66,0,0,1,540.45,471v33Z" transform="translate(-440.15 -413.5)" style="fill:#1e3582;fill-rule:evenodd"/><path d="M482.87,504v52.71a168.6,168.6,0,0,0,19.2,24.76V504Z" transform="translate(-440.15 -413.5)" style="fill:#dd052b;fill-rule:evenodd"/><path d="M502.06,504V461.5c-5.11,2.28-11,5.28-14.91,7.31h0L482.87,471v33Z" transform="translate(-440.15 -413.5)" style="fill:#dd052b;fill-rule:evenodd"/><path d="M521.26,504v77.47a168.64,168.64,0,0,0,19.2-24.77V504Z" transform="translate(-440.15 -413.5)" style="fill:#dd052b;fill-rule:evenodd"/><path d="M540.45,504V471l-4.29-2.2c-4-2-9.8-5-14.91-7.31V504Z" transform="translate(-440.15 -413.5)" style="fill:#dd052b;fill-rule:evenodd"/><path d="M502.54,436.1l-22.46,2.5,16.83,14.85c-.22,1-4.76,22.27-4.76,22.27l19.53-11.55,19.5,11.55-4.74-22.28,16.81-14.85-22.43-2.5-9.15-20.93-9.13,20.93" transform="translate(-440.15 -413.5)" style="fill-rule:evenodd"/><path d="M480.68,455.43c-11.39,5.95-23.17,12.09-32.44,13.14l-.86.09v.86c.34,39.58,7.29,69,21.87,92.52,12.28,19.82,25.57,34.81,41.81,47.18l.58.44.58-.44C528.49,596.85,541.77,581.86,554,562c14.59-23.54,21.53-52.94,21.87-92.52v-.86l-.85-.09c-9.26-1-21-7.19-32.44-13.14s-23.3-12.16-31-12.16-19.52,6.18-31,12.16m1.76,3.38c11.05-5.77,22.48-11.73,29.21-11.73s18.16,6,29.21,11.73c10.7,5.58,21.74,11.32,31.18,13.11-.59,37.65-7.35,65.67-21.25,88.11-11.56,18.67-24,32.91-39.14,44.76-15.12-11.85-27.58-26.09-39.15-44.76-13.9-22.44-20.66-50.46-21.25-88.11,9.45-1.79,20.48-7.53,31.18-13.11" transform="translate(-440.15 -413.5)" style="fill-rule:evenodd"/><path d="M575,469.52c-.32,37.48-6.66,67.72-21.73,92-12.84,20.72-26.36,35.34-41.57,46.92-15.22-11.58-28.74-26.2-41.58-46.92-15.06-24.31-21.41-54.54-21.73-92,9.41-1.06,21.26-7.23,32.77-13.24s23.1-12.06,30.54-12.06,19.18,6.13,30.53,12.06c11.51,6,23.36,12.18,32.77,13.24M482,458h0c-10.95,5.72-22.25,11.61-31.71,13.2.51,38.18,7.32,66.63,21.41,89.37,11.79,19,24.53,33.51,40,45.48,15.43-12,28.17-26.46,40-45.48,14.09-22.74,20.9-51.19,21.41-89.37-9.46-1.59-20.76-7.48-31.72-13.2-11.15-5.82-22.68-11.84-29.65-11.84s-18.5,6-29.66,11.84" transform="translate(-440.15 -413.5)" style="fill:#ffd000;fill-rule:evenodd"/><path d="M486.42,466.42h0c-8.47,4.42-17.24,9-25.72,11.85l-.67.23,0,.71c1.29,32.38,7.56,56.63,19.75,76.3,9.51,15.35,19.44,27.31,31.23,37.61l.62.55.63-.55c11.79-10.3,21.71-22.25,31.22-37.61,12.19-19.67,18.47-43.92,19.75-76.3l0-.71-.68-.23c-8.48-2.85-17.24-7.43-25.72-11.85-10.87-5.67-21-10.76-25.24-10.76s-14.38,5.09-25.24,10.75m1.76,3.38c6.42-3.35,19.78-10.32,23.48-10.32s17.05,7,23.47,10.32c7.52,3.92,16,8.34,24.22,11.33-1.44,30.68-7.51,53.7-19.08,72.37-8.78,14.18-17.89,25.32-28.61,35-10.71-9.7-19.83-20.85-28.61-35-11.57-18.67-17.63-41.69-19.08-72.37,8.21-3,16.7-7.41,24.21-11.33" transform="translate(-440.15 -413.5)" style="fill-rule:evenodd"/><path d="M511.66,456.62c4.4,0,16.68,6.41,24.8,10.65,8.58,4.48,17.38,9.05,25.85,11.91C561,511.31,554.75,535.57,542.7,555c-9.4,15.18-19.41,27.23-31,37.39C500,582.25,490,570.2,480.61,555c-12-19.45-18.33-43.71-19.61-75.84,8.48-2.85,17.27-7.43,25.85-11.91h0c8.12-4.24,20.4-10.65,24.8-10.65M487.74,469h0c-8.12,4.24-16.51,8.6-24.76,11.54,1.39,31.17,7.52,54.56,19.25,73.52,9,14.55,18.41,26,29.43,35.82,11-9.85,20.41-21.27,29.42-35.82,11.74-19,17.86-42.35,19.25-73.52-8.25-2.94-16.64-7.29-24.76-11.53-7-3.65-20-10.43-23.92-10.43s-16.93,6.79-23.92,10.43" transform="translate(-440.15 -413.5)" style="fill:#ffd000;fill-rule:evenodd"/><path d="M453.41,475.64a2.68,2.68,0,1,0,2.67-2.67,2.68,2.68,0,0,0-2.67,2.67" transform="translate(-440.15 -413.5)" style="fill-rule:evenodd"/><path d="M454.08,475.64a2,2,0,1,0,2-2,2,2,0,0,0-2,2" transform="translate(-440.15 -413.5)" style="fill:#ffd000;fill-rule:evenodd"/><path d="M475.58,465.88a2.68,2.68,0,1,0,2.67-2.67,2.68,2.68,0,0,0-2.67,2.67" transform="translate(-440.15 -413.5)" style="fill-rule:evenodd"/><path d="M476.25,465.88a2,2,0,1,0,2-2,2,2,0,0,0-2,2" transform="translate(-440.15 -413.5)" style="fill:#ffd000;fill-rule:evenodd"/><path d="M570,475.64a2.68,2.68,0,1,1-2.67-2.67,2.68,2.68,0,0,1,2.67,2.67" transform="translate(-440.15 -413.5)" style="fill-rule:evenodd"/><path d="M569.29,475.64a2,2,0,1,1-2-2,2,2,0,0,1,2,2" transform="translate(-440.15 -413.5)" style="fill:#ffd000;fill-rule:evenodd"/><path d="M547.79,465.88a2.67,2.67,0,1,1-2.67-2.67,2.68,2.68,0,0,1,2.67,2.67" transform="translate(-440.15 -413.5)" style="fill-rule:evenodd"/><path d="M547.12,465.88a2,2,0,1,1-2-2,2,2,0,0,1,2,2" transform="translate(-440.15 -413.5)" style="fill:#ffd000;fill-rule:evenodd"/><path d="M493.21,539.75a22.2,22.2,0,0,0-3.7,12.26,22.7,22.7,0,0,0,.45,4.47,22.22,22.22,0,1,0,3.25-16.73" transform="translate(-440.15 -413.5)" style="fill:#fff;fill-rule:evenodd"/><path d="M511.57,574.66a22.5,22.5,0,0,1-22-18.1,23,23,0,0,1-.46-4.56,22.71,22.71,0,0,1,22.64-22.67,22.51,22.51,0,0,1,22,18.1,23.22,23.22,0,0,1,.46,4.55,22.68,22.68,0,0,1-22.64,22.67Zm-18-34.68a21.79,21.79,0,0,0-3.63,12,22.18,22.18,0,0,0,.44,4.39A21.67,21.67,0,0,0,529.76,564a21.87,21.87,0,0,0,3.62-12,22.14,22.14,0,0,0-.44-4.39A21.67,21.67,0,0,0,493.56,540l-.35-.23Z" transform="translate(-440.15 -413.5)" style="fill-rule:evenodd"/><path d="M518.06,532a3.79,3.79,0,0,0-1.44-1.27,13.5,13.5,0,0,0-9.93.05,3.75,3.75,0,0,0-1.43,1.28c-.59.9-.94,1.59-.66,1.78s.88-.11,3.17.39,3.36,1.55,3.91,1.57,1.61-1.09,3.9-1.61,2.9-.23,3.17-.43-.09-.87-.69-1.77" transform="translate(-440.15 -413.5)" style="fill-rule:evenodd"/><path d="M494.8,539.87a3.76,3.76,0,0,0-1.67,1,13.49,13.49,0,0,0-3.14,9.42,3.75,3.75,0,0,0,.76,1.77c.67.85,1.2,1.4,1.47,1.2s.19-.87,1.39-2.88,2.55-2.69,2.75-3.2-.51-1.88-.27-4.21.72-2.82.62-3.13-.86-.2-1.9.08" transform="translate(-440.15 -413.5)" style="fill-rule:evenodd"/><path d="M494.92,564.62a3.81,3.81,0,0,0,.42,1.88,13.53,13.53,0,0,0,8,5.82,3.76,3.76,0,0,0,1.92-.19c1-.38,1.69-.72,1.59-1s-.78-.43-2.33-2.19-1.79-3.24-2.23-3.58-1.94-.07-4.1-1-2.47-1.53-2.81-1.53-.45.76-.5,1.83" transform="translate(-440.15 -413.5)" style="fill-rule:evenodd"/><path d="M528.64,539.87a3.76,3.76,0,0,1,1.67,1,13.49,13.49,0,0,1,3.14,9.42,3.75,3.75,0,0,1-.76,1.77c-.67.85-1.2,1.4-1.47,1.2s-.18-.87-1.39-2.88-2.55-2.69-2.75-3.2.51-1.88.27-4.21-.72-2.82-.62-3.13.86-.2,1.9.08" transform="translate(-440.15 -413.5)" style="fill-rule:evenodd"/><path d="M528.52,564.62a3.81,3.81,0,0,1-.42,1.88,13.54,13.54,0,0,1-8,5.82,3.78,3.78,0,0,1-1.92-.19c-1-.38-1.69-.72-1.58-1s.77-.43,2.33-2.19,1.79-3.24,2.23-3.58,1.95-.07,4.1-1,2.48-1.53,2.81-1.53.45.76.49,1.83" transform="translate(-440.15 -413.5)" style="fill-rule:evenodd"/><path d="M496,539.88a22.34,22.34,0,0,1,4.06-4.06,17.89,17.89,0,0,1,5-2.58l.11.57a17.65,17.65,0,0,0-4.74,2.47,21.87,21.87,0,0,0-3.94,3.93h0Z" transform="translate(-440.15 -413.5)" style="fill-rule:evenodd"/><path d="M523.14,536.29a21.89,21.89,0,0,0-4.93-2.59l.19-.55a22.38,22.38,0,0,1,5.09,2.67,17.82,17.82,0,0,1,4,4l-.51.27a17.72,17.72,0,0,0-3.78-3.79" transform="translate(-440.15 -413.5)" style="fill-rule:evenodd"/><path d="M527.65,563.13a17.76,17.76,0,0,0,2.51-4.73,21.65,21.65,0,0,0,1-5.48l.58,0a22.24,22.24,0,0,1-1.05,5.64,17.94,17.94,0,0,1-2.65,4.95Z" transform="translate(-440.15 -413.5)" style="fill-rule:evenodd"/><path d="M511.74,572.35a18,18,0,0,1-5.52-.86l.25-.53a17.88,17.88,0,0,0,5.27.8h0a22.12,22.12,0,0,0,5.52-.85l.1.45,0,.11h0l-.1,0-.36.1c-.31.08-.76.19-1.28.3a20.06,20.06,0,0,1-3.88.43h0" transform="translate(-440.15 -413.5)" style="fill-rule:evenodd"/><path d="M492.63,558.28a19,19,0,0,1-.89-5.29,1.7,1.7,0,0,1,0-.26l.57.09s0,.07,0,.17a18.49,18.49,0,0,0,.86,5.11,21.9,21.9,0,0,0,2.51,5l-.5.3a22.25,22.25,0,0,1-2.56-5.11" transform="translate(-440.15 -413.5)" style="fill-rule:evenodd"/><polygon points="81.25 152.68 81.8 152.29 76.16 144.26 75.38 144.83 81.25 152.68" style="fill-rule:evenodd"/><polygon points="87.59 133.74 87.37 133.11 78.04 136.18 78.36 137.09 87.59 133.74" style="fill-rule:evenodd"/><polygon points="55.65 133.17 55.46 133.81 64.83 136.78 65.08 135.91 55.65 133.17" style="fill-rule:evenodd"/><polygon points="61.58 152.38 62.14 152.77 67.84 144.78 67.04 144.21 61.58 152.38" style="fill-rule:evenodd"/><path d="M507.24,558.3s-.59-.1-1.93-4.12-.87-4.51-.87-4.51-.21-.49,3.34-3.09,4-2.24,4-2.24.42-.36,4,2.24,3.34,3.09,3.34,3.09.52.22-.87,4.51-1.93,4.12-1.93,4.12-.13.57-4.53.58-4.53-.58-4.53-.58" transform="translate(-440.15 -413.5)" style="fill-rule:evenodd"/><path d="M550.83,564.9c.5-.94,1-1.88,1.43-2.83a49.06,49.06,0,0,0,2.08-5.29c1.28-.92,2.93-1,4.79-1.82-1.88.76-3.26.59-4.66,1.43a35.06,35.06,0,0,0,1.46-7.22,36,36,0,0,1-2.64,9.63c-.57-1.27-1.66-2-2.53-3.53.82,1.59,1.92,2.59,2.38,3.88-.4.93-.83,1.85-1.28,2.75A45.25,45.25,0,0,1,544,573.12l.7.52a41.44,41.44,0,0,0,5.95-8.46,8.79,8.79,0,0,0,4.13-.91,9.28,9.28,0,0,1-4,.63" transform="translate(-440.15 -413.5)" style="fill-rule:evenodd"/><path d="M550.9,564.94c.47-.88.94-1.81,1.43-2.84a48,48,0,0,0,2.08-5.3l0,0a8,8,0,0,1,2.55-1.05,16.88,16.88,0,0,0,2.23-.77l-.06-.12a12.6,12.6,0,0,1-2.27.63,7.19,7.19,0,0,0-2.4.8l.11.07a34.9,34.9,0,0,0,1.46-7.23h-.15a36,36,0,0,1-2.63,9.61h.13a7.21,7.21,0,0,0-1.2-1.72,10.57,10.57,0,0,1-1.34-1.82l-.13.06a14.51,14.51,0,0,0,1.21,1.9,8.22,8.22,0,0,1,1.17,2v0c-.38.89-.81,1.82-1.28,2.75a45.17,45.17,0,0,1-7.81,11.2l-.05.05.06,0,.7.52.05,0,0,0a41.44,41.44,0,0,0,6-8.47l-.07,0a8.83,8.83,0,0,0,4.16-.91l-.06-.12a9.24,9.24,0,0,1-3.95.62Zm3.88-.72a8.79,8.79,0,0,1-4.1.9h0l0,0a40.93,40.93,0,0,1-5.94,8.44h.1l-.7-.52v.1a45.4,45.4,0,0,0,7.83-11.24c.47-.94.9-1.86,1.28-2.76v0a8.47,8.47,0,0,0-1.19-2,14.24,14.24,0,0,1-1.2-1.88l-.13.06a11,11,0,0,0,1.35,1.84,7.06,7.06,0,0,1,1.18,1.69l.07.15.07-.15a36.22,36.22,0,0,0,2.64-9.65h-.14a34.91,34.91,0,0,1-1.46,7.21l-.05.18.16-.1a7,7,0,0,1,2.36-.78,12.37,12.37,0,0,0,2.29-.64l-.06-.12a16.94,16.94,0,0,1-2.21.76,8.24,8.24,0,0,0-2.59,1.07h0v0a48.11,48.11,0,0,1-2.08,5.29c-.49,1-1,2-1.42,2.83l-.05.1h.12a9.36,9.36,0,0,0,4-.63Z" transform="translate(-440.15 -413.5)" style="fill-rule:evenodd"/><path d="M567.06,515.38a14,14,0,0,1,5.78-5.27c.65-.7.94-.8.88-1.42-.59-.47-1.24-.11-1.12-.71.43-1.11.67-.7.67-.7s.8,0,2.88-2.44c.5-1.54,0-2.44-.1-3.37a3,3,0,0,1,1.71-2.16c2.25-1.72,2-3.9,1.88-5.6a9.85,9.85,0,0,0-2.75-2.8,3.39,3.39,0,0,0-.28-1.53c-.52-1.2-1.38-.46-1.73-1.93A3.71,3.71,0,0,0,572,485a10.45,10.45,0,0,0-1.89,4.29c-.15,1.23-1.25.44-1.75,1.07-.63.78-.6,1.68-1.07,1.75-2.16.32-3.47,3.09-1.69,5.85.71,1,.53,1.32.31,1.74s-1.14.86-1.11,2.28c.17,2.65,1.75,3.23,2.58,4.36.68.92.91,5.53-1,8.73Z" transform="translate(-440.15 -413.5)" style="fill:#ffd000;fill-rule:evenodd"/><path d="M565.72,515l.24-.41a11.6,11.6,0,0,0,1.47-5.79,5.4,5.4,0,0,0-.41-2.46c-.68-1-2.5-1.74-2.67-4.59a.74.74,0,0,1,0-.09,3.4,3.4,0,0,1,1.16-2.41,1,1,0,0,0,.15-.41,1.71,1.71,0,0,0-.43-.89,5.28,5.28,0,0,1-.9-2.86,3.55,3.55,0,0,1,2.87-3.66h0a1.56,1.56,0,0,0,.15-.32,4.56,4.56,0,0,1,.66-1.25,1.34,1.34,0,0,1,1.05-.45,1.08,1.08,0,0,0,.5-.08s.08-.07.11-.31a8.43,8.43,0,0,1,1-3,14.23,14.23,0,0,1,.89-1.4.48.48,0,0,1,.08-.11.44.44,0,0,1,.31-.13h.08l.14,0,.31.08a4.86,4.86,0,0,1,1,.4,3.65,3.65,0,0,1,1.84,2.29c.19.64.28.61.56.77A1.91,1.91,0,0,1,577,489v0a3.83,3.83,0,0,1,.3,1.48l.16.12c.18.13.43.3.71.53a7.06,7.06,0,0,1,1.82,2.12l.05.09v.1c0,.43.05.92.05,1.43a5.27,5.27,0,0,1-2.11,4.54l0,0-.05,0c-.8.35-1.08.78-1.43,1.81a11.76,11.76,0,0,1,.31,2,4.6,4.6,0,0,1-.24,1.44l0,.08-.06.07a12.15,12.15,0,0,1-2.25,2.17,2.27,2.27,0,0,1-.87.42h0l-.06-.37-.14.11h0l.13.15h0l0,0a1.58,1.58,0,0,0-.19.35,1.94,1.94,0,0,1,.92.37l.16.12v.19c0,.05,0,.1,0,.16a1.27,1.27,0,0,1-.32.86c-.19.22-.4.41-.69.72l0,0,0,0a13.61,13.61,0,0,0-5.63,5.11l-.2.37Zm1.34.18.19-.39Zm5-29.79c-.15.23-.36.54-.57.93a7.72,7.72,0,0,0-1,2.78,1.15,1.15,0,0,1-1.13,1.15c-.44,0-.66,0-.71.15a11.34,11.34,0,0,0-.77,1.53.86.86,0,0,1-.57.38,2.68,2.68,0,0,0-2.16,2.79,4.38,4.38,0,0,0,.75,2.36,2.43,2.43,0,0,1,.59,1.39,1.69,1.69,0,0,1-.24.81c-.41.66-1,.84-1.07,2v0c.17,2.45,1.51,2.84,2.5,4.12a5.77,5.77,0,0,1,.57,3,13,13,0,0,1-1.09,5.28,15.08,15.08,0,0,1,5.35-4.52c.29-.31.51-.5.61-.63s.1-.13.11-.2l-.25-.08a1.62,1.62,0,0,1-.58-.17.68.68,0,0,1-.3-.58.76.76,0,0,1,0-.22v-.06a2.9,2.9,0,0,1,.39-.75.75.75,0,0,1,.57-.31l.19,0a2.22,2.22,0,0,0,.36-.2,10.92,10.92,0,0,0,2.07-2,3.65,3.65,0,0,0,.17-1.09,16.12,16.12,0,0,0-.32-2v-.09l0-.09a3.43,3.43,0,0,1,1.9-2.41,4.37,4.37,0,0,0,1.72-3.81c0-.43,0-.87-.05-1.29a7,7,0,0,0-2.23-2.27,1.37,1.37,0,0,1-.49-.46l0-.09v-.09a2.86,2.86,0,0,0-.25-1.38c-.22-.46-.34-.45-.7-.63a1.75,1.75,0,0,1-1-1.35,3.15,3.15,0,0,0-2.27-2.09l-.09.13m1.61,21.7h0Zm-1.28-22.37a.21.21,0,0,0,0,0v0m-.05-.17a.37.37,0,0,0-.12-.14l0,0,0,0h0l0,0h0l0,.05v0m-.18-.18h0Zm.13.1,0,.05,0-.05m-.07-.06h0" transform="translate(-440.15 -413.5)" style="fill-rule:evenodd"/><path d="M575.24,492.79l-.06-.05s-1.66,1.67-2.42,2.6c.22-3.79.12-6.54.12-6.55h-.08s0,3.57-.55,8.14c0,.42-.09.85-.15,1.28a14.1,14.1,0,0,0-3.2-3l0,0a12.77,12.77,0,0,1,3.16,3.51q-.13,1-.28,2a3,3,0,0,1,.52-.08c.22-1.69.37-3.32.47-4.81.66-1,2.51-3.06,2.51-3.06" transform="translate(-440.15 -413.5)" style="fill-rule:evenodd"/><path d="M570,526a10.87,10.87,0,0,0-1.28-7.16c-.11-.22-.2-.41-.27-.55l0,.08c0-.21-.08-.38-.12-.53-.11-.5-.12-.55.05-.77l-.28.16a1.19,1.19,0,0,1,.58.1.75.75,0,0,0,1.09-.39v-.07c.11-.5.16-1.06-.18-1.32a.59.59,0,0,0-.61-.05l.41,0,.2.35v-.46l-.47.05a.41.41,0,0,1,.3.08s-.53-.5-1.06-3.16v.15a4,4,0,0,1,1.15-2.05,6.82,6.82,0,0,0,.53-.63l0-.07,0-.08v0c.25-1.15.49-2.23-.34-3.11l.06.09a5.21,5.21,0,0,1,.17-4.51c.46-1.08,2.31-1.52,3-1.74a2.09,2.09,0,0,0,.77-.37,14.61,14.61,0,0,0,.8-1.34,1,1,0,0,1,.8-.36,1.79,1.79,0,0,0,1.52-1,3.47,3.47,0,0,1,2.89-1.41s0,0,0,0a9.23,9.23,0,0,1,.19,4.36c-.28,1,1,1.28,1.2,1.67.08.18-.54,2-.36,2.26s2.26.2,2.06,1.34-.6,2.51-3.42,4.39a5.61,5.61,0,0,0-1.92,2.27l-.13,1.73s1,.53.78.9a23,23,0,0,1-2.85,2.86l.06,0c-.15.09-.92.58-1.09,1.12a.52.52,0,0,0,.08.51c.19.24-2.12.55-1.85.53a1.33,1.33,0,0,1,.41,0l0,0-.06-.28c-.08.51,2.47.24,1.9,1l-.09.11,0-.05a5.23,5.23,0,0,1-1,.63A6,6,0,0,0,570,526l.48-.35-.81-.13Z" transform="translate(-440.15 -413.5)" style="fill:#ffd000;fill-rule:evenodd"/><path d="M569.88,526.57l-.46.34.12-.82-.81-1.12,1,.15a9.2,9.2,0,0,0,.05-.93,11.28,11.28,0,0,0-1.41-5.16c-.1-.2-.19-.39-.26-.54h0l0-.08h0c0-.18-.07-.33-.11-.47a3.35,3.35,0,0,1-.09-.56.83.83,0,0,1,.11-.39l0-.12.28-.16.08.1a1.78,1.78,0,0,1,.57.13.94.94,0,0,0,.3.07c.11,0,.14,0,.26-.22h0c0-.13,0-.25.06-.36l-.2-.35-.08-.15-1.74-.08,1.32-.67a12.88,12.88,0,0,1-.76-2.63h0v-.15h0a4.44,4.44,0,0,1,1.23-2.17,6.41,6.41,0,0,0,.5-.59v0a7.33,7.33,0,0,0,.23-1.49,1.72,1.72,0,0,0-.42-1.21h0l-.06-.09h0a2.46,2.46,0,0,1-.32-1.54l.2-.4a11.22,11.22,0,0,1,.3-2.88c.65-1.37,2.59-1.73,3.21-2a1.81,1.81,0,0,0,.63-.29h0l0,0,.08-.11.2-.36a8.3,8.3,0,0,1,.43-.77,1.35,1.35,0,0,1,1.09-.53c.42-.07.69,0,1.21-.79a3.86,3.86,0,0,1,3.19-1.59h.06a.44.44,0,0,1,.37.22.57.57,0,0,1,.05.13,12,12,0,0,1,.38,2.84,7.14,7.14,0,0,1-.2,1.73.67.67,0,0,0,0,.17c0,.2.12.34.39.53s.58.27.82.7a.55.55,0,0,1,0,.22,6.17,6.17,0,0,1-.21,1c-.08.32-.16.67-.18.88l.44.1a3.09,3.09,0,0,1,1.2.48,1.12,1.12,0,0,1,.46.9,1.16,1.16,0,0,1,0,.22c-.19,1.2-.71,2.77-3.62,4.67a5.13,5.13,0,0,0-1.72,2l-.11,1.4.22.16a1.19,1.19,0,0,1,.56.86.68.68,0,0,1-.07.28,7.76,7.76,0,0,1-1.18,1.34c-.55.54-1.2,1.15-1.73,1.62h0l-.06,0h0c-.19.11-.82.59-.88.87a.38.38,0,0,0,0,.07.07.07,0,0,0,0,.05.47.47,0,0,1,.11.29.55.55,0,0,1-.14.34,1.44,1.44,0,0,1,.35.18.62.62,0,0,1,.24.48.73.73,0,0,1-.17.45l-.07.08h0l0,.05h0a5.91,5.91,0,0,1-1.09.66,5.73,5.73,0,0,0-3.37,3.64l1,.15-1.14.82-.15.81Zm-.81-7.92a12.69,12.69,0,0,1,1.46,4.64,7.55,7.55,0,0,1,3-2.42,7.67,7.67,0,0,0,.76-.43l-.29-.05a6.8,6.8,0,0,1-1-.19l-.15,0v0h-.32a.32.32,0,0,1-.16,0,.43.43,0,0,1-.26-.38c0-.31.18-.32.2-.35l.07,0h.13l.17,0,.53-.1a6.67,6.67,0,0,0,.66-.15,1,1,0,0,1,0-.15,1.08,1.08,0,0,1,.05-.31,2.87,2.87,0,0,1,1.19-1.3c.52-.46,1.16-1.06,1.7-1.59s.84-.88,1-1h0a1.38,1.38,0,0,0-.21-.19,3,3,0,0,0-.35-.23l-.23-.13.15-2.06,0-.07a5.9,5.9,0,0,1,2.07-2.44c2.76-1.87,3-3,3.24-4.1a.55.55,0,0,0,0-.09c0-.14-.07-.23-.36-.37a5.24,5.24,0,0,0-1-.27c-.22-.08-.36,0-.63-.29a.68.68,0,0,1-.13-.43,6.12,6.12,0,0,1,.22-1.19c.07-.3.15-.61.18-.76l-.07-.05-.42-.28a1.49,1.49,0,0,1-.74-1.21,1.3,1.3,0,0,1,.05-.38,6.63,6.63,0,0,0,.17-1.53,10.68,10.68,0,0,0-.29-2.35,2.91,2.91,0,0,0-2.24,1.21,2.22,2.22,0,0,1-1.82,1.16c-.32,0-.39,0-.5.19s-.23.4-.38.68a2.87,2.87,0,0,1-.49.74,2.51,2.51,0,0,1-.91.45c-.7.2-2.44.73-2.72,1.51a13.42,13.42,0,0,0-.32,3l-.28-.58a3.64,3.64,0,0,0,.37,1.64,2.56,2.56,0,0,1,.6,1.72,7.81,7.81,0,0,1-.24,1.66v0l0,.16,0,.07-.05.07a7.07,7.07,0,0,1-.55.67,3.63,3.63,0,0,0-1,1.7,10.52,10.52,0,0,0,.76,2.53l.44,0v.42a1.28,1.28,0,0,1,.27.85,3.51,3.51,0,0,1-.09.74V517l0,0a1.41,1.41,0,0,1-.13.27v.07l0,0a1.06,1.06,0,0,1-.88.45,1.62,1.62,0,0,1-.38-.05c0,.12.06.25.09.41l.22.46m5.07.43h0l-4.94-3.22Z" transform="translate(-440.15 -413.5)" style="fill-rule:evenodd"/><path d="M566.17,534.64c1.63-3.4,4.53-4.82,5.49-5.53.62-.73.9-.84.83-1.46-.61-.46-1.23-.08-1.14-.69.38-1.14.64-.73.64-.73s.77,0,2.73-2.56c.46-1.57-.12-2.47-.28-3.4.28-1.13.44-2.1,1.38-2.54,2.13-1.81,1.8-3.59,1.67-5.28a12,12,0,0,0-2.79-2.82,3.85,3.85,0,0,0-.36-1.52c-.58-1.19-1.38-.42-1.82-1.88a3.92,3.92,0,0,0-3-2.39,10.72,10.72,0,0,0-1.62,4.31c-.07,1.23-1.27.28-1.67,1.11-.09,1.32-.39,1.2-.39,1.2s-2.11-.49-2.48.26a9.3,9.3,0,0,0,1.74,6.24,3.39,3.39,0,0,1,.74,2.45c-.11.3-1.85.23-2,1.61a16.41,16.41,0,0,0,1.49,4.08s1.94,5.87.17,9.21Z" transform="translate(-440.15 -413.5)" style="fill:#ffd000;fill-rule:evenodd"/><path d="M564.86,534.47l.2-.38a7.38,7.38,0,0,0,.7-3.44,19.79,19.79,0,0,0-.87-5.37v0l-.1-.17c-.07-.14-.18-.36-.31-.68a33.67,33.67,0,0,1-1.1-3.29l0-.08v-.08a1.83,1.83,0,0,1,1.08-1.46,6.7,6.7,0,0,1,1-.34v-.06a3.41,3.41,0,0,0-.7-1.92,10.85,10.85,0,0,1-1.89-5.79,2.2,2.2,0,0,1,.12-.87,1.61,1.61,0,0,1,1.52-.65,6.66,6.66,0,0,1,1.2.12,4,4,0,0,0,.11-.77v-.08l0-.07a1.14,1.14,0,0,1,1-.62,1.62,1.62,0,0,0,.53-.05s.05,0,.07-.28a8.91,8.91,0,0,1,.87-3,14.24,14.24,0,0,1,.77-1.42.48.48,0,0,1,.09-.13.42.42,0,0,1,.3-.12h.05l.14,0,.32.08a4.89,4.89,0,0,1,1,.38,3.81,3.81,0,0,1,2,2.21c.23.64.34.63.63.78a1.91,1.91,0,0,1,1.17,1v0a4.08,4.08,0,0,1,.37,1.48l.19.15c.18.13.42.31.7.54a8.53,8.53,0,0,1,1.86,2.09l.05.09v.1c0,.51.1,1.05.1,1.62a4.88,4.88,0,0,1-1.91,4l0,0,0,0a1.43,1.43,0,0,0-.73.8,8.77,8.77,0,0,0-.4,1.38,9.55,9.55,0,0,1,.44,2.24,4.46,4.46,0,0,1-.19,1.26l0,.08,0,.07c-1.71,2.2-2.55,2.6-2.9,2.7l-.29.17h0l-.07.18a2,2,0,0,1,1,.35l.14.11,0,.18a2.19,2.19,0,0,1,0,.23,1.28,1.28,0,0,1-.3.83c-.17.22-.37.41-.64.72l0,0,0,0c-1,.76-3.79,2.11-5.37,5.38l-.18.37Zm1.31.16.18-.38Zm-.5-9.66,0,.1.11.36c.09.31.2.75.32,1.28a18.74,18.74,0,0,1,.47,3.93A8.81,8.81,0,0,1,566,534a14.47,14.47,0,0,1,5.36-5.23c.27-.31.48-.52.58-.65a.45.45,0,0,0,.12-.26,1.24,1.24,0,0,0-.28-.08,1.55,1.55,0,0,1-.59-.17.66.66,0,0,1-.28-.57,1.07,1.07,0,0,1,0-.18v-.06a2.8,2.8,0,0,1,.36-.77.71.71,0,0,1,.55-.32l.18,0a2.81,2.81,0,0,0,.33-.21,11.28,11.28,0,0,0,2-2.09,3.76,3.76,0,0,0,.14-1,11.35,11.35,0,0,0-.45-2.19v-.08l0-.08a9.78,9.78,0,0,1,.47-1.6,2.27,2.27,0,0,1,1.09-1.19,4,4,0,0,0,1.58-3.34c0-.48-.05-1-.09-1.46a8.46,8.46,0,0,0-2.29-2.32,1.62,1.62,0,0,1-.46-.43l0-.08v-.09a3.34,3.34,0,0,0-.32-1.39c-.25-.47-.38-.46-.74-.62a1.78,1.78,0,0,1-1.09-1.29,3.38,3.38,0,0,0-2.45-2.06l-.08.13c-.14.23-.31.55-.5.94a8.68,8.68,0,0,0-.93,2.87,5.35,5.35,0,0,1-.46,1.5l-.21-.52c-.36.07-.65,0-.78.08s-.09,0-.12.08a3.29,3.29,0,0,1-.22,1.07.65.65,0,0,1-.56.42h-.12l-.39-.07a5.22,5.22,0,0,0-.84-.07,2,2,0,0,0-.58.07.37.37,0,0,0-.19.11,0,0,0,0,1,0,0l0,.11a3.39,3.39,0,0,0,0,.38,10,10,0,0,0,1.73,5.3,4.2,4.2,0,0,1,.86,2.4,1.41,1.41,0,0,1-.06.44.63.63,0,0,1-.31.33l-.29.11c-.19.06-.41.12-.62.2-.39.18-.67.36-.76.8a20,20,0,0,0,1.38,3.83h0a.28.28,0,0,1,.07.13h0v0m-.77.3v0m0,0v0h0a.12.12,0,0,1,0,0,.15.15,0,0,0,0,.06m5-21.44a.33.33,0,0,0,0-.13.41.41,0,0,1,0,.13m-.12-.3h0a.29.29,0,0,0-.09-.07h0l.06,0h0m-.17-.1h0m.1,0,.06,0-.06,0" transform="translate(-440.15 -413.5)" style="fill-rule:evenodd"/><path d="M566.41,543.54c1.25-3.62-2.39-6.48-2.71-7.6,0-.93-.18-1.17.28-1.59.77,0,1,.67,1.33.16.42-1.1-.06-.94-.05-.94s-.59-.5-.7-3.55a6.49,6.49,0,0,1,2.14-2.55c.38-1.07.79-1.94.2-2.77-.94-2.54.25-3.8,1.14-5.19a13.75,13.75,0,0,1,3.77-1.23,4.12,4.12,0,0,1,1-1.21c1-.84,1.44.2,2.46-1a4,4,0,0,1,3.79-1.08,10.5,10.5,0,0,1-.44,4.89c-.52,1.23.94,1.13,1,1.83a4.56,4.56,0,0,1-.61,1.78s1.65,1,1.45,1.94c-.15.49-.75,2.69-4,4.18a4.76,4.76,0,0,0-2,1.82c-.05.12,1,.84.3,1.91s-8.31,10.19-8.31,10.19" transform="translate(-440.15 -413.5)" style="fill:#ffd000;fill-rule:evenodd"/><path d="M566,543.41a4.23,4.23,0,0,0,.24-1.4,6.4,6.4,0,0,0-1.31-3.52,14.88,14.88,0,0,1-1.65-2.43V536c0-.37,0-.63,0-.89a1.27,1.27,0,0,1,.46-1l.12-.11H564a2,2,0,0,1,1,.31,2.28,2.28,0,0,0,.09-.31l-.08-.06h0l-.05-.05a.85.85,0,0,1-.11-.15,2.79,2.79,0,0,1-.26-.59,11.91,11.91,0,0,1-.4-3v-.09l0-.08a6.42,6.42,0,0,1,2.17-2.63,5.22,5.22,0,0,0,.44-1.61,1.13,1.13,0,0,0-.22-.69l0,0,0-.05a5.39,5.39,0,0,1-.37-1.89,6.54,6.54,0,0,1,1.55-3.67l.05-.09.09-.05a9.29,9.29,0,0,1,2.46-1c.57-.13,1.06-.2,1.24-.25a4.52,4.52,0,0,1,1-1.17h0a1.82,1.82,0,0,1,1.25-.47h.32c.27,0,.4,0,.84-.47a4.1,4.1,0,0,1,3.14-1.32,4.15,4.15,0,0,1,1.08.12s0,0,.07,0h0l.24.65,0,.23c0,.31.06.73.06,1.21a8.79,8.79,0,0,1-.59,3.33.78.78,0,0,0-.08.31c0,.12,0,.15.17.27a5.53,5.53,0,0,1,.59.43.92.92,0,0,1,.3.66v0a4.16,4.16,0,0,1-.49,1.62,5.82,5.82,0,0,1,.47.39,2.24,2.24,0,0,1,.87,1.52,1.19,1.19,0,0,1,0,.23v0a7.08,7.08,0,0,1-4.21,4.44,4.33,4.33,0,0,0-1.69,1.43l.12.16a1.62,1.62,0,0,1,0,2c-.78,1.13-8.32,10.2-8.33,10.21Zm.79.27-.39-.13ZM565.63,538a7.14,7.14,0,0,1,1.46,4v.07l2.88-3.49c2-2.4,4.07-5,4.41-5.47a.88.88,0,0,0,.18-.51c0-.34-.28-.62-.46-.87a.47.47,0,0,1-.1-.28.44.44,0,0,1,0-.19,1.82,1.82,0,0,1,.21-.32,5.57,5.57,0,0,1,.45-.55,4.63,4.63,0,0,1,1.57-1.14c3-1.43,3.57-3.4,3.74-3.91a.29.29,0,0,0,0-.05c0-.2-.26-.61-.6-.91a5,5,0,0,0-.67-.51l-.34-.21.2-.35a6,6,0,0,0,.28-.57,2.76,2.76,0,0,0,.27-1h0s0,0,0-.07a2.43,2.43,0,0,0-.31-.22,1.29,1.29,0,0,1-.71-1.08,1.61,1.61,0,0,1,.15-.63,8,8,0,0,0,.53-3c0-.45,0-.84-.05-1.13,0-.09,0-.17,0-.24a3.92,3.92,0,0,0-.57,0,3.3,3.3,0,0,0-2.52,1,1.81,1.81,0,0,1-1.47.76h-.32a1,1,0,0,0-.71.27,3.7,3.7,0,0,0-.94,1.12l0,.08-.07.05a1.62,1.62,0,0,1-.6.18c-.23,0-.51.09-.84.17a8.33,8.33,0,0,0-2.27.85A5.61,5.61,0,0,0,567,523a4.55,4.55,0,0,0,.3,1.55,2,2,0,0,1,.34,1.12,6.19,6.19,0,0,1-.53,2l0,.08-.06.07c-.73.74-1.51,1.08-2,2.33a8.1,8.1,0,0,0,.5,3.08.52.52,0,0,1,.24.15.7.7,0,0,1,.18.5,2.6,2.6,0,0,1-.2.85l0,0,0,0a.74.74,0,0,1-.62.39,1.32,1.32,0,0,1-.61-.22,1.14,1.14,0,0,0-.3-.12c-.07.08-.06.11-.07.28s0,.43,0,.81.83,1.15,1.52,2.14m-.21-4.07-.11-.27v0h0Zm.26-.38h0Zm5.93-15.65,7.64-3.29Z" transform="translate(-440.15 -413.5)" style="fill-rule:evenodd"/><path d="M558,554.63c2.25-3,5.34-3.94,6.43-4.48.75-.6,1.05-.66,1.09-1.29-.52-.56-1.19-.29-1-.88.56-1.07.75-.62.75-.62s.76.11,3.18-2c.7-1.48.31-2.46.33-3.4.5-1.06.8-2,1.81-2.27,2.44-1.41,2.42-3.23,2.58-4.93a11.38,11.38,0,0,0-2.24-3.24,3.85,3.85,0,0,0-.1-1.56c-.36-1.27-1.3-.65-1.47-2.15a3.85,3.85,0,0,0-2.58-2.86s-2.76,1.8-3.47,2.43a4.47,4.47,0,0,0-1,1.4s-2.42,1.11-3,2.2-.59,3.06.83,6.11a1.64,1.64,0,0,1-.36,2.25c-.63.7-1.22.18-1.62,1.51.3,3.33.7,4.27.73,4.26a2.16,2.16,0,0,1,.13,1.22c-.17.39-.64-.64-1.13-.5-.32.52-.31.69-.38,1.69.15,1.31,2.2,3.7-.17,6.66Z" transform="translate(-440.15 -413.5)" style="fill:#ffd000;fill-rule:evenodd"/><path d="M556.78,554.23l.27-.34a4.24,4.24,0,0,0,1-2.71c0-1.45-.82-2.62-1-3.65v-.07a3.22,3.22,0,0,1,.43-1.89l.08-.12.14-.05a.82.82,0,0,1,.23,0,1,1,0,0,1,.63.25,3.38,3.38,0,0,0-.1-.34h0l0-.07a1.7,1.7,0,0,1-.07-.19c-.05-.16-.12-.39-.19-.73a29.27,29.27,0,0,1-.47-3.43v-.08l0-.08a1.75,1.75,0,0,1,1-1.25c.36-.15.52-.16.76-.42.39-.45.55-.7.55-1a1.83,1.83,0,0,0-.26-.81,11,11,0,0,1-1.22-4.56,4.26,4.26,0,0,1,.4-1.9,5.06,5.06,0,0,1,1.84-1.68c.51-.31,1-.54,1.19-.65a4.89,4.89,0,0,1,1.07-1.4c.38-.34,1.18-.88,1.93-1.39s1.36-.9,1.5-1h0a.42.42,0,0,1,.3-.12h0a.24.24,0,0,1,.13,0h0l.09,0,.3.12a5.21,5.21,0,0,1,.89.53,3.71,3.71,0,0,1,1.55,2.51c.11.66.22.67.47.86a1.92,1.92,0,0,1,1,1.22v0a6.06,6.06,0,0,1,.14,1c0,.14,0,.28,0,.49l.16.18c.15.16.36.38.6.65a8.23,8.23,0,0,1,1.44,2.37l0,.09v.1c-.13,1.64-.16,3.77-2.78,5.25l-.05,0h-.05a1.4,1.4,0,0,0-.85.66,11,11,0,0,0-.65,1.3c0,.41.08.88.09,1.46a4.63,4.63,0,0,1-.46,2l0,.08-.06.05c-2.17,1.94-3.08,2.13-3.4,2.15h-.05v-.33l-.14,0h0l.09.18,0,0a1.74,1.74,0,0,0-.25.36h0a1.9,1.9,0,0,1,.86.51l.12.13v.18a1.32,1.32,0,0,1-.41.92c-.23.22-.48.37-.84.66l0,0,0,0c-1.16.56-4.11,1.42-6.28,4.35l-.25.33Zm1.24.4.24-.34Zm.9-3.44a4.84,4.84,0,0,1-.85,2.71,14.91,14.91,0,0,1,6.17-4.09c.37-.29.63-.46.74-.58a.43.43,0,0,0,.13-.2c-.2-.13-.41-.14-.74-.33a.64.64,0,0,1-.27-.53.83.83,0,0,1,.06-.31v-.06c.34-.59.53-.88,1-.93a.68.68,0,0,1,.26.07,2.74,2.74,0,0,0,.47-.2,12,12,0,0,0,2.24-1.66,3.68,3.68,0,0,0,.35-1.6c0-.49-.08-1-.08-1.47v-.19l0-.07a13,13,0,0,1,.74-1.48,2.27,2.27,0,0,1,1.27-1c2.19-1.3,2.16-2.78,2.32-4.48a8.08,8.08,0,0,0-1.83-2.66,1.62,1.62,0,0,1-.38-.5l0-.09v-.09c0-.29,0-.45,0-.56a5.67,5.67,0,0,0-.12-.86c-.17-.5-.3-.52-.63-.74a1.76,1.76,0,0,1-.85-1.46,3.33,3.33,0,0,0-2.1-2.44l-.28.2-1,.68c-.77.52-1.65,1.12-1.95,1.39a3.89,3.89,0,0,0-.71.84,3.31,3.31,0,0,0-.23.41l-.06.15-.15.07a12.9,12.9,0,0,0-1.23.66,4.46,4.46,0,0,0-1.54,1.34,3.45,3.45,0,0,0-.31,1.54,10.25,10.25,0,0,0,1.13,4.2,2.55,2.55,0,0,1,.34,1.17,2.32,2.32,0,0,1-.76,1.54,2.4,2.4,0,0,1-1,.62c-.18.09-.29.12-.47.66a18,18,0,0,0,.65,4h0v.09l0,.08c0,.06,0,.15.07.24a2.87,2.87,0,0,1,.11.71,1.21,1.21,0,0,1-.09.48.55.55,0,0,1-.49.34.85.85,0,0,1-.57-.3l-.25-.22a3.17,3.17,0,0,0-.17,1.22c.08.66,1,2,1,3.7m0-5.69h0m.14,0,.08,0-.08,0m.23-.16a.32.32,0,0,0,0-.08l0,.08m-.34-.66Z" transform="translate(-440.15 -413.5)" style="fill-rule:evenodd"/><path d="M540.87,579.31a11.18,11.18,0,0,0,1.83-7.42c.23-.9.14-1.18.69-1.47.74.22.8.92,1.24.51.71-1,.21-.92.21-.92s-.4-.62.3-3.59a6.69,6.69,0,0,1,2.75-1.9c.66-.92,1.27-1.67.92-2.62a5.42,5.42,0,0,1,2.25-4.9c.74-.38,3.87,0,4.18-.08a4.07,4.07,0,0,1,1.28-.93c1.23-.56,1.35.54,2.65-.34a8.69,8.69,0,0,1,4.48-1.2s-.78,3.79-2.24,5.71c-.81,1.07,1,1.35.45,2a2.46,2.46,0,0,0-.6,1.26s1.14,1.29.83,2.19c-1,1.76-4.67,3.27-6.13,3.67-2.24.62-.55,2.77-1.8,3.72a11.22,11.22,0,0,1-4.38,1.58c-1.38.19-6.15,1.94-8.24,5.15Z" transform="translate(-440.15 -413.5)" style="fill:#ffd000;fill-rule:evenodd"/><path d="M540.64,579.65l.23-.34.34.24-.34-.24-.23.34-.36-.24.25-.35a9.65,9.65,0,0,0,1.77-5.84c0-.5,0-.92,0-1.25,0,0,0-.07,0-.11v-.08c.11-.43.14-.7.24-1a1.28,1.28,0,0,1,.67-.74l.15-.08.16,0a2,2,0,0,1,.86.56,1.86,1.86,0,0,0,.17-.28h0l0,0,0,0,0-.07a1.22,1.22,0,0,1-.06-.19,3.07,3.07,0,0,1-.07-.73,13.25,13.25,0,0,1,.42-2.89l0-.08.05-.07a6.58,6.58,0,0,1,2.8-2,3.47,3.47,0,0,0,.89-1.76,1.13,1.13,0,0,0-.08-.4l0-.05v-.05c0-.16,0-.32,0-.47a5.75,5.75,0,0,1,2.49-4.82,3.74,3.74,0,0,1,1.52-.21c1,0,2.15.11,2.61.1h0a4.41,4.41,0,0,1,1.26-.89h0a2,2,0,0,1,.85-.2c.54,0,.82.2,1,.19a1.27,1.27,0,0,0,.71-.28,8.89,8.89,0,0,1,4.63-1.27h.13l.12,0h0l.5.24-.34.32v.05l-.11.47c-.1.39-.24.93-.43,1.54a12.68,12.68,0,0,1-1.73,3.69.46.46,0,0,0-.13.27c0,.06.07.19.26.38a1.27,1.27,0,0,1,.51.86.8.8,0,0,1-.2.52,2.35,2.35,0,0,0-.47.88l0,0a5.46,5.46,0,0,1,.33.47,2.94,2.94,0,0,1,.5,1.46,1.41,1.41,0,0,1-.08.47v0l0,0c-1.17,2-4.85,3.41-6.38,3.87a1.15,1.15,0,0,0-.83.56,2.08,2.08,0,0,0-.14.93v.3a2.13,2.13,0,0,1-.7,1.85,11.49,11.49,0,0,1-4.57,1.66c-1.24.15-6,1.93-7.95,5l-.23.35Zm2.47-7.68c0,.28,0,.72,0,1.25a10.6,10.6,0,0,1-1.57,5.8,15.16,15.16,0,0,1,8.16-4.83,10.88,10.88,0,0,0,4.18-1.5c.32-.24.37-.61.37-1.19v-.3a2.82,2.82,0,0,1,.23-1.31,2,2,0,0,1,1.35-1c1.38-.35,5-1.92,5.85-3.43a.67.67,0,0,0,0-.18,3.31,3.31,0,0,0-.8-1.59l0-.06a.35.35,0,0,1,0-.2v0h0a2.83,2.83,0,0,1,.69-1.48h0v0l-.23-.24a1.4,1.4,0,0,1-.51-1,1.28,1.28,0,0,1,.3-.78,15.63,15.63,0,0,0,2-5A7.79,7.79,0,0,0,559.4,556a2.09,2.09,0,0,1-1.17.43c-.52,0-.78-.2-1-.19a1.29,1.29,0,0,0-.49.12,3.65,3.65,0,0,0-1.19.86l-.07.07-.09,0a1.33,1.33,0,0,1-.35,0c-.54,0-1.68-.11-2.61-.11a3.54,3.54,0,0,0-1.15.12,5,5,0,0,0-2,4.09c0,.11,0,.23,0,.35a1.85,1.85,0,0,1,.11.63,4.26,4.26,0,0,1-1.1,2.31l-.05.07-.07,0a6.57,6.57,0,0,0-2.58,1.73,12,12,0,0,0-.38,2.62,2.51,2.51,0,0,0,0,.47.58.58,0,0,1,.25.49,1.83,1.83,0,0,1-.46,1l0,0,0,0a.79.79,0,0,1-.53.24,1,1,0,0,1-.66-.37,1.37,1.37,0,0,0-.29-.22.35.35,0,0,0-.12.18c-.05.14-.09.44-.2.88Z" transform="translate(-440.15 -413.5)" style="fill-rule:evenodd"/><path d="M536.71,585.52c2.86-2.48,2.84,0,4-.27.86-.45,1.17-.45,1.34-1.06-.39-.65-1.11-.52-.8-1.05.79-.93.87-.46.87-.46s.73.26,3.53-1.41a6.28,6.28,0,0,0,1-3.29c.67-1,1.41.18,2.71-.23a3.86,3.86,0,0,0,2.77-4.63c-.39-1.54-2.36-1.8-2-3.46.26-1.38.93-1.51,1.35-2.7s-1.29-2-1.19-3.48A3.32,3.32,0,0,0,549,559.8s-3.47,1.14-4.12,4c-.5,1.12-1.23.17-2,.33s-.88,1.86-1.42,2-2.09,0-2.36,1.1.18,2.32.35,3.88-2.28,1.24-1.9,3.39c.28,1.58,1,9.17-2,11.54Z" transform="translate(-440.15 -413.5)" style="fill:#ffd000;fill-rule:evenodd"/><path d="M535.35,585.74c1.63-1.25,2.13-4.61,2.12-7.36a24.23,24.23,0,0,0-.27-3.79,3.1,3.1,0,0,1,0-.5,2,2,0,0,1,.77-1.59c.39-.33.8-.55,1-.77a.62.62,0,0,0,.19-.46.91.91,0,0,0,0-.1c-.13-1.17-.44-2.21-.44-3.2a3.32,3.32,0,0,1,.1-.83,1.71,1.71,0,0,1,1.38-1.18c.52-.13,1.07-.15,1.25-.2h0a.64.64,0,0,0,.1-.15,6.6,6.6,0,0,0,.26-.62c.2-.46.41-1.08,1.09-1.26a1.23,1.23,0,0,1,.27,0,11,11,0,0,1,1.16.24c.09,0,.11,0,.28-.28.7-2.9,3.84-4.05,4.27-4.25l.09,0,.14,0h.19l0,0h0l.06,0,.08.06.38.31a4,4,0,0,1,1,2.69,5.2,5.2,0,0,1-.09,1,.45.45,0,0,0,0,.07,2.49,2.49,0,0,0,.56,1.37,3,3,0,0,1,.7,1.61,1.6,1.6,0,0,1-.09.51,5,5,0,0,1-.79,1.39,2.81,2.81,0,0,0-.55,1.25,1.36,1.36,0,0,0,0,.26c0,.48.29.79.77,1.23a3.66,3.66,0,0,1,1.3,1.79,4.25,4.25,0,0,1,.12,1,4.36,4.36,0,0,1-3.17,4.12,2.48,2.48,0,0,1-.72.11,12.38,12.38,0,0,1-1.44-.26c-.11,0-.15,0-.28.17a6.23,6.23,0,0,1-1.08,3.36l-.05.07-.07,0c-2.18,1.29-3.16,1.47-3.6,1.47h-.22l.08-.38-.15.13h0l.05.12-.07,0a1.91,1.91,0,0,0-.3.29l0,0a1.9,1.9,0,0,1,.7.65l.09.15-.05.18a1.31,1.31,0,0,1-.58.83c-.27.17-.55.27-1,.49l0,0h-.05a1.14,1.14,0,0,1-.3,0,1.65,1.65,0,0,1-1.07-.53,1,1,0,0,0-.69-.33c-.3,0-.86.19-1.8,1l0,0-1.16.62Zm4.67-1.27c.27.24.43.34.54.33h.06c.42-.22.7-.33.84-.42a.43.43,0,0,0,.17-.18c-.15-.15-.34-.22-.59-.41a.65.65,0,0,1-.23-.49.82.82,0,0,1,.14-.44v0l0,0c.42-.48.65-.69,1-.73a.58.58,0,0,1,.36.13,8.45,8.45,0,0,0,3-1.31c.85-1.19.69-2,.9-3.06l0-.08,0-.07a1.19,1.19,0,0,1,1-.58c.58,0,1,.27,1.44.26a1.53,1.53,0,0,0,.45-.07A3.51,3.51,0,0,0,551.9,574a3.36,3.36,0,0,0-.1-.81,2.9,2.9,0,0,0-1.05-1.38,2.47,2.47,0,0,1-1-1.84,2.13,2.13,0,0,1,0-.42,3.69,3.69,0,0,1,.68-1.58,4,4,0,0,0,.68-1.17.68.68,0,0,0,0-.24,2.35,2.35,0,0,0-.56-1.15,3.22,3.22,0,0,1-.7-1.83,1.24,1.24,0,0,1,0-.16v0a4.55,4.55,0,0,0,.09-.87,2.82,2.82,0,0,0-1-2.27l-.33.15a9.08,9.08,0,0,0-1.21.67,4.82,4.82,0,0,0-2.13,2.84v0l0,0a1.15,1.15,0,0,1-1,.8c-.53,0-.9-.26-1.16-.24H543c-.06,0-.21.13-.36.44s-.27.68-.44,1a1,1,0,0,1-.6.57c-.37.1-.86.11-1.3.22s-.7.27-.77.58a2.41,2.41,0,0,0-.07.62c0,.81.29,1.86.43,3.12a1.58,1.58,0,0,1,0,.19,1.47,1.47,0,0,1-.42,1,4.54,4.54,0,0,1-.74.58c-.48.35-.79.59-.8,1.21a1.94,1.94,0,0,0,0,.36,25.4,25.4,0,0,1,.28,3.93,15.45,15.45,0,0,1-1,6.15,2.8,2.8,0,0,1,1.55-.59h0a1.84,1.84,0,0,1,1.21.53m8.63-24.79s0,0,0,0,0,0,0,0m0-.12v0l0,0a.15.15,0,0,0,0,.07m.54-.2h0l.05,0h0m-.18,0h0l-.14,0a.27.27,0,0,1,.14,0" transform="translate(-440.15 -413.5)" style="fill-rule:evenodd"/><path d="M522.05,595.32a17.42,17.42,0,0,1,8.43-.31c1-.12,1.34,0,1.75-.57-.13-.77-.91-.89-.38-1.3,1.15-.63,1.05-.14,1.05-.14a18.07,18.07,0,0,0,3.71-.61,10.49,10.49,0,0,0,3-2.89c1.05-.74,1.23-1.27,2.75-1.25s4.69-1.89,5.07-2.78-.32-3.76-.23-4.09a4.38,4.38,0,0,0,.8-1.49c.36-1.35-.85-1.22-.18-2.7.93-2.13-.12-3.72-.83-3.85s-1.72.31-3.38,2c-.94,1-2.15-1-3.43-.46s-1.41,1.73-2.56,1.88-2.7-.76-3.6,1.32-.8,3.26-1.23,4.29-2.29-.4-3.2.76a8.1,8.1,0,0,0-1.22,4.5,2.23,2.23,0,0,1-.57,1.12c-.38.25-.58-.2-1.11-.33-.59.28-.31-.26-.94.57-.62,1.15-.15,4.38-4,5.52Z" transform="translate(-440.15 -413.5)" style="fill:#ffd000;fill-rule:evenodd"/><path d="M521.22,594.28l.43-.13c3.63-1.09,3.07-3.85,3.79-5.31v0l0,0a4.12,4.12,0,0,1,.38-.45.64.64,0,0,1,.45-.2h.12a.45.45,0,0,0,.14-.05l.13-.07.15,0a2.64,2.64,0,0,1,.78.39,1.07,1.07,0,0,0,.26-.43,2.92,2.92,0,0,0,.12-.36h0s0-.08,0-.14a8.35,8.35,0,0,1,1.32-4.59,1.72,1.72,0,0,1,1.45-.65c.54,0,1,.13,1.35.12s.27,0,.34-.14c.39-.89.31-2.16,1.23-4.29a2.36,2.36,0,0,1,2.32-1.64c.51,0,1,.09,1.36.09h.24a1.5,1.5,0,0,0,1-.65,4.07,4.07,0,0,1,1.47-1.2,1.61,1.61,0,0,1,.66-.14,3.16,3.16,0,0,1,1.42.46,2.42,2.42,0,0,0,.92.37.38.38,0,0,0,.3-.14c1.51-1.56,2.53-2.16,3.44-2.17a1.36,1.36,0,0,1,.3,0c.84.19,1.52,1.19,1.54,2.6a4.52,4.52,0,0,1-.4,1.82,1.51,1.51,0,0,0-.17.61.92.92,0,0,0,.18.5,1.82,1.82,0,0,1,.28.94,2.21,2.21,0,0,1-.08.59v0a4.75,4.75,0,0,1-.78,1.48c0,.45.35,2,.35,3.13a2.61,2.61,0,0,1-.14,1,5.8,5.8,0,0,1-2.27,1.92,7.37,7.37,0,0,1-3.16,1.11h-.13A2.15,2.15,0,0,0,541,589c-.29.17-.59.47-1.1.84a10.89,10.89,0,0,1-3.12,2.94l-.07,0h-.07a25,25,0,0,1-3.74.62h-.05V593h-.2v.22h0a2,2,0,0,0-.54.21l.08.09a1.78,1.78,0,0,1,.41.83l0,.18-.11.15a1.43,1.43,0,0,1-.87.59c-.32.07-.65.08-1.16.14h-.09a28.76,28.76,0,0,0-4-.39,13.64,13.64,0,0,0-4.3.67l-.38.13Zm.84,1,.39-.14Zm.38-.55a14.55,14.55,0,0,1,4.05-.56,28.09,28.09,0,0,1,4,.38c.51-.05.85-.07,1-.11a.51.51,0,0,0,.27-.14,1.14,1.14,0,0,0-.18-.27,1.07,1.07,0,0,1-.34-.66.76.76,0,0,1,.34-.59l0,0,0,0a2.32,2.32,0,0,1,1.06-.37.61.61,0,0,1,.45.17c.36,0,1.25-.16,3.3-.58a10,10,0,0,0,2.86-2.73l0-.06.06,0c.49-.34.78-.65,1.2-.91a3,3,0,0,1,1.7-.41h.13a6.76,6.76,0,0,0,2.75-1,5.72,5.72,0,0,0,1.91-1.53,1.88,1.88,0,0,0,.08-.65c0-1.06-.35-2.64-.36-3.19a.77.77,0,0,1,0-.21l0-.06,0-.05a3.89,3.89,0,0,0,.74-1.38,1.41,1.41,0,0,0,.05-.35,1.07,1.07,0,0,0-.18-.54,1.77,1.77,0,0,1-.28-.9,2.31,2.31,0,0,1,.24-1,3.69,3.69,0,0,0,.33-1.48,2.47,2.47,0,0,0-.34-1.32,1,1,0,0,0-.51-.47h-.16c-.49,0-1.39.4-2.85,1.92a1.24,1.24,0,0,1-.89.39,3,3,0,0,1-1.31-.46,2.39,2.39,0,0,0-1-.37.79.79,0,0,0-.32.07,3.34,3.34,0,0,0-1.19,1,2.33,2.33,0,0,1-1.48.92l-.35,0c-.49,0-1-.09-1.36-.09-.64,0-1.08.11-1.56,1.14-.88,2-.76,3.11-1.23,4.28a1.1,1.1,0,0,1-1.11.65c-.47,0-1-.13-1.35-.12a.9.9,0,0,0-.8.33,7.62,7.62,0,0,0-1.15,4.09v0a.32.32,0,0,1,0,.06.42.42,0,0,1,0,.07c0,.11,0,.07,0,.1v0s0,.07,0,.12a3.61,3.61,0,0,1-.12.36,1.76,1.76,0,0,1-.58.84.79.79,0,0,1-.45.14,1.14,1.14,0,0,1-.61-.23,1.45,1.45,0,0,0-.26-.15,1.07,1.07,0,0,1-.34.07h0l-.24.3c-.46.85-.19,4.18-3.72,5.51m5.2-6.32Zm1.08-1.08a.29.29,0,0,0-.09-.07l.09.07m.12.23h0a.35.35,0,0,1,0,.08.42.42,0,0,0,0-.07" transform="translate(-440.15 -413.5)" style="fill-rule:evenodd"/><path d="M456.29,503.09a41.48,41.48,0,0,1-7.82-15,24.06,24.06,0,0,0-3.87,8.43,19.68,19.68,0,0,0,4.21,18.16,52.66,52.66,0,0,0,6.84,4c0-.05,3.25-6,.63-15.61" transform="translate(-440.15 -413.5)" style="fill:#ffd000;fill-rule:evenodd"/><path d="M455.34,519h0l-.38-.19c-.33-.16-.81-.41-1.42-.75a58.28,58.28,0,0,1-5-3.08l0,0,0,0a19.62,19.62,0,0,1-5-13.15,22.13,22.13,0,0,1,.67-5.38,24.37,24.37,0,0,1,3.94-8.58l.52-.66.21.82s.13.51.42,1.4.73,2.14,1.35,3.6a37.66,37.66,0,0,0,6,9.85l-.31.27-.4.11.4-.11.31-.27.06.07,0,.09a28.32,28.32,0,0,1,1,7.47,18.73,18.73,0,0,1-1.71,8.44l0,0,0-.05a.36.36,0,0,1-.08.11l0,0h0l-.41.49Zm.68-.12h0m0-.08Zm0-.1a.45.45,0,0,1,0,.1.25.25,0,0,0,0-.1m-.6-.56.08-.18a14.63,14.63,0,0,0,.55-1.57,21.26,21.26,0,0,0,.8-5.94,27.46,27.46,0,0,0-1-7.16A41.67,41.67,0,0,1,448.31,489c-.25.38-.58.9-.94,1.56a24.68,24.68,0,0,0-2.36,6,21.33,21.33,0,0,0-.65,5.18,18.78,18.78,0,0,0,4.74,12.56,53,53,0,0,0,6.38,3.8m.53.8h0" transform="translate(-440.15 -413.5)" style="fill-rule:evenodd"/><path d="M458.45,516c-1-6.12.4-13,.71-18a24.09,24.09,0,0,0-8,5.83,19.25,19.25,0,0,0-4.55,17.92,52.35,52.35,0,0,0,4.3,6.61s6.22-5.1,7.5-12.37" transform="translate(-440.15 -413.5)" style="fill:#ffd000;fill-rule:evenodd"/><path d="M450.56,528.51l0,0-.25-.33c-.22-.29-.54-.72-.93-1.29-.78-1.12-1.87-2.78-3.06-4.92l0,0v-.05a20.35,20.35,0,0,1-.64-5,20,20,0,0,1,5.28-13.31,24.38,24.38,0,0,1,8.11-5.94l.62-.27,0,.67c-.23,3.79-1.05,8.53-1.05,13.21a29.86,29.86,0,0,0,.34,4.7l-.41.07.41-.07V516c-1.32,7.46-7.61,12.57-7.64,12.62l-.51.43Zm.38.23a.26.26,0,0,0,.16,0,.46.46,0,0,1-.16,0m.34-.18a.24.24,0,0,0,.06-.13.38.38,0,0,1-.06.13m-.28-.84a25.14,25.14,0,0,0,2.89-3.12,20.1,20.1,0,0,0,4.13-8.65,31.22,31.22,0,0,1-.34-4.76c0-4.47.73-9,1-12.56a23.83,23.83,0,0,0-7.18,5.44,19.2,19.2,0,0,0-5.07,12.76,19.43,19.43,0,0,0,.6,4.74,53.78,53.78,0,0,0,4,6.16" transform="translate(-440.15 -413.5)" style="fill-rule:evenodd"/><path d="M447.81,528.3a79,79,0,0,0-5.93-17.91,35.1,35.1,0,0,1,8.75,3.86c4.55,2.83,9.35,7.23,11.15,14.5-.15,4.59-.43,7.48-.43,7.47s-7.19.84-13.54-7.93" transform="translate(-440.15 -413.5)" style="fill:#ffd000;fill-rule:evenodd"/><path d="M461.13,536.66h-.24c-1.76,0-8-.55-13.41-8.12l.34-.24.41-.08-.41.08-.34.24-.05-.07,0-.09A73.42,73.42,0,0,0,443.8,516c-1.26-3.28-2.28-5.37-2.29-5.37l-.4-.81.87.22a35.51,35.51,0,0,1,8.87,3.91c4.6,2.86,9.51,7.35,11.33,14.76v.11c-.14,4.3-.39,7.07-.44,7.48v1.35Zm.25,0a.4.4,0,0,0,.19-.07.8.8,0,0,1-.22.07Zm-.23,0h0Zm.54-.13,0,0h0s0,0,0,.05m.07-.24c0-.13,0-.14,0-.17l0,0a.64.64,0,0,1,.06.21m-.87-.4H461s0-.1,0-.16c0-.34.07-.84.11-1.49.09-1.28.2-3.12.27-5.38-1.77-7.1-6.46-11.4-11-14.2a36.24,36.24,0,0,0-6-2.94c-.71-.27-1.31-.47-1.75-.61a79.39,79.39,0,0,1,5.55,17.08c5.28,7.25,11.09,7.69,12.69,7.7" transform="translate(-440.15 -413.5)" style="fill-rule:evenodd"/><path d="M464.33,531c-.16-3-4-12.7-3.37-16.86-1.43.93-1.85,2.26-5,6.49s-7.41,10.54-4.63,18.18a50.49,50.49,0,0,0,5,6.18s8.18-11,8-14" transform="translate(-440.15 -413.5)" style="fill:#ffd000;fill-rule:evenodd"/><path d="M456,545.22l-.05-.05-.28-.31c-.25-.27-.61-.66-1.07-1.19a56.57,56.57,0,0,1-3.56-4.62l0,0,0,0a14.84,14.84,0,0,1-.92-5.11c0-5.6,3.2-10.2,5.61-13.45,3.12-4.2,3.51-5.53,5.09-6.59l.79-.52-.15.93a6.16,6.16,0,0,0-.07,1,36.83,36.83,0,0,0,1.65,8.48,51.32,51.32,0,0,1,1.8,7.28l-.42,0,.42,0s0,.07,0,.11a9.57,9.57,0,0,1-1.29,3.64c-.76,1.46-1.76,3.09-2.76,4.64-2,3.09-4,5.78-4.07,5.87l0,0-.4.39Zm.75-.15h0Zm0-.08a.63.63,0,0,1,0,.08.35.35,0,0,0,0-.08m-.45-.65.45-.62c.46-.63,1.09-1.53,1.79-2.56a71.38,71.38,0,0,0,4.2-6.79,9.09,9.09,0,0,0,1.2-3.28V531a52.55,52.55,0,0,0-1.77-7.1,37.47,37.47,0,0,1-1.68-8.7v-.14c-.86.89-1.66,2.42-4.16,5.8s-5.45,7.7-5.45,13a14,14,0,0,0,.85,4.78,50.84,50.84,0,0,0,4.56,5.72" transform="translate(-440.15 -413.5)" style="fill-rule:evenodd"/><path d="M453.59,544.34c-2.11-7.14-7.48-16.29-7.48-16.29a36.06,36.06,0,0,1,9.09,3.08c4.8,2.41,10,6.3,12.57,13.31.36,4.55.42,7.45.41,7.45s-7.35.61-14.59-7.56" transform="translate(-440.15 -413.5)" style="fill:#ffd000;fill-rule:evenodd"/><path d="M453.28,544.62l.31-.28.4-.12-.4.12-.31.28-.06-.07,0-.09a69.53,69.53,0,0,0-4.51-10.75c-1.6-3.17-2.93-5.44-2.93-5.45l-.45-.76.88.15a36.56,36.56,0,0,1,9.2,3.12c4.85,2.43,10.18,6.41,12.77,13.55l0,.05v.06c.34,4.24.41,7,.41,7.43a.47.47,0,0,1,0,.07s0,0,0,0h0a.56.56,0,0,1,0,.12l-.38-.12-.05.35,0-.29v.3H468c-1.28,0-8.1-.25-14.69-7.69M468,552.28l.13-.33Zm-.27-.81c0-.95-.12-3.45-.4-6.93-2.51-6.84-7.6-10.65-12.35-13a37.45,37.45,0,0,0-6.27-2.41c-.74-.21-1.36-.36-1.81-.46,1.34,2.37,5.26,9.57,7,15.5,6.06,6.79,12.18,7.29,13.79,7.34" transform="translate(-440.15 -413.5)" style="fill-rule:evenodd"/><path d="M470.19,547.62c-3.48-6.27-4.38-17.5-4.38-17.5a24.76,24.76,0,0,0-5.86,7.19,18.81,18.81,0,0,0-.06,18.57,48.09,48.09,0,0,0,5.92,5.38s4.91-6.38,4.38-13.64" transform="translate(-440.15 -413.5)" style="fill:#ffd000;fill-rule:evenodd"/><path d="M465.47,561.53l0,0-.33-.26c-.29-.23-.72-.57-1.25-1a56.09,56.09,0,0,1-4.27-4.07l0,0,0,0a19.28,19.28,0,0,1-2.48-9.35,20.07,20.07,0,0,1,2.54-9.61,25.06,25.06,0,0,1,6-7.33l.61-.47.06.76s.22,2.79.88,6.36a38.49,38.49,0,0,0,3.45,11l-.36.2-.41,0,.41,0,.36-.2,0,.08v.09c0,.38,0,.76,0,1.13,0,7-4.49,12.75-4.49,12.77l-.4.59Zm.75-.27a.41.41,0,0,1,0,.09.34.34,0,0,0,0-.09m-.5-.59c.94-1.34,4.09-6.29,4.09-11.95q0-.49,0-1c-2.94-5.4-4-14.13-4.3-16.79-.34.31-.81.75-1.36,1.33a25.35,25.35,0,0,0-3.81,5.24,19.18,19.18,0,0,0-2.43,9.21,18.38,18.38,0,0,0,2.35,8.91,49.88,49.88,0,0,0,5.49,5" transform="translate(-440.15 -413.5)" style="fill-rule:evenodd"/><path d="M461.5,560.93c-2.74-7-9.36-15.5-9.36-15.5a36.43,36.43,0,0,1,9.37,2.15c5.08,1.88,10.65,5.16,14.08,11.74.93,4.45,1.4,7.3,1.38,7.3s-7.21,1.62-15.47-5.69" transform="translate(-440.15 -413.5)" style="fill:#ffd000;fill-rule:evenodd"/><path d="M476.6,567.08h-.13a12.84,12.84,0,0,1-1.32.07c-2.73,0-8.12-.77-13.93-5.91l.28-.31.38-.15-.38.15-.28.31-.07-.07,0-.09a59.86,59.86,0,0,0-5.67-10.28c-2-3-3.64-5.11-3.64-5.11l-.56-.73.92.06a37,37,0,0,1,9.49,2.17c5.13,1.9,10.82,5.24,14.3,11.94l0,.05v.05c.69,3.28,1.13,5.69,1.3,6.74.05.32.08.46.09.59h0v0a.45.45,0,0,1,0,.19l-.61,1.23Zm-1.45-.75c.53,0,.95,0,1.24-.06h.09l0-.15c-.06-.34-.15-.84-.26-1.47-.23-1.25-.57-3-1-5.18-3.36-6.42-8.81-9.63-13.83-11.49a37.41,37.41,0,0,0-6.49-1.75c-.74-.13-1.36-.22-1.83-.27,1.66,2.23,6.3,8.52,8.6,14.29l.37.8c5.63,4.94,10.57,5.28,13.14,5.29" transform="translate(-440.15 -413.5)" style="fill-rule:evenodd"/><path d="M477.22,566.35c-2-2.39-4.21-4.66-6.46-6.84a16.5,16.5,0,0,0-.64-5.44,16.46,16.46,0,0,1,.28,5.08,101,101,0,0,0-13.07-10.57h0l-.08.11c2.05,1.48,4,3.06,6,4.7a10.07,10.07,0,0,0-3.9-1v.14a13,13,0,0,1,5.45,2.14q2.27,2,4.41,4.16c-2.5-.85-2.1-.51.41.59l.06-.12a98.4,98.4,0,0,1,6.77,7.6l0,.05.05,0,.71-.5.07,0Z" transform="translate(-440.15 -413.5)" style="fill-rule:evenodd"/><path d="M477.32,561.1a167.09,167.09,0,0,1-8-14.93s-.48.92-2.62,5.67a18.45,18.45,0,0,0,1.46,18.49,45.42,45.42,0,0,0,6.42,4.85s3.87-6.94,2.77-14.08" transform="translate(-440.15 -413.5)" style="fill:#ffd000;fill-rule:evenodd"/><path d="M474.23,575.46h0l-.36-.23c-.31-.2-.77-.5-1.35-.9a52.45,52.45,0,0,1-4.65-3.69l0,0,0,0A18.7,18.7,0,0,1,464.44,560a20.12,20.12,0,0,1,1.86-8.31c2.14-4.75,2.63-5.67,2.63-5.69l.39-.75.35.77s.79,1.72,2.19,4.44,3.4,6.45,5.81,10.44l-.35.22-.41.06.41-.06.35-.22,0,.07V561a17.73,17.73,0,0,1,.2,2.72,26.53,26.53,0,0,1-3,11.6.46.46,0,0,0,0-.18.43.43,0,0,1,0,.18l0,0-.06.08.06-.07h0l-.39.61Zm.16-.88c.07-.14.16-.32.26-.53.27-.58.64-1.43,1-2.46a24,24,0,0,0,1.45-7.84,17.36,17.36,0,0,0-.18-2.52c-3.87-6.4-6.66-12.08-7.63-14.11l-.13.27c-.39.82-1,2.24-2.11,4.61a19.26,19.26,0,0,0-1.78,8,17.8,17.8,0,0,0,3.17,10.08,46.88,46.88,0,0,0,5.95,4.53m.51.81,0,0h0l0,0h0" transform="translate(-440.15 -413.5)" style="fill-rule:evenodd"/><path d="M477.18,562.11s-7.71-5.66-12.36-6.69-7.83-1.16-10.32-3.8-2.23-5.54-5.07-10.69-1.21-7.52-1.21-7.52a28.19,28.19,0,0,0,9.32,6.14c6.11,2.59,12,3.84,13.78,7.91,1.69,3.82,5.87,14.64,5.87,14.64" transform="translate(-440.15 -413.5)" style="fill:#dd052b;fill-rule:evenodd"/><path d="M476.94,562.45s-1.92-1.4-4.41-2.94a29.57,29.57,0,0,0-7.8-3.68c-4.6-1-7.89-1.14-10.54-3.92s-2.32-5.72-5.13-10.77a11.83,11.83,0,0,1-1.73-5.63,4.29,4.29,0,0,1,.54-2.32l.3-.43.35.39s.19.21.57.57,1,.88,1.74,1.47a31,31,0,0,0,6.86,4c6.06,2.59,12,3.77,14,8.13,1.7,3.84,5.88,14.65,5.88,14.65l-.39.15.24-.33-.24.33.39-.15.51,1.33Zm-28.77-26.93a11,11,0,0,0,1.62,5.23c2.87,5.24,2.63,8.13,5,10.6s5.4,2.65,10.11,3.68c3.7.83,9.07,4.36,11.39,6-.42-1.09-1.08-2.77-1.8-4.6-1.26-3.18-2.72-6.84-3.56-8.74-1.62-3.79-7.38-5.12-13.56-7.7a30.2,30.2,0,0,1-9-5.79,4.7,4.7,0,0,0-.18,1.36" transform="translate(-440.15 -413.5)" style="fill-rule:evenodd"/><path d="M470.33,575.72C466.1,569.77,459,561.31,459,561.31a38.21,38.21,0,0,1,9.59,1.1c5.27,1.31,11.18,3.87,15.45,9.86,1.53,4.25,2.44,7,2.43,7s-6.88,2.72-16.16-3.53" transform="translate(-440.15 -413.5)" style="fill:#ffd000;fill-rule:evenodd"/><path d="M470.1,576.06l.23-.34.34-.24-.34.24-.23.34-.06,0,0-.06c-2.11-3-4.93-6.56-7.23-9.42s-4.06-5-4.06-5l-.54-.65.84,0h.61a39.77,39.77,0,0,1,9.09,1.12c5.32,1.32,11.35,3.92,15.69,10l0,0,0,.05c1.45,4,2.34,6.68,2.43,7v0s0,0,0,.05a.16.16,0,0,0,0,0h0a.41.41,0,0,1,0,.16l0-.06,0,.07h0l-.37.74-.22-.44c-.19.05-.47.12-.81.19a15.14,15.14,0,0,1-3,.29,22,22,0,0,1-12.35-4.16m16.69,3.48.05-.06Zm.05-.07h0m-4.39-.08A13.85,13.85,0,0,0,486,579l0-.1-.48-1.4c-.41-1.2-1-2.91-1.76-5-4.2-5.85-10-8.36-15.18-9.65a39.29,39.29,0,0,0-8.62-1.1c1.75,2.11,7.19,8.75,10.73,13.7a21.17,21.17,0,0,0,11.82,4m4.46-.14a.57.57,0,0,1,0,.1.45.45,0,0,0,0-.1" transform="translate(-440.15 -413.5)" style="fill-rule:evenodd"/><path d="M476.5,556.06c-.29.46-.69,1.1-1.12,1.89a28.88,28.88,0,0,0-2.62,6.38,19.35,19.35,0,0,0-.65,4.94,17.52,17.52,0,0,0,5.3,12.59,43.83,43.83,0,0,0,6.59,3.28l.22.08.1-.25c.15-.39.35-1,.56-1.65a19.71,19.71,0,0,0,.81-5.4,14,14,0,0,0-.89-5c-1.19-3.09-2.62-4.76-4.14-7.08a30.65,30.65,0,0,1-4.16-9.77" transform="translate(-440.15 -413.5)" style="fill:#ffd000;fill-rule:evenodd"/><path d="M485.11,573c-1.23-3.21-2.63-4.61-4.1-6.87s-2.63-5.83-3.93-11.21l-.22-.88-.53.73a31.72,31.72,0,0,0-4.37,9.31,20.09,20.09,0,0,0-.68,5.15,18.35,18.35,0,0,0,5.57,13.21l0,0,0,0a48.58,48.58,0,0,0,5.32,2.77,15.15,15.15,0,0,0,2.6.53,21.08,21.08,0,0,0,1.66-7.92c0-1.7-.71-3.1-1.4-4.91m-.89,12.2-.22-.08a44.24,44.24,0,0,1-6.59-3.28,17.53,17.53,0,0,1-5.3-12.59,19.35,19.35,0,0,1,.65-4.94,28.88,28.88,0,0,1,2.62-6.38c.43-.79.82-1.43,1.12-1.89,1.27,4.87,2.39,8.37,3.82,10.55s2.83,3.63,4,6.71c.65,1.69,1.34,3,1.34,4.61a19.57,19.57,0,0,1-.81,5.4c-.2.69-.41,1.25-.55,1.65l-.1.25m.64.55h0v0" transform="translate(-440.15 -413.5)" style="fill-rule:evenodd"/><path d="M479.49,587.43c-4.1-5.6-12.69-12.86-12.69-12.86a24.33,24.33,0,0,1,10.33-.51,26.09,26.09,0,0,1,15.69,9.23c1.84,4.18,3.06,6.87,3,6.87s-6.58,3.16-16.37-2.73" transform="translate(-440.15 -413.5)" style="fill:#ffd000;fill-rule:evenodd"/><path d="M479.27,587.78l.21-.35.34-.24-.34.24-.21.35-.07,0,0-.07a70.18,70.18,0,0,0-7.84-8.47c-2.65-2.51-4.79-4.31-4.79-4.31l-.59-.5.73-.22a25.48,25.48,0,0,1,6.64-.88,20.31,20.31,0,0,1,3.9.36A26.52,26.52,0,0,1,493.14,583l0,0,0,.05c1.73,3.93,2.89,6.49,3,6.86a.38.38,0,0,1,0,.18.42.42,0,0,1-.12.3l-.47.48-.08-.24c-.23.08-.54.18-.94.28a15.29,15.29,0,0,1-3.65.42,22.67,22.67,0,0,1-11.74-3.61M496,590.56h0m-5,0a13.44,13.44,0,0,0,4.3-.65l0-.1-.62-1.39c-.53-1.18-1.28-2.87-2.18-4.93a25.67,25.67,0,0,0-15.41-9,19.37,19.37,0,0,0-3.74-.35,25.59,25.59,0,0,0-4.55.43c-.43.08-.8.16-1.09.23,2,1.75,9.65,10.16,11.79,12s8.77,3.76,11.55,3.76m5.14-.11,0,0,.08-.08-.05.06m.1-.16a.46.46,0,0,0,0-.1.48.48,0,0,1,0,.1" transform="translate(-440.15 -413.5)" style="fill-rule:evenodd"/><path d="M539.29,589.61c-4,1-15.34-3.68-27.68-3.68-13.49,0-25.92,5.75-28.71,3.37-.55-.47-.24-.2.46.51,1.29,1.32,4.26,4,7.2,6.53a77.12,77.12,0,0,0,6.45,4.91,6.16,6.16,0,0,0,1.06.32,46.08,46.08,0,0,1,27.09,0,6.27,6.27,0,0,0,1.06-.32,77.87,77.87,0,0,0,6.44-4.91c2.93-2.51,5.91-5.21,7.2-6.53.7-.71-.19-.3-.56-.21" transform="translate(-440.15 -413.5)" style="fill:#dd052b;fill-rule:evenodd"/><path d="M525,602a31.3,31.3,0,0,0-3.75-1,46.93,46.93,0,0,0-9.65-1,45.42,45.42,0,0,0-12.43,1.7c-.64.19-1,.31-1,.31l-.11,0-.11,0a6.6,6.6,0,0,1-1.14-.34l0,0,0,0a78.38,78.38,0,0,1-6.48-4.94c-2.94-2.51-5.91-5.22-7.22-6.55l-.67-.68a1,1,0,0,1-.12-.13s0,0,0-.09a.26.26,0,0,1,0-.14.42.42,0,0,1,.42-.42h.14a.18.18,0,0,1,.11.05l0,0,.06.05.21.18a3.06,3.06,0,0,0,2,.48c4.68,0,15.22-3.94,26.47-3.95s21.63,3.84,26.3,3.82a5.29,5.29,0,0,0,1.28-.13A3.69,3.69,0,0,1,540,589a.49.49,0,0,1,.27.07.46.46,0,0,1,.23.4.6.6,0,0,1-.13.37,2.42,2.42,0,0,1-.24.28c-1.31,1.34-4.29,4-7.22,6.55a78.37,78.37,0,0,1-6.48,4.94l0,0,0,0a6.59,6.59,0,0,1-1.15.34l-.11,0Zm-27-.82a46.65,46.65,0,0,1,27.14,0,5.32,5.32,0,0,0,.84-.26,77.49,77.49,0,0,0,6.38-4.86c2.55-2.18,5.14-4.51,6.6-5.94a7.09,7.09,0,0,1-1.08.08c-5,0-15.25-3.83-26.3-3.83s-21.47,3.93-26.47,3.95q-.39,0-.74,0c1.49,1.43,4,3.68,6.43,5.77a76.84,76.84,0,0,0,6.38,4.86,5.09,5.09,0,0,0,.84.26m41.3-11.38h0l0-.15Z" transform="translate(-440.15 -413.5)" style="fill-rule:evenodd"/><polygon points="65.03 175.95 66.25 183.54 65.03 183.71 63.97 177.11 62.65 177.3 63.72 183.9 62.5 184.07 61.28 176.47 65.03 175.95" style="fill:#ffd000;fill-rule:evenodd"/><path d="M512.3,589v1.09c1.41,0,2.15.48,2.15,1.5V594c0,1.25-.82,1.57-2.15,1.57v1.15h-1.23v-1.15c-1.36,0-2.14-.32-2.14-1.58v-2.37c0-1,.72-1.5,2.15-1.5V589Zm-2.15,5.28c0,.23.31.35.92.35V591c-.53,0-.92.05-.92.73Zm3.06-2.53c0-.58-.29-.73-.92-.73v3.62c.48,0,.92-.05.92-.35Z" transform="translate(-440.15 -413.5)" style="fill:#ffd000;fill-rule:evenodd"/><polygon points="78.63 179.48 78.67 179.49 80.64 176.25 81.82 176.4 79.84 179.68 80.7 184.02 79.45 183.86 78.62 179.81 78.58 179.8 78 183.66 76.78 183.51 77.93 175.89 79.14 176.05 78.63 179.48" style="fill:#ffd000;fill-rule:evenodd"/><path d="M503.19,437l-20.87,2.32L498,453.1l-4.43,20.69,18.14-10.73,18.12,10.73-4.41-20.69L541,439.3,520.16,437l-8.49-19.43L503.19,437" transform="translate(-440.15 -413.5)" style="fill:#ffd000;fill-rule:evenodd"/><path d="M492.41,476.64,486.79,481l-1.12-3.34L463.1,483l-12.93,43.09,12.7,6.44,7.07-1.48,4,4.78,14-1.14s.5-5.58.7-8.71l3,2.48,14.34-.71a57.25,57.25,0,0,0,4.8-4.85c0,.91.09,4.75.09,4.75l15.87.5s.4-3.08.56-4.3l2.35,4.41s18.48,2,20.77,2.37,12.38,2.11,12.38,2.11l11.08-6.4-13.77-42.65-15.5-4.6-3.57,2.8,1.29-3.37-13.36-2.34-3,7.79c-.24-3.18-.55-7.93-.55-7.93l-14.05-.66s0,3.84,0,5c-2.32-1.79-6.24-4.87-6.24-4.87Z" transform="translate(-440.15 -413.5)" style="fill-rule:evenodd"/><path d="M513.24,518.64h1.12c3.72,0,7.49.13,11.2.29l1.27.06-1-16.14,9.57,16.67.57,0c7,.55,13.87,1.34,20.32,2.35l1.67.26-1.73-8,3.44.49,2.13,7.87.66.15,9.5,2.2L559.25,484.6,545,480.5l-5.43,4.4,5,27.59-10-16.18,5.69-16.81-10.51-1.84s-3.23,7.85-5.11,12.51c-.34-4.92-.9-12.88-.9-12.88l-11.21-.48Zm37.19-28.93,2.89.84,3.94,14.1-3.48-.59c-.31-1.3-2.62-11.24-3.35-14.34M492.7,477.91,485,484.28s-3.78,23.94-4.06,25.8l-1.7.12,5.34-31-9.7,2.21-7,30.47-3.17.5,7.47-30.2L463.93,484l-12.09,40.61s16.82-2.92,18.23-3.13c-.27,2-1,7.13-1,7.13l11.49-1.19.13-1,1.53-11.49,5.4,4.62.43,0c5-.38,9.45-.84,14.54-1H503l8.45-6.77.09-13.82-1.18,0-10,.42-.72,10.37c-1.24.07-4.54.32-6.12.41.27-2.56,2.18-21.19,2.37-23.08,1.13-.05,3.2-.26,4.53-.32,0,1.79-.07,7.12-.07,7.12l11.2-.18,0-10.36-7-5.41Z" transform="translate(-440.15 -413.5)" style="fill:#ffd000;fill-rule:evenodd"/><path d="M514.37,517.35c3.76,0,7.54.12,11.24.29,0-.45-1.19-19.67-1.19-19.67l11.66,20.31c7.08.55,13.93,1.35,20.39,2.36-.12-.55-1.73-7.93-1.73-7.93l5.83.82,2.15,7.93,7.52,1.74-11.81-37.66-13.11-3.64-4.41,3.58,5.84,31.93-.33.16-13-21.07,5.41-16-8.24-1.48-6.6,16.2s-1.15-16.39-1.17-16.74c-3-.22-6-.34-9-.39,0,.43.57,38.82.58,39.22m38.5-12.15-4-17.3,5.39,1.57,4.69,16.76Zm-60-26L486.09,485c0,.16-4.13,26.3-4.13,26.3l-4.09.3,5.25-30.75-7.25,1.52-7,30.67-5.71.8,7.61-30.27-6.13,1.29-11.21,38.19,18-3.08-1,7.2,9.14-.95c0-.32,1.81-13.65,1.81-13.65l6.59,5.64c5-.38,9.48-.85,14.59-1l7.69-6.16c0-.21.08-11.41.08-11.82l-9,.39L500.64,510l-8.48.54,2.64-25.69,6.71-.43s-.06,6.75-.07,7.15l8.88-.12c0-.39.07-8.19.06-8.4l-6.21-4.8c-3.94.16-7.45.48-11.31.94" transform="translate(-440.15 -413.5)" style="fill:#fff;fill-rule:evenodd"/><polygon points="96.36 27.22 78.7 25.26 71.52 8.81 64.35 25.26 46.66 27.22 59.91 38.91 56.15 56.44 71.53 47.35 86.87 56.44 83.14 38.91 96.36 27.22" style="fill:#dd052b;fill-rule:evenodd"/><polygon points="72.36 35.58 86 30.84 85.93 30.62 72.04 34.59 72.03 34.58 71.63 20.14 71.39 20.14 70.99 34.58 57.14 30.48 57.07 30.7 70.66 35.57 70.66 35.57 62.46 47.46 62.65 47.6 71.51 36.19 80.25 47.68 80.44 47.55 72.36 35.58" style="fill:#ffd000;fill-rule:evenodd"/><path d="M545.73,562.07a30.19,30.19,0,0,1,12.47-5.74c4.65-1,7.56-2.06,10.06-4.7s2.56-5.42,5.12-10.71,1.16-7.49,1.16-7.49a28.27,28.27,0,0,1-9.32,6.13c-6.12,2.59-11.17,3.37-13,7.14s-6.5,15.37-6.5,15.37" transform="translate(-440.15 -413.5)" style="fill:#dd052b;fill-rule:evenodd"/><path d="M545.73,562.07l.27.31-.66-.47s4.68-11.6,6.52-15.4c2-4,7.15-4.75,13.2-7.34a29.57,29.57,0,0,0,8.6-5.46c.38-.36.57-.57.57-.57l.36-.41.29.46a4.2,4.2,0,0,1,.44,2.15,13.44,13.44,0,0,1-1.58,5.75c-2.54,5.22-2.58,8-5.19,10.82s-5.61,3.78-10.27,4.82a31.42,31.42,0,0,0-11.48,5c-.54.39-.81.63-.81.63Zm19.66-22.13c-6.19,2.59-11.14,3.44-12.78,6.94-.9,1.86-2.53,5.71-3.93,9.07-.8,1.93-1.52,3.71-2,4.87a32.6,32.6,0,0,1,11.43-4.9c4.64-1,7.43-2,9.85-4.58s2.47-5.25,5-10.6a12.62,12.62,0,0,0,1.5-5.39,4.85,4.85,0,0,0-.13-1.17,30.06,30.06,0,0,1-9,5.76" transform="translate(-440.15 -413.5)" style="fill-rule:evenodd"/><path d="M456.57,543.6c.66,0,1.07-.15.89-.86l1,.14,1.93,7.76-1.25-.17-1.48-5.94-.92-.12Z" transform="translate(-440.15 -413.5)" style="fill:#ffd000;fill-rule:evenodd"/><path d="M462.26,546c-.2-.81-.14-1.49,1.26-1.31a2.15,2.15,0,0,1,2,1.66l1.24,4.94c.24,1-.09,1.49-1.26,1.34a2.19,2.19,0,0,1-2-1.82l0-.13,1.17.16.07.27c.07.31.19.6.61.66s.41-.23.32-.53l-.39-1.55c-.12.2-.23.31-.8.24a1.72,1.72,0,0,1-1.52-1.39Zm1.7,2.35a.72.72,0,0,0,.65.64c.37,0,.39-.23.31-.51l-.55-2.2a.82.82,0,0,0-.68-.71c-.43-.06-.36.28-.29.57Z" transform="translate(-440.15 -413.5)" style="fill:#ffd000;fill-rule:evenodd"/><path d="M563.77,544.21a2.1,2.1,0,0,0,1.5-1.31l1.08-.28-2.25,7.62-1.32.34,1.72-5.84-1,.25Z" transform="translate(-440.15 -413.5)" style="fill:#ffd000;fill-rule:evenodd"/><path d="M558.5,546.22a2.1,2.1,0,0,0,1.5-1.31l1.08-.28-2.24,7.63-1.32.34,1.72-5.83-1,.25Z" transform="translate(-440.15 -413.5)" style="fill:#ffd000;fill-rule:evenodd"/><polygon points="71.52 131.47 72 131.46 71.83 121.65 71.51 121.65 71.18 121.65 71.01 131.46 71.5 131.47 71.51 131.47 71.52 131.47" style="fill-rule:evenodd"/><path d="M486.7,583.87a10.4,10.4,0,0,0-.87-4.18h-.08a11.62,11.62,0,0,1,.35,1.39,13.56,13.56,0,0,1,.2,2.5c-1.65-1.16-3.37-2.23-5-3.17h0a85.93,85.93,0,0,0-8.86-4.4l0,.08s3.27,1.53,7.24,3.85l.53.31a14.72,14.72,0,0,0-3.67,0l0,.07a18.48,18.48,0,0,1,4.58.46,61,61,0,0,1,7.18,5,25,25,0,0,0-6.23.21l0,.08a27.06,27.06,0,0,1,6.83.24,28.74,28.74,0,0,1,2.52,2.45l.49-.44a32.79,32.79,0,0,0-5.19-4.52" transform="translate(-440.15 -413.5)" style="fill-rule:evenodd"/><path d="M538.76,584.45a85.75,85.75,0,0,0,6.92-8l-.05,0s-1.93,2.31-4.71,5.23a21.29,21.29,0,0,0,.51-3.33h-.08a21.26,21.26,0,0,1-.95,3.86l-.27.28c-1.09,1.13-2.31,2.32-3.59,3.48a24.45,24.45,0,0,0,.12-6.39h-.07a26.67,26.67,0,0,1-.54,6.81c-1,.89-2,1.76-3.09,2.56a2,2,0,0,0,.54.36,56.24,56.24,0,0,0,4.87-4.41,41.22,41.22,0,0,0,6.4-.32l0-.07a47.49,47.49,0,0,1-6,0m-7,1a15.63,15.63,0,0,1,.85,3.68h.4a17.11,17.11,0,0,0-1.2-3.71Z" transform="translate(-440.15 -413.5)" style="fill-rule:evenodd"/><path d="M574,512.45l0,0s-1.34,1.78-1.94,2.86a72,72,0,0,0-1.06-8h-.07a77.67,77.67,0,0,1,.76,8.26c0,.86.05,1.76.06,2.68l.47-.06c0-.82-.07-1.62-.12-2.4a34.45,34.45,0,0,1,2-3.35" transform="translate(-440.15 -413.5)" style="fill-rule:evenodd"/><path d="M574.68,508.75c.15-.52.29-1,.44-1.52,1.33-4.41,2.69-7.77,2.71-7.81h-.07s-1.06,2.26-2.26,5.53a13.77,13.77,0,0,0-1.11-2.22l0,0a17.42,17.42,0,0,1,1,2.63c-.36,1-.74,2.12-1.1,3.28a1,1,0,0,0,.44.09m4.13-1.8a18.65,18.65,0,0,1-4.39,2c.14.12.23.23.3.3a22.54,22.54,0,0,0,4.13-2.27Z" transform="translate(-440.15 -413.5)" style="fill-rule:evenodd"/><path d="M449.47,498l-.05,0a17.39,17.39,0,0,0-1.16,3.06,62.47,62.47,0,0,1-.62-7h-.07a42.81,42.81,0,0,0,1.29,12.51l.4-.56c-.26-1.25-.61-2.48-.81-3.66a17.83,17.83,0,0,1,1-4.3" transform="translate(-440.15 -413.5)" style="fill-rule:evenodd"/><path d="M471.61,567.83c-3.86-2.4-7-3.92-7-3.93l0,.05s3.43,2,6.95,4.4c.11.08.16-.47.08-.53m.15,1.95a13.15,13.15,0,0,0-3.29-.05v.06a13.54,13.54,0,0,1,3.33.38c0-.13,0-.26,0-.39" transform="translate(-440.15 -413.5)" style="fill-rule:evenodd"/><path d="M573.68,528.68a19.88,19.88,0,0,1-3.06.22,1.26,1.26,0,0,0,0,.13c.2,0,.33.18.3.35,1.08-.11,2-.27,2.81-.43a24.32,24.32,0,0,0,3-.76l0-.06s-1,.23-3,.55m4-9.43-.08,0a51.37,51.37,0,0,0-5,5.18,2.34,2.34,0,0,1,.29.33,71.52,71.52,0,0,1,4.82-5.48" transform="translate(-440.15 -413.5)" style="fill-rule:evenodd"/><path d="M542.15,569.14a19.18,19.18,0,0,1,1,6.44l.42,0,0,0a17.08,17.08,0,0,0-1.38-6.52Zm6.77-2.17a11.81,11.81,0,0,0-2,1.05c.82-2.7,1.24-4.55,1.24-4.56l-.05,0s-1,3.44-2.64,7.75c-.39,1-.84,2.15-1.31,3.27l.52,0c.86-2.16,1.56-4.26,2.11-6a15.27,15.27,0,0,1,2.16-1.39Z" transform="translate(-440.15 -413.5)" style="fill-rule:evenodd"/><path d="M558.54,565.82v-.07a48.73,48.73,0,0,0-6.08.61c1-1.4,1.87-2.79,2.64-4.06a14.67,14.67,0,0,1,2.88-1.19l0-.07a14.79,14.79,0,0,0-2.57.8c1.86-3.09,3-5.38,3-5.39l-.13-.07s-1.69,3.14-4.26,7l-.23.33a14.79,14.79,0,0,0-1.23-3.7l-.06,0a18.18,18.18,0,0,1,1,4.1c-.92,1.34-1.93,2.74-3,4.1.27.74-.81.8-.52,1.55.77-1,1.51-1.94,2.2-2.92a46.89,46.89,0,0,1,6.42-1" transform="translate(-440.15 -413.5)" style="fill-rule:evenodd"/><path d="M569.33,534.3s-.8.69-2.45,1.88c-.58.42-1.31.86-2.13,1.35.42-1.56.77-3,1-4.34a19.16,19.16,0,0,1,1.86-2.08l0-.06s-1,.84-1.69,1.51c.54-2.61.78-4.36.79-4.37l-.15,0s-.59,3.34-1.77,7.61a16,16,0,0,0-3-3.22l-.06.05a14.94,14.94,0,0,1,2.9,3.72c-.36,1.27-.77,2.62-1.23,4a1,1,0,0,0,.57-.11q.33-1.07.61-2.11c1-.61,1.82-1.17,2.47-1.68a18,18,0,0,0,2.33-2.08Z" transform="translate(-440.15 -413.5)" style="fill-rule:evenodd"/><path d="M452.62,521.66a63.27,63.27,0,0,0-6.93-7.52l-.07,0s2.35,2.48,5.16,5.92l-.28-.14a13,13,0,0,0-3.1-1.08v.07a15.84,15.84,0,0,1,2.86,1.19c.41.21.71.4,1.07.62.58.72.52.66,1.11,1.46a2.15,2.15,0,0,0,.19-.55" transform="translate(-440.15 -413.5)" style="fill-rule:evenodd"/><path d="M478.85,567.83a11.88,11.88,0,0,0-1.77,3.87,45.19,45.19,0,0,1-1.16-10.52h0a38.75,38.75,0,0,0,1.34,12.93h.52c-.19-.6-.35-1.19-.5-1.78a12.77,12.77,0,0,1,1.69-4.47Zm3.16,4.62a7.68,7.68,0,0,0-1.61,2l.25.22a7.8,7.8,0,0,1,1.43-2.17Z" transform="translate(-440.15 -413.5)" style="fill-rule:evenodd"/><path d="M461.13,530.68a27.61,27.61,0,0,0-2,2.43l-.1.15c.06.09.1.2.16.3l.19-.28c1.17-1.67,1.75-2.56,1.76-2.57Zm-2.66-3.8a39.49,39.49,0,0,0-1.53,4.87,1,1,0,0,1,.37.53,44.36,44.36,0,0,1,1.53-5.37c-.17,0-.31.1-.37,0" transform="translate(-440.15 -413.5)" style="fill-rule:evenodd"/><path d="M451.58,532.6s2.82,2.18,6.25,5.26c.41.36.82.74,1.23,1.13.11-.11.11-.49.24-.56a52.57,52.57,0,0,0-7.68-5.89Zm12.4,2.67a30,30,0,0,0-1.35,6.24H463a36.69,36.69,0,0,1,1-6.23Z" transform="translate(-440.15 -413.5)" style="fill-rule:evenodd"/><path d="M469.58,558.64c0-.51-.06-1-.08-1.49l-.36.07c0,1.62.12,3.42.28,5.28h.5c-.15-1.33-.26-2.63-.34-3.85" transform="translate(-440.15 -413.5)" style="fill-rule:evenodd"/><path d="M455.93,502.62a50.65,50.65,0,0,0-3.87,9.36,10.56,10.56,0,0,0-1.74-3.87l0,0A12.35,12.35,0,0,1,451.8,513c-.13.57-.26,1.14-.38,1.72l.5.36a47.91,47.91,0,0,1,4-12.42Z" transform="translate(-440.15 -413.5)" style="fill-rule:evenodd"/></svg>