<svg xmlns="http://www.w3.org/2000/svg" viewBox="0 0 297.06 346.22"><title>HC Dynamo Moscow logo - Brandlogos.net</title><path d="M627.7,459.44c-20.08-23.32-47.91-40.89-78.78-49.8,7-21.07,6.48-42.12-1.5-55.8-4.79-8.21-11.89-13.24-20.54-14.55a33.89,33.89,0,0,0-26.12,6.81c-13.48,10.26-22.9,31-26.69,58.66-53.74,8-110.39,42.68-110.62,101.34-.14,35.26,22.09,54.53,42.8,57.51,21.1,3,38.93-9.49,45.43-31.91l1.47-5.45h-5.67C424.42,526.19,421,506.65,421,495c0-37.81,25.61-59.18,51.39-67.34a261.23,261.23,0,0,0,2.45,39.39,288.76,288.76,0,0,1-27,13.62l-2.56,1.14.32,29.64,6-2.84a292,292,0,0,0,27.14-14.44c4.2,42,.46,107.48-12.09,144.43-16.3-6.07-32.05-11.28-46.26-11.81-25.53-1-37.69,13.09-38.19,26.53-.56,15,13,30.73,40,31.74,1,0,2,.06,3,.06h.15c19.61,0,36.83-6.91,51.26-20.59,42,19.29,88.65,17.16,125.38-5.87,37.24-23.36,58.61-65.21,58.61-114.84,0-29.82-11.66-59.78-32.83-84.38M426.3,666.92c-9.65-.9-14.37-6.59-14.06-11.76.3-4.93,5.44-9.77,16.22-9.77h1.08c3.51.11,11.26,2,28.31,10.06C450.76,662.32,438.23,668,426.3,666.92Zm93.44-295.13a9.86,9.86,0,0,1,7,5.11c3.85,6.4,4.49,17.59,1.77,28.17a178,178,0,0,0-28.22-2.24h-2.1C503.24,382.45,511.49,370.41,519.74,371.79Zm-24.89,51.74a102.23,102.23,0,0,1,26,1.65c-5.81,9.89-13.92,18.93-24.55,27.42A116.86,116.86,0,0,1,494.84,423.53ZM604.23,545.69c-1.24,37.06-16.73,69-42.5,87.62-20.27,14.65-45,19.4-70.35,13.61,25.87-36.4,51.22-99.43,60.16-133l1.22-4.58-4.68-.73c-20.2-3.17-35.06-14.1-44.2-32.49a150.6,150.6,0,0,0,35.86-45.35C562.52,440,606.83,468,604.23,545.69Z" transform="translate(-363.47 -338.89)" style="fill:#fff;fill-rule:evenodd"/><path d="M543.36,412.55c12.86-33.72,5-65.68-17.11-69-24.89-3.76-43.25,22.16-48.35,65-53.58,6.93-109.95,40.69-110.17,97.57-.23,58.29,65.74,73.11,79.86,24.4h-.11c-15.12,0-30.77-8.33-30.77-35.5,0-39.5,26.66-64.81,60.1-73a252.67,252.67,0,0,0,2.62,47.31,287.87,287.87,0,0,1-29.92,15.28s.16,15.23.22,20.18a273.4,273.4,0,0,0,32.43-17.81c5.91,45.84,1.12,120-13,157.17-17.59-6.64-34.28-12.52-49-13.06-45.36-1.68-45.4,48,2.09,49.73,26.67,1,43.75-11.59,53.41-21.39,82.66,40,180.58-8.74,180.58-115.59,0-59.57-47.15-114.25-112.9-131.27m-22.92-45c14.4,2.41,16.82,25.08,11.08,42.36a173.41,173.41,0,0,0-38.73-2.67C497.66,383.79,507.26,365.38,520.44,367.58Zm-29.53,52a107.43,107.43,0,0,1,36.4,2.66c-7.31,14.6-18.77,26.93-33.77,37.82A119.54,119.54,0,0,1,490.91,419.58Zm-65,251.6c-24.22-2.27-24.85-30.87,3.76-30,6.9.2,19.87,5.45,35,12.87C458.2,663.43,442,672.68,425.9,671.18ZM608.5,545.84c-2.44,72.94-58.71,122.88-124.29,103.62,26.78-34.84,54.2-102.8,63.21-136.66-24.89-3.91-40.34-18.9-48.81-37.87,16.83-13.87,29.15-29.75,39.08-49.55C577.28,439.63,610.75,478.34,608.5,545.84Z" transform="translate(-363.47 -338.89)" style="fill:#1d2a72;fill-rule:evenodd"/></svg>