<?xml version="1.0" encoding="UTF-8" standalone="no"?>
<svg
   xmlns:dc="http://purl.org/dc/elements/1.1/"
   xmlns:cc="http://creativecommons.org/ns#"
   xmlns:rdf="http://www.w3.org/1999/02/22-rdf-syntax-ns#"
   xmlns:svg="http://www.w3.org/2000/svg"
   xmlns="http://www.w3.org/2000/svg"
   viewBox="0 0 1066.6667 800"
   height="800"
   width="1066.6667"
   xml:space="preserve"
   id="svg2"
   version="1.1"><metadata
     id="metadata8"><rdf:RDF><cc:Work
         rdf:about=""><dc:format>image/svg+xml</dc:format><dc:type
           rdf:resource="http://purl.org/dc/dcmitype/StillImage" /></cc:Work></rdf:RDF></metadata><defs
     id="defs6"><clipPath
       id="clipPath18"
       clipPathUnits="userSpaceOnUse"><path
         id="path16"
         d="M 0,600 H 800 V 0 H 0 Z" /></clipPath></defs><g
     transform="matrix(1.3333333,0,0,-1.3333333,0,800)"
     id="g10"><g
       id="g12"><g
         clip-path="url(#clipPath18)"
         id="g14"><g
           transform="translate(543.4844,197.8018)"
           id="g20"><path
             id="path22"
             style="fill:#ffffff;fill-opacity:1;fill-rule:nonzero;stroke:none"
             d="M 0,0 14.318,-0.982 4.212,9.209 c -4.015,4.047 -9.16,7.519 -15.292,10.318 -3.571,1.63 -7.434,3.032 -11.808,4.285 -1.142,0.327 -2.252,0.625 -3.321,0.898 3.914,8.721 5.022,17.391 3.012,24.518 -1.535,5.442 -4.872,9.713 -9.397,12.025 l -0.28,0.143 -0.294,0.109 c -0.545,0.203 -1.096,0.405 -1.65,0.607 6.173,26.836 4.947,45.788 3.539,67.54 -1.522,23.488 -3.246,50.109 4.252,94.046 l 0.815,4.774 -4.584,1.316 c -0.038,0.012 -0.075,0.024 -0.112,0.034 -3.071,0.925 -13.308,5.604 -17.679,7.602 -0.739,0.339 -1.368,0.626 -1.849,0.845 l -0.051,0.022 -0.066,0.028 c 0.02,-0.008 0.039,-0.016 0.059,-0.026 -1.795,0.814 -3.651,1.629 -5.515,2.423 -28.68,12.205 -58.112,18.393 -87.474,18.393 -29.363,0 -58.793,-6.188 -87.475,-18.393 -1.869,-0.796 -3.731,-1.613 -5.535,-2.432 0.019,0.009 0.019,0.009 0.038,0.018 l -0.09,-0.041 c -0.465,-0.211 -1.091,-0.497 -1.827,-0.833 -4.373,-1.999 -14.614,-6.681 -17.704,-7.611 -0.032,-0.009 -0.068,-0.021 -0.105,-0.033 l -4.571,-1.323 0.813,-4.763 c 7.498,-43.936 5.775,-70.559 4.256,-94.048 -1.401,-21.662 -2.618,-40.48 3.435,-67.08 -0.224,-0.242 -0.442,-0.487 -0.653,-0.734 -0.3,-0.109 -0.599,-0.22 -0.897,-0.331 l -0.295,-0.109 -0.279,-0.143 c -4.525,-2.312 -7.862,-6.583 -9.397,-12.025 -2.01,-7.127 -0.903,-15.796 3.011,-24.518 -1.069,-0.273 -2.179,-0.571 -3.321,-0.898 -4.373,-1.253 -8.234,-2.655 -11.806,-4.285 -6.134,-2.8 -11.279,-6.271 -15.294,-10.318 L -301.287,-0.98 -286.966,0 c 1.385,0.095 2.84,0.144 4.322,0.144 3.485,0 7.166,-0.267 10.766,-0.764 -1.237,-1.473 -2.269,-2.842 -3.148,-4.166 -2.959,-4.459 -3.864,-7.972 -4.911,-12.04 -0.143,-0.557 -0.292,-1.135 -0.452,-1.74 l -3.408,-12.847 11.413,6.816 c 2.418,1.446 4.753,2.73 7.138,3.927 10.218,5.125 21.36,8.558 37.255,11.476 l 0.026,0.004 0.027,0.004 c 1.359,0.264 3.922,0.809 6.671,1.638 17.224,-21.461 41.572,-36.354 76.237,-46.703 l 1.547,-0.462 1.547,0.462 c 34.665,10.349 59.012,25.242 76.237,46.703 2.752,-0.83 5.318,-1.375 6.672,-1.638 l 0.026,-0.004 0.026,-0.004 c 15.895,-2.918 27.037,-6.351 37.256,-11.477 2.383,-1.195 4.717,-2.479 7.138,-3.926 l 11.409,-6.815 -3.405,12.846 c -0.16,0.605 -0.309,1.182 -0.452,1.739 -1.047,4.068 -1.951,7.582 -4.911,12.042 -0.878,1.324 -1.912,2.693 -3.148,4.165 3.6,0.497 7.281,0.764 10.766,0.764 C -2.841,0.144 -1.386,0.095 0,0" /></g><g
           transform="translate(543.8545,203.1982)"
           id="g24"><path
             id="path26"
             style="fill:#005221;fill-opacity:1;fill-rule:nonzero;stroke:none"
             d="m 0,0 c -10.138,10.225 -25.794,13.69 -34.63,15.642 9.905,16.204 7.962,30.922 -0.798,35.395 -2.03,0.758 -4.087,1.489 -6.169,2.196 -1.536,-6.039 -3.452,-12.486 -5.827,-19.455 -5.33,-15.639 -12.014,-28.954 -20.542,-40.341 3.328,-1.344 7.211,-2.247 9.598,-2.708 20.729,-3.805 33.495,-8.494 46.192,-16.079 -2.106,7.942 -2.221,11.295 -13.904,22.71 C -18.776,-0.659 -8.979,0.616 0,0" /></g><g
           transform="translate(256.1484,203.1982)"
           id="g28"><path
             id="path30"
             style="fill:#005221;fill-opacity:1;fill-rule:nonzero;stroke:none"
             d="m 0,0 c 10.137,10.225 25.793,13.69 34.63,15.642 -9.905,16.204 -7.963,30.922 0.798,35.395 2.03,0.758 4.087,1.489 6.169,2.196 1.536,-6.039 3.452,-12.486 5.826,-19.455 C 52.753,18.139 59.438,4.824 67.966,-6.563 64.637,-7.907 60.754,-8.81 58.368,-9.271 37.638,-13.076 24.873,-17.765 12.175,-25.35 14.281,-17.408 14.397,-14.055 26.08,-2.64 18.777,-0.659 8.979,0.616 0,0" /></g><g
           transform="translate(489.7383,290.6816)"
           id="g32"><path
             id="path34"
             style="fill:#005221;fill-opacity:1;fill-rule:nonzero;stroke:none"
             d="m 0,0 c 0.352,45.831 -10.824,98.882 -4.381,142.858 -28.604,12.172 -56.98,17.961 -85.356,17.961 -28.375,0 -56.752,-5.789 -85.357,-17.961 6.445,-43.976 -4.732,-97.027 -4.38,-142.858 17.872,5.585 42.542,10.789 89.737,10.789 C -42.541,10.789 -17.873,5.585 0,0" /></g><g
           transform="translate(396.2354,301.459)"
           id="g36"><path
             id="path38"
             style="fill:#ffffff;fill-opacity:1;fill-rule:nonzero;stroke:none"
             d="M 0,0 -0.372,0.648 -4.452,7.779 -5.059,8.838 -6.212,8.44 -7.636,7.95 -7.723,7.92 c -0.04,0.472 -0.236,0.93 -0.58,1.361 -0.379,0.478 -0.972,0.955 -1.771,1.44 l -0.06,0.035 -0.059,0.029 c -0.887,0.427 -1.737,0.981 -2.551,1.637 -0.833,0.672 -1.648,1.471 -2.444,2.364 l -0.183,0.205 0.005,-0.036 c -0.606,0.502 -0.971,0.604 -1.174,0.608 0.024,0.047 0.053,0.106 0.083,0.179 0.397,0.948 1.667,1.965 3.413,3.027 0.516,0.043 1.041,0.057 1.568,0.057 0.485,0 0.973,-0.012 1.46,-0.023 0.554,-0.014 1.108,-0.029 1.662,-0.029 1.877,10e-4 3.745,0.163 5.513,1.05 0.898,-0.049 1.711,-0.07 2.457,-0.07 1.87,0 3.316,0.13 4.622,0.246 1.011,0.091 1.933,0.172 2.906,0.172 0.683,0 1.392,-0.04 2.176,-0.148 L 9.37,20.018 C 9.603,19.96 9.792,19.753 9.97,19.55 l 0.051,-0.06 0.002,0.002 c 0.57,-0.65 1.126,-1.253 2.134,-1.252 0.733,0.001 1.688,0.315 3.057,1.119 2.262,1.085 4.049,1.813 5.76,2.135 0.682,0.13 1.369,0.195 2.083,0.195 0.651,0 1.326,-0.054 2.045,-0.165 0.03,-0.92 0.26,-1.847 0.696,-2.783 0.606,-1.295 1.609,-2.595 3.006,-3.894 0.258,-0.349 0.427,-0.687 0.458,-0.973 l -0.002,0.004 v -0.083 h 0.004 c 0,-0.208 -0.079,-0.447 -0.276,-0.719 L 21.826,6.943 21.494,6.612 21.474,6.593 21.402,6.101 C 21.312,5.422 20.544,4.697 19.729,3.949 18.593,2.901 17.386,1.788 16.915,0.017 L 16.876,-0.131 C 12.708,-0.037 8.345,0.012 3.766,0.012 2.493,0.012 1.24,0.008 0,0 m -28.564,1.853 0.007,0.043 0.088,0.018 -0.006,-0.003 c 0.497,0.112 0.91,0.392 1.249,0.829 0.318,0.41 0.59,1.004 0.822,1.78 0.448,1.314 0.984,2.556 1.591,3.718 0.354,0.679 0.744,1.338 1.159,1.986 0.264,-0.214 0.534,-0.424 0.811,-0.631 0.113,-0.085 0.229,-0.124 0.341,-0.124 0.506,0.025 0.84,0.705 1.238,0.681 0.078,0 0.16,-0.02 0.255,-0.079 0.885,-0.851 1.555,-1.958 2.222,-3.061 1.622,-2.685 3.257,-5.371 7.892,-6.07 0.556,-0.401 1.132,-0.752 1.723,-1.067 -7.302,-0.162 -14,-0.459 -20.168,-0.87 0.343,0.825 0.596,1.826 0.776,2.85 m 0.052,16.76 0.019,0.273 c 0.864,1.507 1.298,3.04 1.298,4.588 0,0.183 -0.006,0.367 -0.018,0.55 -0.021,0.323 -0.061,0.646 -0.12,0.966 0.266,0.031 0.585,0.071 0.89,0.114 l -0.006,-10e-4 c 0.294,0.04 0.574,0.076 0.825,0.12 0.101,-0.119 0.187,-0.245 0.261,-0.381 l 0.029,-0.055 h 0.001 c 0.113,-0.23 0.194,-0.5 0.226,-0.813 -1.157,-2.093 -2.247,-4.301 -3.333,-6.511 -0.039,0.218 -0.063,0.442 -0.072,0.674 -0.004,0.087 -0.005,0.172 -0.005,0.255 0,0.076 0.002,0.151 0.005,0.221 M 30.347,2.022 c 1.319,4.729 3.066,5.302 6.004,7.305 h 0.003 l 0.022,0.015 c 1.897,1.299 4.193,2.204 5.508,4.022 l 0.279,0.382 c 0.341,0.773 0.52,1.473 0.52,2.158 0,0.746 -0.213,1.47 -0.655,2.216 l -0.243,0.33 c 3.856,-1.807 6.238,-1.902 8.046,-1.969 1.047,-0.039 1.834,-0.075 2.582,-0.569 1.003,-1.543 1.826,-3.237 2.425,-5.079 l 0.018,-0.057 h 0.006 C 55.474,8.879 55.843,6.819 55.943,4.592 L 55.954,4.393 56.018,4.19 56.31,3.321 C 55.608,2.666 55.026,1.919 54.538,1.099 53.901,0.026 53.425,-1.176 53.052,-2.451 45.67,-1.599 37.384,-0.928 27.976,-0.502 l 0.415,1.363 0.006,0.021 1.29,-1.237 z m 64.195,127.679 c -1.808,0.82 -3.613,1.611 -5.42,2.38 -6.443,-43.978 4.723,-97.023 4.371,-142.855 -8.281,2.587 -18.024,5.092 -30.787,7.036 l 0.053,0.121 1.072,2.43 0.199,0.452 0.012,0.028 -0.141,0.51 c -0.065,0.236 -0.115,0.456 -0.15,0.66 l 1.238,-0.59 0.651,1.289 c 0.513,1.024 0.737,1.919 0.737,2.791 -10e-4,1.577 -0.72,3.062 -1.699,5.095 -1.24,2.567 -2.98,6.178 -4.12,12.353 -0.004,0.142 -0.016,0.287 -0.026,0.411 -0.101,1.133 -0.459,2.03 -1.075,2.671 -0.655,0.682 -1.52,1.019 -2.579,1.019 -0.031,0 -0.065,-10e-4 -0.095,-10e-4 h -0.054 l -0.115,-0.006 c -2.089,0.385 -3.653,1.404 -4.613,2.754 -0.746,1.052 -1.136,2.319 -1.136,3.664 0,0.366 0.031,0.738 0.088,1.113 0.948,2.257 1.396,4.384 1.396,6.378 0,0.65 -0.046,1.284 -0.139,1.907 -0.275,1.834 -0.939,3.527 -1.942,5.101 4.157,1.043 7.17,2.729 9.067,4.841 1.641,1.824 2.452,3.938 2.452,6.203 0,0.587 -0.054,1.184 -0.161,1.788 -0.039,0.221 -0.091,0.441 -0.139,0.641 l -0.035,0.143 -0.064,0.142 c -1.731,3.683 -5.178,5.368 -9.387,5.857 -0.93,0.11 -1.896,0.159 -2.889,0.159 -2.918,-0.001 -6.074,-0.425 -9.198,-1.035 -2.032,2.429 -4.755,2.824 -7.311,3.193 -2.512,0.368 -4.78,0.686 -5.358,3.801 l -1.005,5.433 -1.841,-5.203 c -0.63,-1.775 -0.924,-3.437 -0.924,-4.945 0,-0.651 0.055,-1.272 0.161,-1.862 0.356,-1.955 1.279,-3.574 2.66,-4.743 1.353,-1.144 3.132,-1.833 5.219,-1.96 0.234,-0.014 0.476,-0.022 0.72,-0.022 2.169,0 4.657,0.578 7.34,1.838 l 0.981,0.137 H 40.55 c 2.113,0.314 4.864,0.72 7.466,0.719 3.411,10e-4 6.539,-0.702 7.643,-3.18 v -0.025 c 0,-0.503 -0.037,-0.97 -0.106,-1.399 -0.258,-1.642 -1.001,-2.75 -2.052,-3.456 -1.134,-0.76 -2.662,-1.114 -4.371,-1.158 -0.127,-0.003 -0.255,-0.004 -0.381,-0.004 -0.936,0 -1.918,0.086 -2.914,0.244 -2.613,0.409 -5.002,1.179 -7.012,1.827 l -0.08,0.025 -0.002,-0.005 c -2.014,0.65 -3.685,1.183 -5.104,1.184 -0.208,0 -0.411,-0.013 -0.609,-0.037 -2.976,0.526 -6.015,0.683 -9.078,0.683 -2.287,0 -4.586,-0.088 -6.894,-0.176 -2.289,-0.087 -4.587,-0.174 -6.877,-0.174 -3.531,0 -7.044,0.208 -10.48,0.947 -0.966,0.413 -1.989,0.945 -3.017,1.479 -2.874,1.49 -5.799,3.01 -9.309,3.01 -2.64,0 -5.606,-0.862 -9.114,-3.233 -5.027,-1.021 -9.85,-3.637 -14.283,-8.261 -4.423,-4.614 -8.457,-11.239 -11.954,-20.303 -0.854,-1.615 -1.392,-3.192 -1.41,-4.687 v -0.073 c -0.001,-1.194 0.321,-2.308 1.037,-3.302 -0.693,-0.697 -1.468,-1.374 -2.295,-2.041 l -0.062,-0.049 0.002,-0.004 c -1.207,-0.968 -2.539,-1.912 -3.922,-2.845 l -4.429,-2.986 5.331,0.285 c 1.96,0.105 3.842,0.47 5.639,1.09 1.43,0.494 2.808,1.15 4.119,1.966 0.702,-0.741 1.25,-1.535 1.764,-2.279 l 0.056,-0.081 0.002,0.002 c 0.678,-0.983 1.318,-1.893 2.233,-2.625 0.216,-0.597 0.443,-1.157 0.698,-1.688 l 0.036,-0.076 0.003,0.002 c 0.322,-0.662 0.682,-1.257 1.102,-1.77 l 0.897,-1.093 1.127,0.84 V 8.11 c 0.041,0.017 0.215,0.053 0.382,0.085 0.806,0.159 1.678,0.336 2.317,1.355 0.341,0.111 0.689,0.227 1.022,0.387 -1.147,-1.999 -2.39,-3.916 -3.812,-5.693 -0.799,-0.798 -1.454,-1.634 -1.946,-2.504 -0.528,-0.928 -0.877,-1.886 -1.041,-2.869 l -0.111,-0.663 c -21.091,-1.998 -35.296,-5.412 -46.722,-8.982 -0.353,45.832 10.815,98.877 4.37,142.855 -1.805,-0.769 -3.612,-1.56 -5.419,-2.38 5.569,-67.974 -13.129,-138.639 4.26,-191.146 13.564,-40.959 43.288,-70.976 86.516,-91.28 43.227,20.304 72.952,50.321 86.516,91.28 17.389,52.507 -1.308,123.172 4.26,191.146" /></g><g
           transform="translate(354.5337,256.2432)"
           id="g40"><path
             id="path42"
             style="fill:#005221;fill-opacity:1;fill-rule:nonzero;stroke:none"
             d="M 0,0 22.733,22.273 1.243,43.306 H 1.242 L -22.733,22.274 Z" /></g><g
           transform="translate(331.8003,278.5176)"
           id="g44"><path
             id="path46"
             style="fill:#005221;fill-opacity:1;fill-rule:nonzero;stroke:none"
             d="m 0,0 -14.646,14.187 h -10e-4 l -6.809,-6.599 c 0.232,-9.096 0.97,-17.877 2.444,-26.216 z" /></g><g
           transform="translate(354.5347,211.6943)"
           id="g48"><path
             id="path50"
             style="fill:#005221;fill-opacity:1;fill-rule:nonzero;stroke:none"
             d="M 0,0 22.732,22.275 -0.001,44.549 -22.734,22.274 Z" /></g><g
           transform="translate(354.5347,211.6943)"
           id="g52"><path
             id="path54"
             style="fill:#005221;fill-opacity:1;fill-rule:nonzero;stroke:none"
             d="m 0,0 -14.216,-13.928 c 6.174,-8.573 13.214,-16.483 21.277,-23.702 l 15.671,15.356 z" /></g><g
           transform="translate(314.7896,250.6357)"
           id="g56"><path
             id="path58"
             style="fill:#005221;fill-opacity:1;fill-rule:nonzero;stroke:none"
             d="m 0,0 c 0.868,-3.354 1.873,-6.626 3.051,-9.796 1.865,-5.019 3.876,-9.894 6.048,-14.623 l 7.912,7.752 z" /></g><g
           transform="translate(445.4687,256.2432)"
           id="g60"><path
             id="path62"
             style="fill:#005221;fill-opacity:1;fill-rule:nonzero;stroke:none"
             d="M 0,0 22.733,22.274 -1.242,43.306 h -0.002 l -21.49,-21.033 z" /></g><g
           transform="translate(487.2139,259.8896)"
           id="g64"><path
             id="path66"
             style="fill:#005221;fill-opacity:1;fill-rule:nonzero;stroke:none"
             d="m 0,0 c 1.475,8.339 2.212,17.12 2.444,26.216 l -6.808,6.598 H -4.366 L -19.012,18.628 Z" /></g><g
           transform="translate(422.7344,233.9697)"
           id="g68"><path
             id="path70"
             style="fill:#005221;fill-opacity:1;fill-rule:nonzero;stroke:none"
             d="M 0,0 22.733,-22.275 45.468,-0.001 22.734,22.273 Z" /></g><g
           transform="translate(422.7344,189.4199)"
           id="g72"><path
             id="path74"
             style="fill:#005221;fill-opacity:1;fill-rule:nonzero;stroke:none"
             d="m 0,0 15.673,-15.355 c 8.063,7.218 15.102,15.128 21.276,23.702 L 22.733,22.274 Z" /></g><g
           transform="translate(485.2129,250.6367)"
           id="g76"><path
             id="path78"
             style="fill:#005221;fill-opacity:1;fill-rule:nonzero;stroke:none"
             d="m 0,0 -17.011,-16.668 7.912,-7.752 c 2.172,4.729 4.183,9.604 6.048,14.623 C -1.873,-6.627 -0.867,-3.354 0,0" /></g><g
           transform="translate(400.0015,300.792)"
           id="g80"><path
             id="path82"
             style="fill:#005221;fill-opacity:1;fill-rule:nonzero;stroke:none"
             d="m 0,0 -22.734,-22.274 22.733,-22.275 22.734,22.274 z" /></g><g
           transform="translate(400.0005,256.2432)"
           id="g84"><path
             id="path86"
             style="fill:#005221;fill-opacity:1;fill-rule:nonzero;stroke:none"
             d="M 0,0 -22.733,-22.274 0.001,-44.549 22.734,-22.273 Z" /></g><g
           transform="translate(400.0015,211.6943)"
           id="g88"><path
             id="path90"
             style="fill:#005221;fill-opacity:1;fill-rule:nonzero;stroke:none"
             d="m 0,0 -22.734,-22.273 22.733,-22.276 22.734,22.275 z" /></g><g
           transform="translate(387.7939,155.1855)"
           id="g92"><path
             id="path94"
             style="fill:#005221;fill-opacity:1;fill-rule:nonzero;stroke:none"
             d="m 0,0 c 3.897,-2.254 7.958,-4.407 12.208,-6.451 4.248,2.044 8.31,4.197 12.206,6.45 L 12.207,11.96 Z" /></g><g
           transform="translate(422.0273,373.3408)"
           id="g96"><path
             id="path98"
             style="fill:#000000;fill-opacity:1;fill-rule:nonzero;stroke:none"
             d="m 0,0 c 1.41,-7.633 9.734,-2.622 13.492,-8.361 8.719,1.8 17.813,2.298 20.768,-3.982 1.342,-5.583 -2.618,-10.424 -12.348,-12.165 3.276,-3.781 4.236,-8.317 1.813,-13.958 -0.768,-4.382 1.83,-8.543 7.041,-9.407 1.64,0.145 2.482,-0.773 2.524,-2.753 2.406,-13.185 7.44,-15.065 5.238,-19.428 l -1.403,0.669 c -0.715,0.023 -0.941,-1.274 -0.441,-3.087 l -1.233,-3.233 -6.785,0.925 c 0.686,2.351 1.733,4.389 3.574,5.74 l -0.609,1.815 c -0.216,4.758 -1.599,8.824 -3.949,12.314 -2.665,2.032 -4.617,-0.351 -11.528,3.04 -1.161,0.722 -1.34,1.914 -2.008,2.872 -1.991,-0.989 -1.507,-2.368 0.638,-5.284 0.749,-1.096 0.784,-2.219 0.111,-3.368 C 11.729,-62.025 5.428,-61.2 3.133,-69.465 l -1.645,1.576 -0.679,-2.05 0.373,-0.651 -0.546,-1.796 -8.083,0.142 c 0.724,2.729 4.166,3.822 4.519,6.252 l 7.233,6.206 c 1.035,1.321 0.726,2.553 -0.191,3.743 -2.62,2.406 -3.694,4.703 -3.224,6.891 -4.543,1.022 -7.365,0.242 -12.152,-2.059 -3.726,-2.218 -2.791,0.497 -5.009,0.82 -4.168,0.571 -6.23,-0.583 -12.69,-0.166 -3.064,-1.753 -6.894,-0.74 -10.34,-1.111 -4.276,-2.543 -6.711,-3.141 -2.785,-6.409 1.685,-1.893 3.486,-3.402 5.457,-4.351 2.001,-1.209 2.175,-2.115 0.524,-2.718 1.173,-0.878 2.226,-0.938 3.157,-0.184 l 1.424,0.491 4.08,-7.13 c -3.343,-0.406 -6.177,0.551 -8.667,2.44 -6.333,0.775 -6.486,5.826 -9.778,8.892 -1.52,0.91 -2.595,0.012 -3.84,1.189 -1.613,-2.211 -2.923,-4.674 -3.866,-7.442 -0.541,-1.854 -1.189,-2.142 -1.946,-0.867 -0.214,-2.215 -0.751,-4.553 -1.616,-5.124 l -6.142,-0.371 c 0.273,1.628 0.992,3.175 2.482,4.645 4.859,6.047 7.607,13.561 11.409,20.341 0.005,1.534 -0.653,2.518 -1.614,3.252 -0.674,-0.368 -3.291,-0.295 -3.837,-1.074 0.729,-2.161 0.442,-4.305 -0.864,-6.432 -0.182,-1.504 0.034,-2.847 0.671,-3.961 l -1.176,-1.395 c -1.258,0.648 -0.718,2.335 -1.456,3.585 -1.63,-1.046 0.676,-3.845 -0.358,-5.667 -0.384,-0.711 -1.356,-0.865 -2.141,-1.162 -0.561,-1.379 -1.762,-0.884 -2.537,-1.463 -0.726,0.886 -1.243,2.079 -1.74,3.512 -1.909,1.293 -2.622,3.833 -5.144,5.947 -3.008,-2.11 -6.339,-3.263 -9.992,-3.458 2.872,1.936 5.538,3.936 7.464,6.159 -2.24,1.921 -1.855,4.542 -0.279,7.481 6.86,17.82 15.739,25.901 25.485,27.771 9.354,6.453 14.509,1.159 20.429,-1.308 11.21,-2.442 22.918,0.622 33.724,-1.343 2.332,0.464 6.755,-2.047 12.587,-2.963 6.016,-0.945 11.712,0.488 11.524,7.579 -2.405,6.231 -12.979,4.13 -17.998,3.429 C 3.399,-14.556 -3.26,-9.216 0,0" /></g><g
           transform="translate(355.4873,322.7627)"
           id="g100"><path
             id="path102"
             style="fill:#ffffff;fill-opacity:1;fill-rule:nonzero;stroke:none"
             d="M 0,0 C 0.13,-0.912 -1.105,-2.333 0.389,-2.738 0.645,-3.534 1.16,-4.146 1.816,-4.732 1.144,-3.495 0.855,-2.398 1.413,-1.609 0.792,-1.339 0.471,-0.536 0,0" /></g><g
           transform="translate(350.9961,324.0869)"
           id="g104"><path
             id="path106"
             style="fill:#ffffff;fill-opacity:1;fill-rule:nonzero;stroke:none"
             d="m 0,0 c -1.975,3.047 3.577,4.313 3.013,0.303 -0.577,-2.922 -3.302,-5.05 -8.47,-6.434 4.153,2.815 6.872,5.818 6.499,7.023 C 0.866,1.816 -0.425,1.134 0,0" /></g><g
           transform="translate(367.1445,327.1689)"
           id="g108"><path
             id="path110"
             style="fill:#ffffff;fill-opacity:1;fill-rule:nonzero;stroke:none"
             d="M 0,0 C -0.572,5.452 -1.881,4.767 -6.171,8.007 -3.589,7.352 -1.584,7.106 -1.156,5.814 -0.743,4.569 0.833,3.271 0,0" /></g><g
           transform="translate(371.9824,346.8965)"
           id="g112"><path
             id="path114"
             style="fill:#ffffff;fill-opacity:1;fill-rule:nonzero;stroke:none"
             d="M 0,0 C 0.544,3.463 1.027,7.641 3.097,9.786 -6.746,7.835 -11.06,2.268 -14.771,-3.676 -10.232,2.299 -6.521,5.83 -0.523,6.866 -1.796,4.367 -0.284,2.266 0,0" /></g><g
           transform="translate(408.7852,196.6113)"
           id="g116"><path
             id="path118"
             style="fill:#000000;fill-opacity:1;fill-rule:nonzero;stroke:none"
             d="M 0,0 1.085,0.93 -1.299,3.724 -4.296,1.868 -4.207,1.725 c 0.535,-0.871 0.998,-1.72 1.402,-2.549 l -0.055,-0.027 0.096,-0.221 0.139,-0.32 0.107,-0.244 0.071,0.036 c 1.072,-2.4 1.602,-4.595 1.601,-6.478 -0.015,-4.397 -2.751,-7.134 -7.937,-7.151 -5.189,0.017 -7.924,2.755 -7.941,7.152 0,1.883 0.53,4.078 1.603,6.478 l 0.073,-0.037 0.107,0.244 0.139,0.32 0.096,0.221 -0.058,0.028 c 0.405,0.828 0.868,1.677 1.404,2.548 L -13.271,1.87 -16.27,3.724 -18.652,0.93 -17.566,0 c -2.223,-3.572 -3.164,-6.791 -3.164,-9.572 0,-6.916 5.829,-11.009 11.947,-11.021 6.115,0.012 11.945,4.106 11.945,11.021 C 3.162,-6.792 2.221,-3.573 0,0" /></g><g
           transform="translate(393.8633,183.0693)"
           id="g120"><path
             id="path122"
             style="fill:#ffffff;fill-opacity:1;fill-rule:nonzero;stroke:none"
             d="m 0,0 c 1.41,-1.308 3.484,-2.028 6.139,-2.027 2.653,-10e-4 4.726,0.719 6.136,2.026 1.412,1.307 2.142,3.191 2.141,5.465 -0.001,1.949 -0.545,4.193 -1.638,6.632 l 1.095,0.557 c 0.119,-0.193 0.229,-0.383 0.34,-0.575 l -0.697,-0.286 1.306,-3.076 0.83,0.342 C 15.996,8.13 16.242,7.224 16.387,6.344 16.421,6.135 16.445,5.927 16.469,5.721 H 15.535 V 2.387 h 0.84 C 16.27,1.782 16.123,1.187 15.924,0.604 15.67,-0.065 15.341,-0.656 14.962,-1.183 l -0.558,0.646 -2.578,-2.16 0.545,-0.631 C 12.025,-3.483 11.672,-3.617 11.306,-3.706 10.919,-3.799 10.52,-3.856 10.114,-3.872 9.712,-3.89 9.301,-3.867 8.889,-3.806 8.617,-3.712 8.398,-3.594 8.183,-3.476 7.695,-3.208 7.193,-2.887 6.139,-2.887 5.084,-2.887 4.583,-3.208 4.095,-3.476 3.878,-3.594 3.66,-3.712 3.389,-3.806 2.977,-3.867 2.565,-3.89 2.164,-3.872 c -0.406,0.016 -0.805,0.073 -1.192,0.166 -0.366,0.089 -0.72,0.223 -1.065,0.378 l 0.545,0.631 -2.578,2.16 -0.559,-0.646 c -0.378,0.527 -0.708,1.118 -0.961,1.787 -0.199,0.583 -0.347,1.178 -0.451,1.783 h 0.839 v 3.334 h -0.934 c 0.024,0.206 0.049,0.414 0.083,0.623 0.144,0.88 0.39,1.786 0.734,2.714 l 0.83,-0.342 1.306,3.076 -0.696,0.286 c 0.111,0.192 0.221,0.382 0.34,0.575 l 1.093,-0.555 C -1.596,9.657 -2.14,7.414 -2.141,5.465 -2.142,3.191 -1.411,1.307 0,0" /></g><g
           transform="translate(400.002,176.3574)"
           id="g124"><path
             id="path126"
             style="fill:#ffffff;fill-opacity:1;fill-rule:nonzero;stroke:none"
             d="m 0,0 c -5.979,0.006 -11.597,3.982 -11.608,10.682 0,2.734 0.937,5.934 3.19,9.517 l 0.077,0.124 -1.052,0.899 1.975,2.315 2.464,-1.525 c -0.505,-0.83 -0.942,-1.641 -1.331,-2.436 l -1.568,0.753 -0.214,0.104 -0.114,-0.209 c -1.092,-1.996 -2.069,-4.026 -2.576,-6.181 -0.512,-2.17 -0.548,-4.468 0.242,-6.981 l 0.005,-0.013 c 0.214,-0.572 0.489,-1.111 0.815,-1.602 0.326,-0.492 0.707,-0.945 1.135,-1.349 v 0.001 c 0.429,-0.406 0.903,-0.763 1.417,-1.064 1.287,-0.754 2.835,-1.176 4.551,-1.172 h 0.044 l 0.04,0.014 c 0.307,0.107 0.582,0.268 0.854,0.426 0.487,0.282 0.975,0.564 1.62,0.475 L 0,2.773 0.035,2.778 C 0.679,2.867 1.168,2.585 1.654,2.303 1.926,2.145 2.201,1.984 2.508,1.877 L 2.548,1.863 H 2.592 C 4.308,1.859 5.855,2.281 7.143,3.035 7.656,3.336 8.132,3.693 8.56,4.099 L 8.561,4.098 c 0.427,0.404 0.808,0.857 1.134,1.349 0.326,0.491 0.601,1.03 0.815,1.602 l 0.005,0.013 c 0.79,2.513 0.754,4.811 0.242,6.981 -0.507,2.155 -1.484,4.185 -2.575,6.181 L 8.067,20.433 7.854,20.329 6.283,19.576 C 5.896,20.37 5.458,21.181 4.954,22.012 l 2.462,1.525 1.975,-2.315 -1.051,-0.9 0.078,-0.123 C 10.67,16.615 11.605,13.415 11.605,10.682 11.596,3.983 5.977,0.006 0,0" /></g><g
           transform="translate(543.8564,203.2002)"
           id="g128"><path
             id="path130"
             style="fill:#000000;fill-opacity:1;fill-rule:nonzero;stroke:none"
             d="m 0,0 c -10.142,10.223 -25.799,13.689 -34.632,15.64 9.907,16.206 7.959,30.924 -0.796,35.397 -2.03,0.757 -4.088,1.489 -6.17,2.199 14.89,58.57 -5.997,78.871 8.867,165.974 -0.028,0.009 -0.061,0.02 -0.09,0.028 -3.951,1.19 -16.505,7.02 -20.222,8.705 -0.012,0.006 -0.024,0.011 -0.036,0.017 -4.895,-59.733 8.948,-121.544 0.577,-171.284 -27.975,8.157 -59.667,12.419 -91.353,12.419 -27.408,0 -54.822,-3.188 -79.831,-9.327 -3.796,1.678 -8.074,1.807 -12.144,0.899 -7.027,49.033 5.962,109.146 1.199,167.293 -0.012,-0.006 -0.024,-0.011 -0.036,-0.017 -3.717,-1.685 -16.272,-7.515 -20.222,-8.705 -0.029,-0.008 -0.062,-0.019 -0.09,-0.028 14.679,-86.023 -5.505,-106.897 8.335,-163.819 -1.304,-1.084 -2.439,-2.269 -3.343,-3.516 -0.768,-0.277 -1.535,-0.555 -2.296,-0.838 -8.755,-4.473 -10.702,-19.191 -0.796,-35.397 -8.832,-1.951 -24.49,-5.417 -34.631,-15.64 8.982,0.615 18.777,-0.659 26.083,-2.639 -11.683,-11.415 -11.798,-14.771 -13.904,-22.712 12.694,7.583 25.463,12.276 46.192,16.08 2.385,0.462 6.268,1.362 9.597,2.706 16.835,-22.483 40.862,-37.445 75.887,-47.901 -34.035,15.986 -59.691,37.998 -75.688,66.625 23.606,6.08 49.611,9.151 75.688,9.151 9.624,0 19.238,-0.423 28.725,-1.255 0.576,-0.471 1.242,-0.869 1.996,-1.184 0.837,-0.35 1.713,-0.567 2.612,-0.699 2.137,-0.351 3.923,-0.525 6.121,-0.187 0.88,0.135 1.755,0.347 2.623,0.609 11.556,-1.514 22.834,-3.658 33.611,-6.434 -15.996,-28.628 -41.653,-50.64 -75.688,-66.626 35.026,10.456 59.051,25.418 75.886,47.901 3.33,-1.344 7.212,-2.244 9.598,-2.706 20.729,-3.804 33.499,-8.497 46.191,-16.08 -2.105,7.941 -2.22,11.297 -13.903,22.712 C -18.777,-0.659 -8.982,0.615 0,0" /></g><g
           transform="translate(485.3721,207.959)"
           id="g132"><path
             id="path134"
             style="fill:#005221;fill-opacity:1;fill-rule:nonzero;stroke:none"
             d="M 0,0 C 3.558,1.409 7.364,1.736 9.095,2.812 L -1.419,6.077 -7.495,-4.892 C -6.104,-2.823 -3.14,-1.242 0,0" /></g><g
           transform="translate(539.0459,205.0244)"
           id="g136"><path
             id="path138"
             style="fill:#005221;fill-opacity:1;fill-rule:nonzero;stroke:none"
             d="m 0,0 c -8.961,7.05 -22.315,10.491 -31.437,12.027 -5.679,-7.362 -11.699,-8.918 -18.052,-9.842 -4.67,-0.887 -9.903,-3.404 -12.209,-5.698 l -1.487,-2.866 c 2.985,-1.483 6.852,-2.007 10.405,-2.899 15.702,-2.853 30.426,-6.868 42.473,-14.244 -3.838,10.418 -9.19,14.71 -14.797,19.864 C -16.92,-0.678 -9.287,0.223 0,0" /></g><g
           transform="translate(322.125,203.0674)"
           id="g140"><path
             id="path142"
             style="fill:#005221;fill-opacity:1;fill-rule:nonzero;stroke:none"
             d="M 0,0 -6.076,10.969 -16.589,7.703 c 1.73,-1.075 5.537,-1.402 9.094,-2.811 C -4.355,3.649 -1.391,2.068 0,0" /></g><g
           transform="translate(310.4463,207.209)"
           id="g144"><path
             id="path146"
             style="fill:#005221;fill-opacity:1;fill-rule:nonzero;stroke:none"
             d="m 0,0 c -6.354,0.925 -12.373,2.48 -18.053,9.843 -9.121,-1.536 -22.475,-4.978 -31.436,-12.028 9.287,0.223 16.919,-0.677 25.104,-3.658 -5.607,-5.153 -10.96,-9.446 -14.798,-19.864 12.047,7.377 26.772,11.392 42.475,14.244 3.552,0.893 7.418,1.416 10.403,2.9 l -1.486,2.866 C 9.901,-3.403 4.67,-0.887 0,0" /></g><g
           transform="translate(311.8418,256.3594)"
           id="g148"><path
             id="path150"
             style="fill:#005221;fill-opacity:1;fill-rule:nonzero;stroke:none"
             d="m 0,0 c -1.77,1.102 -5.637,-0.734 -7.154,-1.689 -1.411,-0.889 -5.009,-3.79 -4.678,-5.747 0.035,-0.203 0.143,-0.391 0.292,-0.564 0.025,0.022 0.435,-0.728 0.459,-0.705 3.424,2.838 6.575,5.192 11.48,6.148 L 0.92,-2.088 C 0.847,-1.292 0.624,-0.388 0,0" /></g><g
           transform="translate(332.8003,247.5039)"
           id="g152"><path
             id="path154"
             style="fill:#005221;fill-opacity:1;fill-rule:nonzero;stroke:none"
             d="M 0,0 C 0.439,-0.256 1.012,-1.258 0.943,-2.021 2.027,-1.04 3.028,1.42 3.329,2.69 2.584,1.788 1.078,0.469 0,0" /></g><g
           transform="translate(426.7539,231.5371)"
           id="g156"><path
             id="path158"
             style="fill:#005221;fill-opacity:1;fill-rule:nonzero;stroke:none"
             d="m 0,0 c 1.802,4.317 6.595,5.508 10.834,5.662 0.428,0.016 0.857,0.022 1.287,0.02 C 11.715,6.147 11.379,6.684 11.123,7.296 9.543,6.754 7.904,6.05 6.535,5.557 0.998,3.563 -4.861,2.649 -8.301,7.341 -9.518,6.632 -10.754,5.984 -12.142,5.48 -15.234,4.359 -18.373,4.245 -21.433,5.573 L -22.417,6 l -0.42,0.988 c -0.379,0.891 -0.526,1.658 -0.516,2.355 l -2.968,-4.669 -11.236,-0.252 0.586,0.816 C -37.511,4.872 -38.028,4.533 -38.568,4.4 -42.521,3.372 -46.567,3.729 -48.56,6.632 -49.111,6.224 -49.676,5.824 -50.275,5.444 -53.329,3.518 -57.091,2.26 -59.97,4.207 -62.355,2.87 -64.748,2.256 -67.771,2.368 l -0.408,0.015 -0.385,0.135 c -1.768,0.621 -3.014,1.682 -3.703,3.093 -1.252,-0.566 -2.472,-1.269 -3.581,-1.904 -3.889,-2.224 -7.914,-4.548 -12.357,-3.889 l -5.465,-8.403 -14.397,-3.445 c 1.616,2.882 3.306,6.101 5.044,9.299 -3.733,-0.393 -5.887,1.622 -6.047,5.254 -0.072,1.619 0.274,3.075 0.823,4.458 -2.61,-3.877 -5.128,-8.317 -6.557,-12.791 l -15.963,-4.763 c 0.912,5.749 4.686,12.69 9.263,18.591 -6.203,-2.189 -13.109,-0.224 -13.613,6.948 -0.029,0.356 -0.031,0.701 -0.031,1.054 -0.182,1.302 -0.032,2.625 0.39,3.927 -13.771,-8.951 0.794,-38.468 11.72,-39.908 22.807,10.047 59.317,15.799 96.286,15.799 8.949,0 17.87,-0.34 26.578,-0.993 -0.238,0.732 -0.371,1.526 -0.381,2.381 0,0.959 0.182,1.902 0.555,2.774" /></g><g
           transform="translate(388.7207,244.9795)"
           id="g160"><path
             id="path162"
             style="fill:#005221;fill-opacity:1;fill-rule:nonzero;stroke:none"
             d="M 0,0 C 2.258,0.231 4.323,1.934 5.718,4.125 5.25,3.987 4.727,3.901 4.109,3.881 1.805,3.503 0.261,1.909 0,0" /></g><g
           transform="translate(507.2207,251.959)"
           id="g164"><path
             id="path166"
             style="fill:#005221;fill-opacity:1;fill-rule:nonzero;stroke:none"
             d="m 0,0 c -31.447,11.241 -69.343,17.146 -107.219,17.146 -19.77,0 -39.542,-1.612 -58.402,-4.749 l 2.198,-0.261 c -1.184,-4.005 -2.423,-7.789 -4.934,-11.222 4.864,1.542 13.004,3.068 16.54,-1.433 0.774,-0.984 1.185,-2.071 1.333,-3.199 1.252,1.375 2.484,2.761 3.856,4.045 2.435,2.28 5.192,4.183 8.497,4.904 3.835,0.838 7.126,-1.095 10.962,0.123 l 4.893,1.554 -0.956,-3.119 c 4.307,3.208 9.627,4.27 14.323,-0.319 l 0.277,-0.27 c 0.416,0.677 0.814,1.318 1.195,1.898 l 0.801,1.049 h 10.89 c -1.096,-2.027 1.191,-1.44 1.933,0 h 11.128 l -1.202,-3.512 c -0.009,-0.032 -0.02,-0.063 -0.031,-0.093 2.872,2.541 6.148,4.231 10.289,3.598 l 0.042,-0.008 0.043,-0.007 c 0.501,-0.094 0.995,-0.231 1.473,-0.409 2.768,-1.031 4.907,-3.365 5.778,-6.179 0.098,-0.316 0.179,-0.633 0.242,-0.951 1.117,1.044 2.276,2.025 3.574,2.903 6.635,4.479 13.702,3.923 20.729,0.573 l 2.332,-1.114 -1.016,-2.376 c -0.082,-0.192 -0.168,-0.383 -0.256,-0.57 2.608,2.485 5.44,3.724 9.91,3.081 3.809,-0.336 6.862,-2.994 10.792,-2.811 l 3.998,0.188 -0.36,-1.021 1.078,-0.1 c 4.331,-0.405 9.318,-1.487 12.798,-4.261 2.605,-2.074 4.183,-5.015 3.868,-8.393 -0.377,-4.088 -3.405,-7.488 -7.113,-9.016 -3.777,-1.559 -7.751,-1.107 -11.191,0.762 -2.012,-2.357 -4.477,-5.743 -6.125,-8.353 l -12.43,3.625 5.109,7.058 c -1.84,0.061 -3.513,0.614 -4.615,1.873 -1.004,-0.238 -2.036,-0.378 -2.998,-0.422 -1.299,-0.062 -2.553,0.062 -3.69,0.376 0.567,-0.925 1.135,-1.849 1.705,-2.772 l 1.773,-2.869 -3.19,-1.093 c -4.473,-1.532 -9.656,0.376 -14.219,1.246 -0.875,-0.696 -1.662,-1.489 -2.627,-2.133 l -0.083,-0.056 -0.087,-0.049 c -0.412,-0.234 -0.834,-0.463 -1.26,-0.689 18.971,-2.678 35.977,-6.947 48.71,-12.556 C 0.192,-38.915 15.097,-8.33 0,0" /></g><g
           transform="translate(435.2686,228.6611)"
           id="g168"><path
             id="path170"
             style="fill:#005221;fill-opacity:1;fill-rule:nonzero;stroke:none"
             d="M 0,0 C 1.224,-0.171 2.355,0.174 3.386,0.788 1.981,0.792 0.702,0.603 0.016,0.013 0.011,0.009 0.005,0.004 0,0" /></g><g
           transform="translate(325.6328,253.4443)"
           id="g172"><path
             id="path174"
             style="fill:#005221;fill-opacity:1;fill-rule:nonzero;stroke:none"
             d="M 0,0 C 2.584,2.4 4.489,5.336 5.528,9.002 2.994,8.494 0.48,7.959 -2.011,7.396 -0.241,5.168 0.259,2.593 0,0" /></g><g
           transform="translate(362.8223,241.3174)"
           id="g176"><path
             id="path178"
             style="fill:#ffffff;fill-opacity:1;fill-rule:nonzero;stroke:none"
             d="M 0,0 C 4.229,-0.982 12.023,9.624 8.701,10.252 4.245,10.587 -2.001,1.085 0,0 m 83.424,0.403 c 3.877,-2.239 11.551,7.569 8.723,8.535 -3.776,0.566 -9.97,-6.919 -8.723,-8.535 m 23.049,-2.719 c 3.745,-2.288 11.539,7.098 8.722,7.908 -3.546,0.825 -10.355,-6.289 -8.722,-7.908 M -23.209,-3.824 c 3.682,-0.97 12.198,9.909 6.566,10.07 -3.159,-0.12 -8.571,-8.912 -6.566,-10.07 m 152.088,-4.16 c 3.432,-1.907 11.064,7.337 6.909,8.053 -3.112,0.452 -8.44,-6.207 -6.909,-8.053 m -35.744,3.108 c -1.078,-1.46 -2.181,-2.838 -3.306,-4.145 3.237,-1 6.198,-0.111 8.7,1.955 1.217,-1.961 2.411,-3.923 3.627,-5.892 -3.88,-1.327 -10.123,0.953 -14.004,1.545 -1.606,-1.043 -2.019,-1.774 -3.464,-2.741 -7.348,-4.159 -10.629,-3.644 -13.776,-3.129 -0.711,0.103 -1.377,0.271 -1.973,0.521 -1.882,0.786 -2.847,2.191 -2.87,4.215 0,0.612 0.115,1.189 0.344,1.725 1.033,2.475 3.857,3.845 8.448,4.012 2.548,0.092 5.487,-0.174 8.792,-0.764 0.643,0.814 1.425,1.872 2.366,3.172 l -1.976,0.327 c -4.086,-0.077 -7.001,0.987 -6.84,4.945 -6.06,-1.002 -16.941,-8.89 -20.547,0.445 -3.167,-1.898 -7.978,-5.632 -13.084,-3.053 -1.37,1.534 0.871,3.255 2.043,6.252 -3.03,-0.216 -5.043,0.057 -6.772,-2.663 l -2.732,-4.299 -7.639,-0.089 1.573,2.252 C 25.91,-2.888 17.057,-6.029 16.804,1.287 14.233,-0.521 7.461,-6.886 4.34,-2.142 2.296,-3.596 0.046,-4.862 -3.741,-4.723 c -1.446,0.508 -2.755,1.509 -2.503,4.098 -6.589,-1.398 -12.626,-8.723 -19.283,-6.247 l -5.955,-9.617 -7.943,-1.726 6.414,10.828 c -2.02,-1.259 -6.244,-3.247 -8.724,-2.205 -2.134,3.667 1.01,7.957 2.503,10.762 -0.436,1.724 -2.479,1.542 -4.981,0.834 -3.33,-4.473 -5.839,-10.334 -8.318,-15.454 -3.122,-0.674 -8.046,-2.565 -11.168,-3.281 2.157,8.144 16.341,19.763 16.364,28.903 0.022,15.016 -27.388,-2.789 -14.945,-8.492 3.214,2.705 5.807,5.807 11.822,6.517 -1.492,-10.676 -17.401,-13.953 -18.043,-4.8 -0.024,0.286 -0.024,0.571 -0.024,0.849 -0.022,7.198 6.589,12.456 13.453,14.321 h 0.046 c 9.779,2.496 20.109,-2.101 12.672,-15.183 7.116,3.624 12.075,8.846 13.705,16.726 l 6.221,-1.348 c -1.86,-6.294 -5.602,-11.011 -11.203,-14.231 2.916,-1.731 2.709,-5.62 0.62,-9.035 4.407,0.328 7.116,7.129 9.343,11.323 9.825,3.284 19.031,2.025 13.063,-8.715 5.685,0.645 7.017,11.366 17.447,13.138 4.382,0.883 6.496,-1.305 11.202,0.189 -1.4,-4.57 -4.867,-7.164 -6.221,-11.788 1.584,-0.723 3.726,1.708 5.051,3.498 2.57,5.097 10.35,13.889 16.892,7.497 C 32.626,11.682 31.45,10.47 30.522,9.693 26.183,13.328 19.136,2.92 23.646,1.036 30.68,0.376 35.537,8.68 39.21,14.259 l 6.979,-0.029 c -0.276,-0.554 -2.341,-5.355 -3.811,-5.78 0.391,-0.138 3.886,0.945 5.147,0.404 0.895,-0.383 2.504,3.132 3.6,5.384 l 6.84,-0.092 C 56.061,8.577 52.8,6.21 51.676,2.678 c 5.899,-0.306 9.779,12.805 18.685,11.441 4.84,-0.677 7.646,-6.481 3.72,-11.747 4.43,0.355 10.054,16.178 27.409,7.9 -1.79,-4.186 -4.82,-7.038 -6.84,-11.051 9.367,-0.417 8.31,11.365 18.663,9.828 3.329,-0.257 6.474,-3.047 11.226,-2.824 -1.424,-4.028 -4.889,-5.662 -6.244,-9.814 3.316,-1.641 8.041,4.802 10.584,8.889 25.963,-2.427 10.994,-24.594 -1.859,-14.717 -2.275,-2.436 -4.648,-5.79 -6.507,-8.731 l -7.2,1.88 c 1.791,3.276 4.453,5.536 6.244,8.778 -0.664,0.918 -8.034,-2.636 -8.723,2.072 -3.191,-1.509 -11.248,-2.273 -10.582,3.992 -2.895,-0.02 -5.119,-1.537 -7.186,-3.436 z M 81.794,-9.835 c -5.624,0.953 -9.067,1.017 -11.134,-0.806 -0.573,-0.529 -0.964,-1.057 -1.171,-1.572 -0.528,-1.252 -0.046,-2.212 1.492,-2.873 4.707,-1.39 8.265,2.046 10.813,5.251 M 62.105,0.41 c 3.431,-1.36 10.448,7.863 8.876,9.835 C 67.27,13.641 60.273,2.522 62.105,0.41" /></g><g
           transform="translate(460.2939,403.0264)"
           id="g180"><path
             id="path182"
             style="fill:#ffffff;fill-opacity:1;fill-rule:nonzero;stroke:none"
             d="m 0,0 c -8.188,5.549 -18.815,8.945 -25.665,9.608 -1.689,-3 -3.6,-5.994 -5.266,-9.249 -0.298,-1.906 1.147,-3.666 1.817,-4.116 8.613,-0.889 13.49,-3.045 24.066,-9.957 l -2.348,9.622 z" /></g><g
           transform="translate(400.0015,410.2803)"
           id="g184"><path
             id="path186"
             style="fill:#ffffff;fill-opacity:1;fill-rule:nonzero;stroke:none"
             d="m 0,0 c -12.034,-1.698 -17.145,4.125 -29.279,3.03 0.374,-0.92 0.933,-1.987 1.301,-2.835 0.999,-1.619 1.607,-3.565 1.923,-5.726 l 3.766,-4.504 c 6.319,-2.783 14.063,-4.393 22.289,-4.393 8.226,0 15.969,1.61 22.289,4.393 l 3.766,4.504 c 0.317,2.161 0.924,4.107 1.922,5.726 C 28.346,1.043 28.905,2.11 29.28,3.03 17.145,4.125 12.034,-1.698 0,0" /></g><g
           transform="translate(365.3745,412.6348)"
           id="g188"><path
             id="path190"
             style="fill:#ffffff;fill-opacity:1;fill-rule:nonzero;stroke:none"
             d="m 0,0 c -6.851,-0.663 -17.478,-4.06 -25.666,-9.608 l 7.396,-4.092 -2.347,-9.622 c 10.575,6.912 15.452,9.067 24.065,9.957 0.67,0.45 2.116,2.21 1.817,4.116 C 3.6,-5.994 1.689,-3 0,0" /></g><g
           transform="translate(381.7417,411.707)"
           id="g192"><path
             id="path194"
             style="fill:#000000;fill-opacity:1;fill-rule:nonzero;stroke:none"
             d="M 0,0 C -3.729,0.798 -7.262,1.332 -10.317,0.954 L -10.32,0.953 -10.511,0.928 c -0.066,0.005 -0.121,-0.002 -0.174,-0.011 -2.667,5.9 -4.987,11.91 -6.397,18.206 -0.54,1.354 0.631,2.755 0.316,4.093 -2.427,3.463 -14.942,-2.604 -13.514,-6.571 0.778,-1.724 2.215,-1.329 3.322,-1.993 2.858,-3.612 5.716,-7.224 8.575,-10.837 -3.872,-0.589 -6.322,-2.081 -6.922,-4.746 1.211,0.361 2.388,0.669 3.528,0.934 0,-0.001 0,-0.001 -10e-4,-0.001 1.101,1.275 3.014,1.802 5.368,0.896 l 0.425,-0.731 c -3.221,-0.339 -6.615,-0.942 -10.272,-2.132 -3.746,-1.221 -7.77,-3.056 -12.164,-5.846 l -0.524,-0.332 0.548,-0.289 5.686,-2.987 -2.111,-7.889 -0.242,-0.906 0.784,0.514 c 5.259,3.436 8.743,5.248 11.972,6.305 3.142,1.03 6.078,1.357 10.182,1.781 -1.074,-1.423 -2.989,-2.094 -4.813,-1.388 -1.104,-0.203 -2.164,-0.444 -3.206,-0.735 0.034,-0.046 0.065,-0.093 0.098,-0.138 3.823,-3.642 10.165,-1.185 11.83,2.34 l 5.354,-7.266 c -0.111,-0.643 -0.931,-1.188 -0.335,-1.93 1.374,-1.562 6.643,3.026 5.885,4.484 -0.562,0.472 -1.659,0.49 -2.426,-0.315 l -4.886,5.867 c 3.932,-1.189 7.815,-2.235 11.569,-2.888 1.483,-0.258 2.947,-0.455 4.387,-0.577 C 5.437,-11.776 1.052,-6.449 0,0" /></g><g
           transform="translate(457.2061,403.5645)"
           id="g196"><path
             id="path198"
             style="fill:#000000;fill-opacity:1;fill-rule:nonzero;stroke:none"
             d="m 0,0 -0.523,0.332 c -4.394,2.79 -8.418,4.625 -12.165,5.846 -3.657,1.189 -7.051,1.793 -10.272,2.132 l 0.425,0.731 c 2.354,0.905 4.266,0.379 5.368,-0.896 l -10e-4,0.001 c 1.14,-0.265 2.316,-0.574 3.528,-0.934 -0.6,2.665 -3.05,4.156 -6.922,4.746 2.858,3.612 5.717,7.225 8.575,10.837 1.107,0.664 2.545,0.268 3.322,1.992 1.428,3.968 -11.087,10.034 -13.514,6.571 -0.315,-1.337 0.856,-2.739 0.317,-4.092 -1.411,-6.296 -3.731,-12.306 -6.399,-18.206 -0.052,0.008 -0.107,0.015 -0.173,0.01 l -0.191,0.026 -0.003,10e-4 c -3.056,0.378 -6.589,-0.157 -10.318,-0.954 -1.051,-6.45 -5.437,-11.777 -11.33,-14.161 1.44,0.122 2.904,0.32 4.386,0.578 3.754,0.653 7.639,1.699 11.571,2.887 l -4.887,-5.866 c -0.768,0.805 -1.864,0.786 -2.426,0.315 -0.758,-1.459 4.511,-6.046 5.885,-4.485 0.596,0.742 -0.224,1.287 -0.335,1.931 l 5.353,7.265 c 1.666,-3.524 8.007,-5.981 11.832,-2.339 0.033,0.045 0.064,0.091 0.097,0.137 -1.042,0.291 -2.101,0.533 -3.205,0.736 -1.824,-0.706 -3.74,-0.036 -4.814,1.387 4.103,-0.424 7.04,-0.751 10.182,-1.78 3.23,-1.058 6.713,-2.869 11.972,-6.306 l 0.785,-0.513 -0.243,0.906 -2.11,7.889 5.685,2.987 z" /></g><g
           transform="translate(415.2295,404.1973)"
           id="g200"><path
             id="path202"
             style="fill:#005221;fill-opacity:1;fill-rule:nonzero;stroke:none"
             d="M 0,0 0.868,-0.868 3.913,2.175 2.093,3.994 C 1.558,2.571 0.852,1.231 0,0" /></g><g
           transform="translate(419.1426,406.3721)"
           id="g204"><path
             id="path206"
             style="fill:#005221;fill-opacity:1;fill-rule:nonzero;stroke:none"
             d="M 0,0 3.045,-3.043 6.086,0 3.043,3.042 Z" /></g><g
           transform="translate(425.873,405.7275)"
           id="g208"><path
             id="path210"
             style="fill:#005221;fill-opacity:1;fill-rule:nonzero;stroke:none"
             d="M 0,0 C 0.111,0.584 0.246,1.149 0.407,1.695 L -0.645,0.645 Z" /></g><g
           transform="translate(420.2266,411.374)"
           id="g212"><path
             id="path214"
             style="fill:#005221;fill-opacity:1;fill-rule:nonzero;stroke:none"
             d="M 0,0 1.959,-1.96 4.547,0.628 C 3.098,0.523 1.573,0.297 0,0" /></g><g
           transform="translate(428.4902,411.9492)"
           id="g216"><path
             id="path218"
             style="fill:#005221;fill-opacity:1;fill-rule:nonzero;stroke:none"
             d="m 0,0 c -0.905,0.112 -1.861,0.137 -2.854,0.1 l 1.801,-1.8 c 0.074,0.13 0.144,0.261 0.221,0.387 v 10e-4 l 0.004,0.007 c 0.08,0.173 0.242,0.413 0.414,0.67 0.153,0.227 0.317,0.471 0.416,0.636 L 0,0.001 Z" /></g><g
           transform="translate(413.9648,399.377)"
           id="g220"><path
             id="path222"
             style="fill:#005221;fill-opacity:1;fill-rule:nonzero;stroke:none"
             d="M 0,0 C 1.608,0.351 3.236,0.76 4.877,1.209 L 2.133,3.952 -0.909,0.908 Z" /></g><g
           transform="translate(408.9121,398.4873)"
           id="g224"><path
             id="path226"
             style="fill:#005221;fill-opacity:1;fill-rule:nonzero;stroke:none"
             d="M 0,0 C 0.756,0.098 1.516,0.21 2.283,0.344 2.449,0.372 2.615,0.406 2.781,0.436 L 4.144,1.798 3.473,2.471 C 2.418,1.52 1.254,0.689 0,0" /></g><g
           transform="translate(423.1562,401.8408)"
           id="g228"><path
             id="path230"
             style="fill:#005221;fill-opacity:1;fill-rule:nonzero;stroke:none"
             d="M 0,0 0.236,0.282 -0.969,1.488 -3.48,-1.021 C -2.325,-0.696 -1.164,-0.355 0,0" /></g><g
           transform="translate(444.5781,407.4678)"
           id="g232"><path
             id="path234"
             style="fill:#005221;fill-opacity:1;fill-rule:nonzero;stroke:none"
             d="M 0,0 -3.043,-3.042 0,-6.086 3.044,-3.042 Z" /></g><g
           transform="translate(435.4492,404.4258)"
           id="g236"><path
             id="path238"
             style="fill:#005221;fill-opacity:1;fill-rule:nonzero;stroke:none"
             d="M 0,0 3.044,-3.044 6.086,0 3.043,3.042 Z" /></g><g
           transform="translate(431.4922,406.5547)"
           id="g240"><path
             id="path242"
             style="fill:#005221;fill-opacity:1;fill-rule:nonzero;stroke:none"
             d="M 0,0 C -0.485,-0.845 -0.979,-1.736 -1.51,-2.75 L 0.912,-5.173 3.957,-2.129 0.913,0.913 Z" /></g><g
           transform="translate(449.9863,406.7881)"
           id="g244"><path
             id="path246"
             style="fill:#005221;fill-opacity:1;fill-rule:nonzero;stroke:none"
             d="M 0,0 -2.364,-2.362 0.68,-5.406 3.723,-2.362 2.76,-1.401 C 1.822,-0.891 0.903,-0.427 0,0" /></g><g
           transform="translate(453.9766,404.6934)"
           id="g248"><path
             id="path250"
             style="fill:#005221;fill-opacity:1;fill-rule:nonzero;stroke:none"
             d="m 0,0 -0.268,-0.268 1.239,-1.239 0.826,0.435 C 1.19,-0.694 0.594,-0.341 0,0" /></g><g
           transform="translate(444.2969,409.0596)"
           id="g252"><path
             id="path254"
             style="fill:#005221;fill-opacity:1;fill-rule:nonzero;stroke:none"
             d="m 0,0 c -0.633,0.206 -1.254,0.389 -1.871,0.561 l 2.152,-2.153 1.114,1.113 C 0.926,-0.31 0.46,-0.149 0,0" /></g><g
           transform="translate(441.0156,409.9902)"
           id="g256"><path
             id="path258"
             style="fill:#005221;fill-opacity:1;fill-rule:nonzero;stroke:none"
             d="M 0,0 C -1.764,0.432 -3.468,0.741 -5.122,0.965 L -5.566,0.521 -2.523,-2.522 Z" /></g><g
           transform="translate(434.875,411.084)"
           id="g260"><path
             id="path262"
             style="fill:#005221;fill-opacity:1;fill-rule:nonzero;stroke:none"
             d="m 0,0 c -0.233,0.027 -0.468,0.057 -0.699,0.08 -0.549,-0.968 -1.068,-1.849 -1.57,-2.701 -0.149,-0.252 -0.295,-0.503 -0.442,-0.753 l 0.241,-0.242 3.044,3.043 z" /></g><g
           transform="translate(441.8281,398.6309)"
           id="g264"><path
             id="path266"
             style="fill:#005221;fill-opacity:1;fill-rule:nonzero;stroke:none"
             d="M 0,0 C 1.306,-0.484 2.676,-1.098 4.195,-1.891 L 5.794,-0.292 2.75,2.751 Z" /></g><g
           transform="translate(440.791,398.9941)"
           id="g268"><path
             id="path270"
             style="fill:#005221;fill-opacity:1;fill-rule:nonzero;stroke:none"
             d="M 0,0 C 0.045,-0.015 0.09,-0.031 0.135,-0.046 L -2.298,2.388 -3.736,0.95 C -2.472,0.71 -1.255,0.41 0,0" /></g><g
           transform="translate(433.2871,400.5)"
           id="g272"><path
             id="path274"
             style="fill:#005221;fill-opacity:1;fill-rule:nonzero;stroke:none"
             d="M 0,0 -0.883,0.882 -1.588,0.177 C -1.041,0.118 -0.51,0.061 0,0" /></g><g
           transform="translate(450.666,395.2959)"
           id="g276"><path
             id="path278"
             style="fill:#005221;fill-opacity:1;fill-rule:nonzero;stroke:none"
             d="M 0,0 0.709,0.71 -0.461,5.084 -0.535,5.36 -0.281,5.493 0.292,5.794 0,6.086 -3.044,3.043 Z" /></g><g
           transform="translate(452.1484,393.1182)"
           id="g280"><path
             id="path282"
             style="fill:#005221;fill-opacity:1;fill-rule:nonzero;stroke:none"
             d="M 0,0 -0.254,0.949 -1.482,2.178 -2.25,1.412 C -1.535,0.976 -0.789,0.509 0,0" /></g><g
           transform="translate(382.6797,408.1914)"
           id="g284"><path
             id="path286"
             style="fill:#005221;fill-opacity:1;fill-rule:nonzero;stroke:none"
             d="m 0,0 -1.82,-1.819 3.045,-3.043 0.868,0.868 C 1.242,-2.763 0.536,-1.424 0,0" /></g><g
           transform="translate(374.7739,406.3721)"
           id="g288"><path
             id="path290"
             style="fill:#005221;fill-opacity:1;fill-rule:nonzero;stroke:none"
             d="M 0,0 3.042,-3.043 6.086,0 3.043,3.042 Z" /></g><g
           transform="translate(374.1299,405.7275)"
           id="g292"><path
             id="path294"
             style="fill:#005221;fill-opacity:1;fill-rule:nonzero;stroke:none"
             d="m 0,0 0.644,0.645 -1.052,1.05 C -0.247,1.149 -0.112,0.584 0,0" /></g><g
           transform="translate(375.229,412.002)"
           id="g296"><path
             id="path298"
             style="fill:#005221;fill-opacity:1;fill-rule:nonzero;stroke:none"
             d="m 0,0 2.588,-2.588 1.959,1.96 C 2.973,-0.331 1.45,-0.104 0,0" /></g><g
           transform="translate(371.5117,411.9492)"
           id="g300"><path
             id="path302"
             style="fill:#005221;fill-opacity:1;fill-rule:nonzero;stroke:none"
             d="m 0,0 v 0.001 h -0.001 c 0.098,-0.165 0.263,-0.409 0.416,-0.636 0.171,-0.257 0.334,-0.497 0.414,-0.67 L 0.833,-1.312 V -1.313 C 0.911,-1.439 0.98,-1.57 1.053,-1.7 L 2.854,0.1 C 1.861,0.137 0.906,0.112 0,0" /></g><g
           transform="translate(381.1611,400.5859)"
           id="g304"><path
             id="path306"
             style="fill:#005221;fill-opacity:1;fill-rule:nonzero;stroke:none"
             d="m 0,0 c 1.641,-0.449 3.269,-0.858 4.876,-1.209 l 0.91,0.908 -3.043,3.044 z" /></g><g
           transform="translate(386.9468,400.2852)"
           id="g308"><path
             id="path310"
             style="fill:#005221;fill-opacity:1;fill-rule:nonzero;stroke:none"
             d="M 0,0 1.362,-1.362 C 1.528,-1.392 1.695,-1.426 1.86,-1.454 2.628,-1.588 3.388,-1.7 4.144,-1.798 2.891,-1.108 1.726,-0.278 0.672,0.673 Z" /></g><g
           transform="translate(376.8462,401.8408)"
           id="g312"><path
             id="path314"
             style="fill:#005221;fill-opacity:1;fill-rule:nonzero;stroke:none"
             d="M 0,0 C 1.165,-0.355 2.326,-0.696 3.48,-1.021 L 0.97,1.488 -0.236,0.282 Z" /></g><g
           transform="translate(352.3809,404.4258)"
           id="g316"><path
             id="path318"
             style="fill:#005221;fill-opacity:1;fill-rule:nonzero;stroke:none"
             d="M 0,0 3.044,-3.044 6.086,0 3.043,3.042 Z" /></g><g
           transform="translate(358.4673,404.4258)"
           id="g320"><path
             id="path322"
             style="fill:#005221;fill-opacity:1;fill-rule:nonzero;stroke:none"
             d="M 0,0 3.042,-3.044 6.086,0 3.043,3.042 Z" /></g><g
           transform="translate(368.5098,406.5547)"
           id="g324"><path
             id="path326"
             style="fill:#005221;fill-opacity:1;fill-rule:nonzero;stroke:none"
             d="M 0,0 -0.913,0.913 -3.956,-2.129 -0.912,-5.173 1.51,-2.75 C 0.98,-1.736 0.485,-0.845 0,0" /></g><g
           transform="translate(350.0166,406.7881)"
           id="g328"><path
             id="path330"
             style="fill:#005221;fill-opacity:1;fill-rule:nonzero;stroke:none"
             d="m 0,0 c -0.903,-0.427 -1.822,-0.891 -2.76,-1.401 l -0.963,-0.961 3.043,-3.044 3.044,3.044 z" /></g><g
           transform="translate(344.2285,403.6211)"
           id="g332"><path
             id="path334"
             style="fill:#005221;fill-opacity:1;fill-rule:nonzero;stroke:none"
             d="M 0,0 0.828,-0.435 2.065,0.805 1.797,1.072 C 1.205,0.731 0.607,0.378 0,0" /></g><g
           transform="translate(355.7061,409.0596)"
           id="g336"><path
             id="path338"
             style="fill:#005221;fill-opacity:1;fill-rule:nonzero;stroke:none"
             d="m 0,0 c -0.46,-0.149 -0.925,-0.31 -1.395,-0.479 l 1.113,-1.113 2.153,2.153 C 1.254,0.389 0.633,0.206 0,0" /></g><g
           transform="translate(364.1089,410.9551)"
           id="g340"><path
             id="path342"
             style="fill:#005221;fill-opacity:1;fill-rule:nonzero;stroke:none"
             d="m 0,0 c -1.654,-0.224 -3.357,-0.533 -5.121,-0.965 l 2.523,-2.522 3.043,3.043 z" /></g><g
           transform="translate(367.8389,407.71)"
           id="g344"><path
             id="path346"
             style="fill:#005221;fill-opacity:1;fill-rule:nonzero;stroke:none"
             d="M 0,0 C -0.146,0.25 -0.294,0.501 -0.443,0.753 -0.944,1.605 -1.462,2.486 -2.012,3.454 -2.244,3.431 -2.478,3.401 -2.711,3.374 l -0.574,-0.573 3.043,-3.043 z" /></g><g
           transform="translate(353.9795,396.7402)"
           id="g348"><path
             id="path350"
             style="fill:#005221;fill-opacity:1;fill-rule:nonzero;stroke:none"
             d="M 0,0 C 1.519,0.793 2.889,1.406 4.196,1.891 L 1.446,4.642 -1.599,1.599 Z" /></g><g
           transform="translate(359.2119,398.9941)"
           id="g352"><path
             id="path354"
             style="fill:#005221;fill-opacity:1;fill-rule:nonzero;stroke:none"
             d="M 0,0 C 1.254,0.41 2.472,0.71 3.736,0.95 L 2.298,2.388 -0.136,-0.046 C -0.09,-0.031 -0.045,-0.015 0,0" /></g><g
           transform="translate(368.3027,400.6768)"
           id="g356"><path
             id="path358"
             style="fill:#005221;fill-opacity:1;fill-rule:nonzero;stroke:none"
             d="M 0,0 -0.705,0.705 -1.586,-0.177 C -1.077,-0.116 -0.546,-0.059 0,0" /></g><g
           transform="translate(349.0449,401.0898)"
           id="g360"><path
             id="path362"
             style="fill:#005221;fill-opacity:1;fill-rule:nonzero;stroke:none"
             d="M 0,0 0.573,-0.301 0.827,-0.434 0.753,-0.71 -0.418,-5.084 0.292,-5.794 3.336,-2.751 0.292,0.292 Z" /></g><g
           transform="translate(347.854,393.1182)"
           id="g364"><path
             id="path366"
             style="fill:#005221;fill-opacity:1;fill-rule:nonzero;stroke:none"
             d="M 0,0 C 0.79,0.509 1.535,0.976 2.25,1.412 L 1.483,2.178 0.254,0.949 Z" /></g><g
           transform="translate(431.4756,398.4658)"
           id="g368"><path
             id="path370"
             style="fill:#ffffff;fill-opacity:1;fill-rule:nonzero;stroke:none"
             d="m 0,0 c -1.584,0.895 -3.213,3.633 -1.987,6.154 4.312,7.912 9.109,15.185 15.293,22.276 4.256,0.595 3.455,3.816 0.39,5.227 3.506,-3.874 -1.259,-3.362 -1.84,-4.195 C 9.976,26.652 1.995,14.123 -2.649,6.191 -3.7,4.063 -1.943,0.124 -0.242,-0.43 1.119,-1.188 3.725,-1.219 5.391,-0.114 5.142,-0.057 4.89,-0.003 4.636,0.05 3.081,-0.75 1.241,-0.702 0,0" /></g><g
           transform="translate(436.1094,414.5713)"
           id="g372"><path
             id="path374"
             style="fill:#ffffff;fill-opacity:1;fill-rule:nonzero;stroke:none"
             d="M 0,0 C 2.477,-0.374 3.53,-1.067 4.799,-2.479 4.953,-2.681 5.068,-2.92 5.166,-3.175 5.363,-3.226 5.565,-3.281 5.765,-3.334 5.678,-2.961 5.57,-2.597 5.417,-2.252 3.908,-0.312 2.045,0.341 0,0" /></g><g
           transform="translate(423.3926,402.123)"
           id="g376"><path
             id="path378"
             style="fill:#ffffff;fill-opacity:1;fill-rule:nonzero;stroke:none"
             d="M 0,0 2.324,2.778 C 2.366,3.062 2.428,3.33 2.48,3.604 L 1.836,4.249 -1.205,1.206 Z" /></g><g
           transform="translate(425.6367,412.0488)"
           id="g380"><path
             id="path382"
             style="fill:#ffffff;fill-opacity:1;fill-rule:nonzero;stroke:none"
             d="m 0,0 c -0.285,-0.011 -0.572,-0.026 -0.863,-0.047 l -2.588,-2.588 3.043,-3.042 1.052,1.051 c 0.049,0.167 0.086,0.342 0.14,0.505 0.273,0.824 0.612,1.599 1.017,2.321 z" /></g><g
           transform="translate(413.9648,399.377)"
           id="g384"><path
             id="path386"
             style="fill:#ffffff;fill-opacity:1;fill-rule:nonzero;stroke:none"
             d="M 0,0 -0.909,0.908 -2.271,-0.454 C -1.52,-0.316 -0.762,-0.166 0,0" /></g><g
           transform="translate(416.0977,403.3291)"
           id="g388"><path
             id="path390"
             style="fill:#ffffff;fill-opacity:1;fill-rule:nonzero;stroke:none"
             d="m 0,0 2.744,-2.743 c 0.277,0.076 0.557,0.154 0.834,0.233 L 6.09,0 3.045,3.043 Z" /></g><g
           transform="translate(452.7461,405.3867)"
           id="g392"><path
             id="path394"
             style="fill:#ffffff;fill-opacity:1;fill-rule:nonzero;stroke:none"
             d="M 0,0 0.963,-0.961 1.23,-0.693 C 0.818,-0.455 0.406,-0.221 0,0" /></g><g
           transform="translate(434.875,411.084)"
           id="g396"><path
             id="path398"
             style="fill:#ffffff;fill-opacity:1;fill-rule:nonzero;stroke:none"
             d="m 0,0 0.574,-0.573 0.445,0.444 C 0.678,-0.083 0.338,-0.039 0,0" /></g><g
           transform="translate(444.5781,407.4678)"
           id="g400"><path
             id="path402"
             style="fill:#ffffff;fill-opacity:1;fill-rule:nonzero;stroke:none"
             d="m 0,0 -2.152,2.152 c -0.475,0.133 -0.946,0.256 -1.411,0.37 L -6.086,0 -3.043,-3.042 Z" /></g><g
           transform="translate(449.9863,406.7881)"
           id="g404"><path
             id="path406"
             style="fill:#ffffff;fill-opacity:1;fill-rule:nonzero;stroke:none"
             d="M 0,0 C -1.475,0.697 -2.904,1.29 -4.295,1.792 L -5.408,0.68 -2.364,-2.362 Z" /></g><g
           transform="translate(454.9473,403.1865)"
           id="g408"><path
             id="path410"
             style="fill:#ffffff;fill-opacity:1;fill-rule:nonzero;stroke:none"
             d="m 0,0 -1.238,1.239 -3.043,-3.044 0.292,-0.292 z" /></g><g
           transform="translate(431.4922,406.5547)"
           id="g412"><path
             id="path414"
             style="fill:#ffffff;fill-opacity:1;fill-rule:nonzero;stroke:none"
             d="M 0,0 0.913,0.913 0.672,1.155 C 0.447,0.773 0.225,0.391 0,0" /></g><g
           transform="translate(435.4492,410.5107)"
           id="g416"><path
             id="path418"
             style="fill:#ffffff;fill-opacity:1;fill-rule:nonzero;stroke:none"
             d="M 0,0 -3.044,-3.043 0,-6.085 3.043,-3.043 Z" /></g><g
           transform="translate(447.6221,404.4258)"
           id="g420"><path
             id="path422"
             style="fill:#ffffff;fill-opacity:1;fill-rule:nonzero;stroke:none"
             d="M 0,0 -3.044,-3.044 0,-6.087 3.044,-3.044 Z" /></g><g
           transform="translate(438.4932,401.3818)"
           id="g424"><path
             id="path426"
             style="fill:#ffffff;fill-opacity:1;fill-rule:nonzero;stroke:none"
             d="M 0,0 2.433,-2.434 C 2.731,-2.533 3.03,-2.639 3.335,-2.751 L 6.085,0 3.042,3.044 Z" /></g><g
           transform="translate(432.4043,401.3818)"
           id="g428"><path
             id="path430"
             style="fill:#ffffff;fill-opacity:1;fill-rule:nonzero;stroke:none"
             d="M 0,0 0.883,-0.882 C 2.229,-1.039 3.46,-1.212 4.65,-1.437 L 6.089,0 3.045,3.044 Z" /></g><g
           transform="translate(429.7207,403.2988)"
           id="g432"><path
             id="path434"
             style="fill:#ffffff;fill-opacity:1;fill-rule:nonzero;stroke:none"
             d="M 0,0 C -0.014,-1.558 0.283,-2.044 0.578,-2.476 1.062,-2.525 1.525,-2.573 1.979,-2.622 L 2.684,-1.917 0.262,0.506 C 0.176,0.339 0.089,0.175 0,0" /></g><g
           transform="translate(446.0234,396.7402)"
           id="g436"><path
             id="path438"
             style="fill:#ffffff;fill-opacity:1;fill-rule:nonzero;stroke:none"
             d="M 0,0 C 1.185,-0.618 2.463,-1.348 3.875,-2.21 L 4.643,-1.444 1.599,1.599 Z" /></g><g
           transform="translate(450.666,395.2959)"
           id="g440"><path
             id="path442"
             style="fill:#ffffff;fill-opacity:1;fill-rule:nonzero;stroke:none"
             d="M 0,0 1.229,-1.229 0.709,0.71 Z" /></g><g
           transform="translate(371.1758,404.6572)"
           id="g444"><path
             id="path446"
             style="fill:#ffffff;fill-opacity:1;fill-rule:nonzero;stroke:none"
             d="m 0,0 c -4.644,7.932 -12.625,20.461 -14.505,23.271 -0.579,0.833 -5.346,0.321 -1.84,4.195 -3.064,-1.411 -3.864,-4.632 0.39,-5.228 C -9.771,15.147 -4.974,7.875 -0.661,-0.037 0.564,-2.559 -1.065,-5.297 -2.648,-6.191 -3.89,-6.894 -5.729,-6.941 -7.285,-6.142 -7.538,-6.194 -7.79,-6.248 -8.04,-6.306 -6.373,-7.41 -3.768,-7.38 -2.406,-6.621 -0.705,-6.067 1.052,-2.128 0,0" /></g><g
           transform="translate(363.8936,414.5713)"
           id="g448"><path
             id="path450"
             style="fill:#ffffff;fill-opacity:1;fill-rule:nonzero;stroke:none"
             d="m 0,0 c -2.045,0.341 -3.908,-0.312 -5.417,-2.252 -0.153,-0.345 -0.261,-0.709 -0.348,-1.082 0.2,0.053 0.401,0.108 0.598,0.159 0.098,0.255 0.214,0.494 0.368,0.696 C -3.531,-1.067 -2.477,-0.374 0,0" /></g><g
           transform="translate(374.1299,405.7275)"
           id="g452"><path
             id="path454"
             style="fill:#ffffff;fill-opacity:1;fill-rule:nonzero;stroke:none"
             d="M 0,0 C 0.053,-0.274 0.114,-0.543 0.157,-0.826 L 2.48,-3.604 3.686,-2.398 0.644,0.645 Z" /></g><g
           transform="translate(375.229,412.002)"
           id="g456"><path
             id="path458"
             style="fill:#ffffff;fill-opacity:1;fill-rule:nonzero;stroke:none"
             d="m 0,0 c -0.291,0.021 -0.579,0.036 -0.863,0.047 l -1.801,-1.8 c 0.405,-0.723 0.745,-1.497 1.017,-2.321 0.054,-0.163 0.091,-0.338 0.14,-0.505 l 1.052,-1.051 3.043,3.042 z" /></g><g
           transform="translate(388.3091,398.9229)"
           id="g460"><path
             id="path462"
             style="fill:#ffffff;fill-opacity:1;fill-rule:nonzero;stroke:none"
             d="M 0,0 -1.362,1.362 -2.271,0.454 C -1.509,0.288 -0.752,0.138 0,0" /></g><g
           transform="translate(377.8159,403.3291)"
           id="g464"><path
             id="path466"
             style="fill:#ffffff;fill-opacity:1;fill-rule:nonzero;stroke:none"
             d="M 0,0 2.51,-2.51 C 2.789,-2.589 3.067,-2.667 3.345,-2.743 L 6.088,0 3.044,3.043 Z" /></g><g
           transform="translate(346.0259,404.6934)"
           id="g468"><path
             id="path470"
             style="fill:#ffffff;fill-opacity:1;fill-rule:nonzero;stroke:none"
             d="M 0,0 0.268,-0.268 1.23,0.693 C 0.824,0.473 0.413,0.238 0,0" /></g><g
           transform="translate(364.1089,410.9551)"
           id="g472"><path
             id="path474"
             style="fill:#ffffff;fill-opacity:1;fill-rule:nonzero;stroke:none"
             d="M 0,0 0.445,-0.444 1.019,0.129 C 0.681,0.09 0.341,0.046 0,0" /></g><g
           transform="translate(361.5107,407.4678)"
           id="g476"><path
             id="path478"
             style="fill:#ffffff;fill-opacity:1;fill-rule:nonzero;stroke:none"
             d="M 0,0 -2.523,2.522 C -2.989,2.408 -3.459,2.285 -3.934,2.152 L -6.086,0 -3.043,-3.042 Z" /></g><g
           transform="translate(354.311,408.5801)"
           id="g480"><path
             id="path482"
             style="fill:#ffffff;fill-opacity:1;fill-rule:nonzero;stroke:none"
             d="m 0,0 c -1.39,-0.502 -2.82,-1.095 -4.294,-1.792 l 2.364,-2.362 3.043,3.042 z" /></g><g
           transform="translate(345.0562,403.1865)"
           id="g484"><path
             id="path486"
             style="fill:#ffffff;fill-opacity:1;fill-rule:nonzero;stroke:none"
             d="M 0,0 3.989,-2.097 4.28,-1.805 1.238,1.239 Z" /></g><g
           transform="translate(367.8389,407.71)"
           id="g488"><path
             id="path490"
             style="fill:#ffffff;fill-opacity:1;fill-rule:nonzero;stroke:none"
             d="M 0,0 -0.242,-0.242 0.671,-1.155 C 0.447,-0.765 0.224,-0.382 0,0" /></g><g
           transform="translate(367.5972,407.4678)"
           id="g492"><path
             id="path494"
             style="fill:#ffffff;fill-opacity:1;fill-rule:nonzero;stroke:none"
             d="M 0,0 -3.043,3.043 -6.086,0 -3.043,-3.042 Z" /></g><g
           transform="translate(349.3364,401.3818)"
           id="g496"><path
             id="path498"
             style="fill:#ffffff;fill-opacity:1;fill-rule:nonzero;stroke:none"
             d="M 0,0 3.044,-3.043 6.089,0 3.044,3.044 Z" /></g><g
           transform="translate(355.4253,401.3818)"
           id="g500"><path
             id="path502"
             style="fill:#ffffff;fill-opacity:1;fill-rule:nonzero;stroke:none"
             d="m 0,0 2.75,-2.751 c 0.303,0.112 0.603,0.218 0.901,0.317 L 6.084,0 3.042,3.044 Z" /></g><g
           transform="translate(367.5981,401.3818)"
           id="g504"><path
             id="path506"
             style="fill:#ffffff;fill-opacity:1;fill-rule:nonzero;stroke:none"
             d="M 0,0 -3.044,3.044 -6.088,0 -4.65,-1.437 c 1.19,0.225 2.421,0.398 3.768,0.555 z" /></g><g
           transform="translate(369.7041,400.8232)"
           id="g508"><path
             id="path510"
             style="fill:#ffffff;fill-opacity:1;fill-rule:nonzero;stroke:none"
             d="M 0,0 C 0.294,0.432 0.592,0.918 0.578,2.476 0.489,2.65 0.402,2.814 0.316,2.981 L -2.106,0.559 -1.401,-0.146 C -0.947,-0.098 -0.484,-0.05 0,0" /></g><g
           transform="translate(350.104,394.5303)"
           id="g512"><path
             id="path514"
             style="fill:#ffffff;fill-opacity:1;fill-rule:nonzero;stroke:none"
             d="M 0,0 C 1.412,0.862 2.691,1.592 3.875,2.21 L 2.277,3.809 -0.767,0.766 Z" /></g><g
           transform="translate(348.1084,394.0674)"
           id="g516"><path
             id="path518"
             style="fill:#ffffff;fill-opacity:1;fill-rule:nonzero;stroke:none"
             d="M 0,0 1.229,1.229 0.519,1.938 Z" /></g><g
           transform="translate(416.0049,395.0996)"
           id="g520"><path
             id="path522"
             style="fill:#ffffff;fill-opacity:1;fill-rule:nonzero;stroke:none"
             d="M 0,0 C -0.054,-0.936 2.08,-3.416 4.192,-3.942 3.044,-2.406 1.785,-1.244 1.75,-0.127 1.182,0.185 0.628,0.378 0,0" /></g><g
           transform="translate(418.8135,393.9414)"
           id="g524"><path
             id="path526"
             style="fill:#ffffff;fill-opacity:1;fill-rule:nonzero;stroke:none"
             d="M 0,0 6.955,9.034 C 6.949,9.294 7.01,9.716 7.13,10.19 L -0.523,0.761 C -0.46,0.368 -0.219,0.056 0,0" /></g><g
           transform="translate(429.2803,408.832)"
           id="g528"><path
             id="path530"
             style="fill:#ffffff;fill-opacity:1;fill-rule:nonzero;stroke:none"
             d="m 0,0 9.655,22.461 1.959,3.262 c -1.396,0.887 -3.101,0.852 -4.203,0.5 L 8.207,22.78 C 5.191,14.403 1.534,6.177 -0.761,0.182 -2.666,-4.452 -2.209,-7.837 -0.733,-9.58 -1.713,-7.069 -1.825,-3.577 0,0" /></g><g
           transform="translate(382.248,394.9727)"
           id="g532"><path
             id="path534"
             style="fill:#ffffff;fill-opacity:1;fill-rule:nonzero;stroke:none"
             d="M 0,0 C -0.035,-1.117 -1.293,-2.279 -2.442,-3.815 -0.331,-3.289 1.804,-0.809 1.75,0.127 1.121,0.505 0.568,0.312 0,0" /></g><g
           transform="translate(381.7124,394.7021)"
           id="g536"><path
             id="path538"
             style="fill:#ffffff;fill-opacity:1;fill-rule:nonzero;stroke:none"
             d="m 0,0 -7.652,9.43 c 0.119,-0.475 0.18,-0.897 0.174,-1.157 l 6.956,-9.034 C -0.305,-0.705 -0.063,-0.393 0,0" /></g><g
           transform="translate(362.5156,431.6123)"
           id="g540"><path
             id="path542"
             style="fill:#ffffff;fill-opacity:1;fill-rule:nonzero;stroke:none"
             d="m 0,0 0.795,3.442 c -1.101,0.353 -2.807,0.388 -4.202,-0.5 l 1.959,-3.261 9.655,-22.461 c 1.826,-3.577 1.713,-7.07 0.732,-9.58 1.477,1.743 1.934,5.128 0.029,9.761 C 6.672,-16.604 3.015,-8.377 0,0" /></g><g
           transform="translate(417.3223,408.1914)"
           id="g544"><path
             id="path546"
             style="fill:#ffffff;fill-opacity:1;fill-rule:nonzero;stroke:none"
             d="M 0,0 1.82,-1.819 4.863,1.223 2.904,3.183 C 2.212,3.051 1.508,2.903 0.799,2.75 1.05,3.965 1.183,5.224 1.183,6.513 c 0,10.217 -8.287,18.505 -18.504,18.505 -10.218,0 -18.504,-8.288 -18.504,-18.505 0,-1.289 0.132,-2.548 0.384,-3.762 -0.709,0.153 -1.413,0.3 -2.105,0.432 l -1.959,-1.96 3.043,-3.042 1.819,1.819 c 0.536,-1.424 1.242,-2.763 2.094,-3.994 l -0.869,-0.868 3.043,-3.044 0.671,0.673 c 3.28,-2.957 7.621,-4.758 12.383,-4.758 4.762,0 9.103,1.801 12.384,4.758 l 0.67,-0.673 3.042,3.044 -0.868,0.868 C -1.241,-2.763 -0.535,-1.423 0,0" /></g><g
           transform="translate(416.9307,414.7002)"
           id="g548"><path
             id="path550"
             style="fill:#000000;fill-opacity:1;fill-rule:nonzero;stroke:none"
             d="m 0,0 c 0,4.664 -1.9,8.898 -4.966,11.965 -3.066,3.067 -7.299,4.971 -11.964,4.971 v 0.001 h -0.001 v -0.001 c -4.664,-0.001 -8.897,-1.903 -11.963,-4.971 -3.065,-3.067 -4.966,-7.301 -4.966,-11.966 h -10e-4 v -0.001 h 10e-4 c 0,-4.661 1.901,-8.892 4.966,-11.957 3.066,-3.065 7.299,-4.967 11.963,-4.967 v -0.002 h 0.001 0.001 v 0.002 c 4.664,0 8.897,1.902 11.963,4.967 C -1.9,-8.894 0,-4.662 0,-0.001 H 0.003 V 0 Z" /></g><g
           transform="translate(409.5742,415.0957)"
           id="g552"><path
             id="path554"
             style="fill:#ffffff;fill-opacity:1;fill-rule:nonzero;stroke:none"
             d="M 0,0 -4.133,3.55 -4.402,9.476 -0.455,11.045 3.021,9.56 C 3.963,8.371 4.74,7.048 5.318,5.623 L 4.95,1.409 Z" /></g><g
           transform="translate(394.356,418.6035)"
           id="g556"><path
             id="path558"
             style="fill:#ffffff;fill-opacity:1;fill-rule:nonzero;stroke:none"
             d="M 0,0 -0.151,4.779 5.047,8.761 9.945,6.141 10.214,0.223 5.221,-2.385 Z" /></g><g
           transform="translate(409.3691,426.9697)"
           id="g560"><path
             id="path562"
             style="fill:#ffffff;fill-opacity:1;fill-rule:nonzero;stroke:none"
             d="M 0,0 -1.035,1.464 C 0.016,0.823 0.986,0.062 1.861,-0.795 Z" /></g><g
           transform="translate(398.8843,428.0527)"
           id="g564"><path
             id="path566"
             style="fill:#ffffff;fill-opacity:1;fill-rule:nonzero;stroke:none"
             d="m 0,0 -5.285,-4.048 0.05,-0.065 -4.783,0.249 v 2.076 c 2.439,2.35 5.613,3.939 9.138,4.38 z" /></g><g
           transform="translate(388.0044,423.3936)"
           id="g568"><path
             id="path570"
             style="fill:#ffffff;fill-opacity:1;fill-rule:nonzero;stroke:none"
             d="m 0,0 -2.03,-4.896 -0.038,0.049 -1.82,-1.42 c 0.479,3.134 1.869,5.974 3.888,8.243 z" /></g><g
           transform="translate(393.9727,417.832)"
           id="g572"><path
             id="path574"
             style="fill:#ffffff;fill-opacity:1;fill-rule:nonzero;stroke:none"
             d="m 0,0 5.227,-2.387 0.852,-5.006 -4.438,-3.601 -0.235,-0.027 -4.346,1.727 -1.161,5.778 z" /></g><g
           transform="translate(397.5659,401.8701)"
           id="g576"><path
             id="path578"
             style="fill:#ffffff;fill-opacity:1;fill-rule:nonzero;stroke:none"
             d="M 0,0 -1.546,4.203 -1.507,4.22 3.067,7.933 8.649,6.68 10.139,2.618 6.678,-0.485 Z" /></g><g
           transform="translate(412.9687,405.2373)"
           id="g580"><path
             id="path582"
             style="fill:#ffffff;fill-opacity:1;fill-rule:nonzero;stroke:none"
             d="m 0,0 -4.5,-0.327 -1.505,4.1 2.802,5.244 4.954,1.41 1.286,-2.35 C 2.778,5.076 1.689,2.307 0,0" /></g><g
           transform="translate(383.9326,414.6992)"
           id="g584"><path
             id="path586"
             style="fill:#ffffff;fill-opacity:1;fill-rule:nonzero;stroke:none"
             d="M 0,0 C 0,0.416 0.021,0.826 0.053,1.233 L 2.227,2.93 5.103,-0.261 5.035,-0.274 6.271,-6.427 4.412,-8.769 1.755,-7.277 C 0.637,-5.09 0,-2.618 0,-0.001 H 0.002 V 0 Z" /></g><g
           transform="translate(386.5376,405.9561)"
           id="g588"><path
             id="path590"
             style="fill:#ffffff;fill-opacity:1;fill-rule:nonzero;stroke:none"
             d="m 0,0 1.811,-1.017 0.87,-2.131 C 2.487,-2.973 2.296,-2.792 2.111,-2.606 1.32,-1.815 0.614,-0.94 0,0" /></g><g
           transform="translate(400.0015,398.6377)"
           id="g592"><path
             id="path594"
             style="fill:#ffffff;fill-opacity:1;fill-rule:nonzero;stroke:none"
             d="m 0,0 h -0.001 v -0.001 c -1.411,0 -2.779,0.185 -4.084,0.529 L -2.566,2.379 4.176,1.889 5.087,0.831 C 3.487,0.294 1.778,-0.001 0,-0.001 Z" /></g></g></g></g></svg>