<svg xmlns="http://www.w3.org/2000/svg" viewBox="0 0 419.88 277.27"><title>fc spartak moscow logo</title><path d="M491.44,373.36l-4.94,10.06-11,1.62,8,7.83-1.88,11,9.87-5.45,9.87,5.46-1.88-11,8-7.83-11-1.62-4.94-10.06m-39.72,0-4.94,10.06-11,1.62,8,7.83-1.88,11,9.87-5.45,9.87,5.46-1.88-11,8-7.83-11-1.62-4.94-10.06m79.22,0L526,383.43,515,385l8,7.83-1.88,11,9.87-5.45,9.86,5.46-1.87-11,8-7.83-11-1.62-4.94-10.06m39.72,0-4.93,10.06-11,1.62,8,7.83-1.88,11,9.87-5.45,9.86,5.46-1.88-11,8-7.83-11-1.62-4.94-10.06" transform="translate(-302.06 -373.36)" style="fill:#c8a979"/><path d="M512,418.39,302.06,534.51l210,116.13L721.94,534.51,512,418.39" transform="translate(-302.06 -373.36)" style="fill:#fff"/><path d="M512.05,426.48,316.17,534.8,512.05,643.11,707.82,534.8ZM342.24,534.8,512,440.8l170.12,94L512,628.8Z" transform="translate(-302.06 -373.36)" style="fill:#d11f3d"/><path d="M531.85,514.91a27.7,27.7,0,0,0-19.76-8.31H512a28.18,28.18,0,0,0-.08,56.36H512a28.22,28.22,0,0,0,19.84-48.05Zm-28.34,40.27a28.77,28.77,0,0,1-5.48-3,18.42,18.42,0,0,1-4-4.21l-.06-.11a49,49,0,0,1-.11-6.7c.12-1.77.26-3.54.58-5.43L505,530.89c1.65,1.37,3.48,2.62,5.24,3.94s3.49,2.69,5.27,3.9l-.91,12.08A105.23,105.23,0,0,1,503.52,555.18Zm-11.73-37a59.22,59.22,0,0,0-2.56,6q-.86,2.48-1.48,5l0,.07a22.11,22.11,0,0,0-1.64,2.19,26.33,26.33,0,0,1,5.69-13.3ZM488.14,529c.16-.65.69-2.74,1.42-4.79a58.84,58.84,0,0,1,2.55-5.94,19,19,0,0,1,2.23-1.44,38.09,38.09,0,0,1,4.89-2.33,12.53,12.53,0,0,1,3.18-1l6.59,5.75a74.56,74.56,0,0,0-3.67,9.88c-.16.48-.28,1-.38,1.39l-10.64,4.9C492.32,533.44,488.84,529.69,488.14,529Zm26.77,21.82.92-12.17c.61-.36,1.91-1.17,2.16-1.33,1.75-1.11,3.56-2.35,5.37-3.57.3-.2,1.8-1.28,2.32-1.67a3.38,3.38,0,0,0,.4-.29l8.57,5.45a26.14,26.14,0,0,1,0,4.53,46,46,0,0,1-.51,4.94,12.63,12.63,0,0,1-.53,2.36l0,0a29.52,29.52,0,0,1-5.35,4.38,29.87,29.87,0,0,1-4.27,2.35c-1.87-.88-3.74-1.86-5.52-2.91-.37-.22-2.82-1.7-3.53-2.11ZM527,514.76a2.91,2.91,0,0,1,1.48.56c1,.54,1.92,1.12,2.82,1.72A26.3,26.3,0,0,1,538.08,533a24.69,24.69,0,0,1-3.3,4l-8.65-5.49c0-.19-.09-.42-.13-.57s-.13-.51-.21-.76a57.13,57.13,0,0,0-3.7-10.23l4.88-5.11Zm-14.94-6.31A25.86,25.86,0,0,1,523,510.9c.14.1.28.19.42.31.75.61,1.55,1.35,2.26,2.05a5.38,5.38,0,0,1,1,1.3l-4.86,5.1a46.71,46.71,0,0,0-7.7-.74,36.68,36.68,0,0,0-4.45.1l-.37,0-6.56-5.73a17.56,17.56,0,0,1,4.45-4.4,26,26,0,0,1,4.81-.45ZM489.83,548.7a15.15,15.15,0,0,0,1.91-.17,19.34,19.34,0,0,0,2-.38l0,0a18.82,18.82,0,0,0,4.11,4.3,29.66,29.66,0,0,0,5.56,3l.06,0a18.14,18.14,0,0,0,.73,2.71c.2.63.45,1.25.69,1.85A26.19,26.19,0,0,1,489.83,548.7Zm32.85,10.11a17.31,17.31,0,0,0,1.38-2.61,33.06,33.06,0,0,0,9.57-6.63A26.26,26.26,0,0,1,522.68,558.81Z" transform="translate(-302.06 -373.36)" style="fill:#d11f3d"/><path d="M608.54,508.16l-61.36,33.92a36.14,36.14,0,1,1-4.06-25.33h6.93V487.2l10.28-5.68L512,454.92,367.74,534.8l48.11,26.61,32.35-17.89a48.11,48.11,0,0,0,17.32,29.71,57.57,57.57,0,0,0,11.77,7.48L464,588l47.88,26.61,144.72-79.89-48.09-26.6" transform="translate(-302.06 -373.36)" style="fill:#d11f3d"/><path d="M507.16,485.52c-15.18,0-29.25,4.73-39.63,13.3a46.76,46.76,0,0,0,0,71.91C477.91,579.31,492,584,507.16,584c15.59,0,30.52-6,40.95-16.39l.07-.07V555.31h-2.81A39.2,39.2,0,1,1,512,495.4a38.78,38.78,0,0,1,32.88,18.1h2V490.8l-4.44,2.45-1.13,2.9-1.64-1.08a59.87,59.87,0,0,0-32.5-9.55" transform="translate(-302.06 -373.36)" style="fill:#fff"/></svg>