<?xml version="1.0" encoding="utf-8"?>
<!-- Generator: Adobe Illustrator 24.3.0, SVG Export Plug-In . SVG Version: 6.00 Build 0)  -->
<svg version="1.1" id="Слой_1" xmlns="http://www.w3.org/2000/svg" xmlns:xlink="http://www.w3.org/1999/xlink" x="0px" y="0px"
	 viewBox="0 0 160 105" style="enable-background:new 0 0 160 105;" xml:space="preserve">
<style type="text/css">
	.st0{fill:#009EE1;}
	.st1{fill:#D0AF2C;}
</style>
<path class="st0" d="M65,36.7h6.5l-3.2,11.2l5.1-1.3l2.9-9.9h6.1l-4.9,16.8l8.1-10.8l1.8-6.1H93l-3.5,11.9c-0.1,0.4-0.9,3-0.3,3
	c0.6,0,2.2-2.7,3.9-5.9c1.9-3.4,3.5-7,4.3-9h5.9l-2.9,10.1l7.5-10.1h52L34.5,90.3l2.5-8.5l98.5-40.3h-19.2l-1.9,6.3l-6.1,1.9
	l2.5-8.2h-3l-8.5,11l-5.3,1.8c0.3-2.7,0.7-5.3,1.4-7.9l-2.5,4.6c-2,3.6-3.6,6.5-6.6,6.5c-2.2,0-3.2-2-3.2-4.7c0-0.9,0.1-2,0.4-3
	l-8,10.7l-6.6,2.2L72,51.2L67,52.5l-3.5,12.1L56.3,67l3.2-11.2l-7.3,9.3c-3.1,4-6.3,6.1-8.8,6.1c-4.9,0-5.6-8.1-5.1-11.3
	c-2.7,1.2-3.6,1.7-4.5,2.2c1.2,17.3-16.5,41.2-27.7,41.2c-3.5,0-6.1-2.7-6.1-8.7c0-9,6.7-22,24.8-32.3c-0.5-3.5-1.7-6.5-3.9-8.4
	v-0.4c6.1-4.7,10.8-10,10.8-14.7c0-2.2-1.7-3-3.5-3c-3.4,0-7.9,4.2-10.3,7.7h-1.3l2-6.8c4.6-6.1,12-8.3,16-8.3
	c4.1,0,7.6,1.6,7.6,6.5c0,5.8-5.1,11.9-12.6,16.5c1.7,2,2.9,4.2,3.5,6.6c1.8-0.9,3.7-1.9,5.7-2.8c2.2-10.6,9.8-18.8,16.5-18.8
	c3.4,0,4.9,2,4.9,4.8c0,6.4-5.8,11.3-14.1,15.6c-0.2,1.5-0.2,2.3-0.2,3.2c0,2.9,0.6,4.3,1.7,4.3c0.7,0,1.6-0.7,2.6-1.8l11.1-13.2
	L65,36.7 M8.5,92.6c0,1.4,0.4,3.6,2,3.6c6.2,0,14.1-16.5,14.4-29.4C14,74.2,8.5,85,8.5,92.6z M53.5,42.4c0-1-0.4-1.7-1-1.7
	c-1.7,0-4.1,5.3-5.5,11.3C51.5,49.2,53.5,45.4,53.5,42.4z"/>
<path class="st0" d="M139.7,78.5l0.2-2.1h5.2v-2.9h-7.8l-0.8,7.9c0.9-0.3,2-0.5,2.7-0.5c2,0,3.2,0.9,3.2,2.1c0,0.9-0.9,1.9-2.5,1.9
	c-1.2,0-2.6-0.5-3.6-1.4l-0.4,3.2c1.1,0.7,2.6,1.3,4.2,1.3c3.7,0,5.8-2.2,5.8-5C145.9,79.6,142.7,77.8,139.7,78.5"/>
<path class="st0" d="M134.6,77.7c0-2.4-1.9-4.5-5.3-4.5c-3.2,0-5.3,2-5.3,5.2v0.1h3.4v-0.2c0-1.5,0.7-2.3,1.9-2.3
	c1,0,1.7,0.7,1.7,1.7c0,0.7-0.4,1.4-1.1,2.3l-6.4,7.6h10.9v-3h-4.4l2.6-2.8C133.9,80.3,134.6,79.2,134.6,77.7"/>
<polyline class="st0" points="104.2,76.7 107.3,76.7 107.3,87.6 110.8,87.6 110.8,73.5 105.9,73.5 104.2,76.7 "/>
<path class="st0" d="M117.7,73.1c-3.4,0-5.5,2.3-5.5,5.2c0,2.7,2.1,4.5,4.4,4.5c0.5,0,0.8,0,1.3-0.1l-3.3,4.9h4l2-3
	c1.6-2.4,2.5-4.2,2.5-6.3C123.1,75.3,121.1,73.1,117.7,73.1 M117.7,80.4c-1.2,0-2.2-0.8-2.2-2.2c0-1.2,0.8-2.2,2.2-2.2
	c1.3,0,2.2,1,2.2,2.2C119.8,79.5,119,80.4,117.7,80.4z"/>
<polyline class="st1" points="69,1.7 71.9,10.7 81.3,10.7 73.7,16.2 76.6,25.2 69,19.7 61.3,25.2 64.2,16.2 56.6,10.7 66,10.7 
	69,1.7 "/>
<polyline class="st1" points="97.8,1.7 100.7,10.7 110.2,10.7 102.5,16.2 105.5,25.2 97.8,19.7 90.2,25.2 93.1,16.2 85.4,10.7 
	94.9,10.7 97.8,1.7 "/>
</svg>
